<?xml version="1.0" encoding="UTF-8"?>
<!DOCTYPE svg PUBLIC "-//W3C//DTD SVG 1.1//EN" "http://www.w3.org/Graphics/SVG/1.1/DTD/svg11.dtd">
<svg xmlns="http://www.w3.org/2000/svg" version="1.1" width="512px" height="512px" style="shape-rendering:geometricPrecision; text-rendering:geometricPrecision; image-rendering:optimizeQuality; fill-rule:evenodd; clip-rule:evenodd" xmlns:xlink="http://www.w3.org/1999/xlink">
<g><path style="opacity:0.953" fill="#363636" d="M 459.5,143.5 C 455.471,138.779 452.471,133.446 450.5,127.5C 457.464,120.035 464.631,112.702 472,105.5C 475.257,99.8624 475.257,94.1957 472,88.5C 455.5,72 439,55.5 422.5,39C 416.833,35.6667 411.167,35.6667 405.5,39C 397.964,46.3684 390.631,53.8684 383.5,61.5C 377.878,58.5281 372.545,55.1947 367.5,51.5C 376.298,43.2023 384.965,34.7023 393.5,26C 407.75,17.0717 421.75,17.4051 435.5,27C 453.728,44.5595 471.228,62.7261 488,81.5C 492.886,92.6554 492.552,103.655 487,114.5C 477.994,124.338 468.828,134.005 459.5,143.5 Z"/></g>
<g><path style="opacity:0.975" fill="#4c4c4c" d="M 367.5,51.5 C 372.545,55.1947 377.878,58.5281 383.5,61.5C 410.15,79.1507 432.484,101.151 450.5,127.5C 452.471,133.446 455.471,138.779 459.5,143.5C 488.413,198.477 495.247,256.144 480,316.5C 474.686,335.785 467.186,354.118 457.5,371.5C 452.226,367.895 447.559,363.562 443.5,358.5C 444.496,358.586 445.329,358.252 446,357.5C 477.31,295.218 479.643,231.884 453,167.5C 420.737,99.9125 367.903,58.4125 294.5,43C 224.297,31.6275 162.63,49.2941 109.5,96C 46.4054,158.311 26.2388,232.477 49,318.5C 75.0608,395.894 127.561,445.061 206.5,466C 259.233,477.284 309.566,470.617 357.5,446C 358.252,445.329 358.586,444.496 358.5,443.5C 359.962,444.458 361.295,445.624 362.5,447C 363.833,447.167 365.167,447.333 366.5,447.5C 373.805,446.466 381.139,445.799 388.5,445.5C 355.459,469.33 318.459,483.164 277.5,487C 230.046,491.076 185.379,481.909 143.5,459.5C 138.779,455.471 133.446,452.471 127.5,450.5C 101.167,432.167 78.8333,409.833 60.5,383.5C 58.5287,377.554 55.5287,372.221 51.5,367.5C 19.1483,304.508 14.6483,239.508 38,172.5C 71.7141,91.7963 131.547,42.963 217.5,26C 270.381,17.9799 320.381,26.4799 367.5,51.5 Z"/></g>
<g><path style="opacity:1" fill="#373737" d="M 443.5,358.5 C 435.5,351.167 427.833,343.5 420.5,335.5C 434.898,328.933 445.065,318.267 451,303.5C 460.49,272.275 460.823,240.942 452,209.5C 442.927,186.596 426.094,174.263 401.5,172.5C 399.393,171.532 397.059,171.198 394.5,171.5C 394.827,161.985 394.494,152.652 393.5,143.5C 390.997,94.6658 365.33,71.9992 316.5,75.5C 303.355,74.81 290.688,76.81 278.5,81.5C 276.326,77.1604 272.993,73.9938 268.5,72C 243.833,71.3333 219.167,71.3333 194.5,72C 189.667,74.1667 186.167,77.6667 184,82.5C 183.501,88.1569 183.334,93.8236 183.5,99.5C 183.5,104.833 183.5,110.167 183.5,115.5C 178.369,110.87 173.369,106.037 168.5,101C 162.472,97.7348 156.472,97.7348 150.5,101C 146.963,104.369 143.629,107.869 140.5,111.5C 127.253,123.244 114.419,135.578 102,148.5C 98.1974,154.453 97.5307,160.786 100,167.5C 107.338,175.671 114.838,183.671 122.5,191.5C 117.5,191.5 112.5,191.5 107.5,191.5C 101.5,191.5 95.5,191.5 89.5,191.5C 81.0542,190.975 75.2209,194.641 72,202.5C 71.3333,221.5 71.3333,240.5 72,259.5C 74.4236,267.095 79.5902,271.095 87.5,271.5C 87.3334,290.503 87.5001,309.503 88,328.5C 91.2209,336.359 97.0542,340.025 105.5,339.5C 110.619,338.897 115.285,339.564 119.5,341.5C 119.333,359.503 119.5,377.503 120,395.5C 122.714,404.047 128.547,408.047 137.5,407.5C 143.5,407.5 149.5,407.5 155.5,407.5C 161.833,407.5 168.167,407.5 174.5,407.5C 164.75,417.747 165.417,427.247 176.5,436C 196.009,442.431 213.675,439.264 229.5,426.5C 247.295,452.551 271.295,460.717 301.5,451C 310.818,446.678 318.651,440.511 325,432.5C 327.637,427.53 330.47,422.863 333.5,418.5C 342.167,426.5 350.5,434.833 358.5,443.5C 358.586,444.496 358.252,445.329 357.5,446C 309.566,470.617 259.233,477.284 206.5,466C 127.561,445.061 75.0608,395.894 49,318.5C 26.2388,232.477 46.4054,158.311 109.5,96C 162.63,49.2941 224.297,31.6275 294.5,43C 367.903,58.4125 420.737,99.9125 453,167.5C 479.643,231.884 477.31,295.218 446,357.5C 445.329,358.252 444.496,358.586 443.5,358.5 Z"/></g>
<g><path style="opacity:1" fill="#fbe4ba" d="M 278.5,81.5 C 265.972,88.3598 256.972,98.3598 251.5,111.5C 251.5,107.5 251.5,103.5 251.5,99.5C 228.833,99.5 206.167,99.5 183.5,99.5C 183.334,93.8236 183.501,88.1569 184,82.5C 186.167,77.6667 189.667,74.1667 194.5,72C 219.167,71.3333 243.833,71.3333 268.5,72C 272.993,73.9938 276.326,77.1604 278.5,81.5 Z"/></g>
<g><path style="opacity:1" fill="#c26f2e" d="M 393.5,143.5 C 393.5,153.167 393.5,162.833 393.5,172.5C 396.167,172.5 398.833,172.5 401.5,172.5C 426.094,174.263 442.927,186.596 452,209.5C 460.823,240.942 460.49,272.275 451,303.5C 445.065,318.267 434.898,328.933 420.5,335.5C 403.347,338.877 386.014,340.21 368.5,339.5C 357.419,339.141 347.086,336.141 337.5,330.5C 325.648,322.463 317.815,311.463 314,297.5C 305.939,266.557 306.772,235.89 316.5,205.5C 319.598,198.388 323.931,192.055 329.5,186.5C 343.681,174.887 360.014,169.887 378.5,171.5C 378.5,168.833 378.5,166.167 378.5,163.5C 378.821,157.974 378.488,152.64 377.5,147.5C 377.741,107.073 357.741,88.4064 317.5,91.5C 309.806,91.5908 302.139,92.0908 294.5,93C 285.412,95.2687 278.079,100.102 272.5,107.5C 268.848,111.808 266.514,116.808 265.5,122.5C 262.354,133.143 260.688,144.143 260.5,155.5C 260.843,157.483 260.176,158.817 258.5,159.5C 253.833,159.5 249.167,159.5 244.5,159.5C 244.596,143.16 246.93,127.16 251.5,111.5C 256.972,98.3598 265.972,88.3598 278.5,81.5C 290.688,76.81 303.355,74.81 316.5,75.5C 365.33,71.9992 390.997,94.6658 393.5,143.5 Z"/></g>
<g><path style="opacity:1" fill="#ce8b57" d="M 377.5,147.5 C 363.425,149.229 350.425,146.396 338.5,139C 332.221,132.721 325.887,126.387 319.5,120C 305.453,109.99 289.786,105.823 272.5,107.5C 278.079,100.102 285.412,95.2687 294.5,93C 302.139,92.0908 309.806,91.5908 317.5,91.5C 357.741,88.4064 377.741,107.073 377.5,147.5 Z"/></g>
<g><path style="opacity:1" fill="#fbe4bb" d="M 183.5,115.5 C 194.798,127.298 206.298,138.965 218,150.5C 220.733,155.6 221.233,160.933 219.5,166.5C 207.668,172.333 198.001,180.666 190.5,191.5C 179.167,191.5 167.833,191.5 156.5,191.5C 166.812,180.854 177.145,170.187 187.5,159.5C 171.812,143.479 156.145,127.479 140.5,111.5C 143.629,107.869 146.963,104.369 150.5,101C 156.472,97.7348 162.472,97.7348 168.5,101C 173.369,106.037 178.369,110.87 183.5,115.5 Z"/></g>
<g><path style="opacity:1" fill="#fdf3e2" d="M 183.5,99.5 C 206.167,99.5 228.833,99.5 251.5,99.5C 251.5,103.5 251.5,107.5 251.5,111.5C 246.93,127.16 244.596,143.16 244.5,159.5C 235.666,160.244 227.332,162.578 219.5,166.5C 221.233,160.933 220.733,155.6 218,150.5C 206.298,138.965 194.798,127.298 183.5,115.5C 183.5,110.167 183.5,104.833 183.5,99.5 Z"/></g>
<g><path style="opacity:1" fill="#d8a278" d="M 272.5,107.5 C 289.786,105.823 305.453,109.99 319.5,120C 325.887,126.387 332.221,132.721 338.5,139C 350.425,146.396 363.425,149.229 377.5,147.5C 378.488,152.64 378.821,157.974 378.5,163.5C 351.39,166.862 329.723,157.695 313.5,136C 306.12,129.311 297.453,125.311 287.5,124C 279.989,123.829 272.655,123.329 265.5,122.5C 266.514,116.808 268.848,111.808 272.5,107.5 Z"/></g>
<g><path style="opacity:1" fill="#fcf2e1" d="M 140.5,111.5 C 156.145,127.479 171.812,143.479 187.5,159.5C 177.145,170.187 166.812,180.854 156.5,191.5C 156.167,191.5 155.833,191.5 155.5,191.5C 149.5,191.5 143.5,191.5 137.5,191.5C 132.5,191.5 127.5,191.5 122.5,191.5C 114.838,183.671 107.338,175.671 100,167.5C 97.5307,160.786 98.1974,154.453 102,148.5C 114.419,135.578 127.253,123.244 140.5,111.5 Z"/></g>
<g><path style="opacity:1" fill="#cf8c58" d="M 265.5,122.5 C 272.655,123.329 279.989,123.829 287.5,124C 297.453,125.311 306.12,129.311 313.5,136C 329.723,157.695 351.39,166.862 378.5,163.5C 378.5,166.167 378.5,168.833 378.5,171.5C 360.014,169.887 343.681,174.887 329.5,186.5C 323.758,180.255 317.758,174.089 311.5,168C 296.211,157.307 279.211,153.14 260.5,155.5C 260.688,144.143 262.354,133.143 265.5,122.5 Z"/></g>
<g><path style="opacity:1" fill="#d8a278" d="M 260.5,155.5 C 279.211,153.14 296.211,157.307 311.5,168C 317.758,174.089 323.758,180.255 329.5,186.5C 323.931,192.055 319.598,198.388 316.5,205.5C 315.042,198.914 312.208,192.914 308,187.5C 295.074,171.789 278.574,162.455 258.5,159.5C 260.176,158.817 260.843,157.483 260.5,155.5 Z"/></g>
<g><path style="opacity:1" fill="#985e31" d="M 393.5,143.5 C 394.494,152.652 394.827,161.985 394.5,171.5C 397.059,171.198 399.393,171.532 401.5,172.5C 398.833,172.5 396.167,172.5 393.5,172.5C 393.5,162.833 393.5,153.167 393.5,143.5 Z"/></g>
<g><path style="opacity:1" fill="#f4fbfa" d="M 244.5,159.5 C 249.167,159.5 253.833,159.5 258.5,159.5C 278.574,162.455 295.074,171.789 308,187.5C 312.208,192.914 315.042,198.914 316.5,205.5C 306.772,235.89 305.939,266.557 314,297.5C 317.815,311.463 325.648,322.463 337.5,330.5C 336.457,333.056 334.79,335.223 332.5,337C 327.941,340.437 323.274,343.604 318.5,346.5C 314.294,347.968 309.961,348.968 305.5,349.5C 292.999,344.028 279.999,342.361 266.5,344.5C 259.111,338.977 250.778,335.977 241.5,335.5C 234.966,334.97 228.966,336.303 223.5,339.5C 219.24,340.585 214.906,341.252 210.5,341.5C 204.329,341.899 198.329,341.232 192.5,339.5C 191.833,339.5 191.167,339.5 190.5,339.5C 185.37,336.766 180.37,333.766 175.5,330.5C 171.447,325.781 167.78,320.781 164.5,315.5C 158.93,302.76 158.264,289.76 162.5,276.5C 167.84,268.489 172.674,260.156 177,251.5C 178.083,239.855 179.083,228.188 180,216.5C 182.245,207.586 185.745,199.252 190.5,191.5C 198.001,180.666 207.668,172.333 219.5,166.5C 227.332,162.578 235.666,160.244 244.5,159.5 Z"/></g>
<g><path style="opacity:1" fill="#ce8b57" d="M 441.5,243.5 C 427.425,245.229 414.425,242.396 402.5,235C 396.221,228.721 389.887,222.387 383.5,216C 369.453,205.99 353.786,201.823 336.5,203.5C 342.079,196.102 349.412,191.269 358.5,189C 377.298,186.595 395.965,187.262 414.5,191C 428.588,197.332 436.755,208.166 439,223.5C 440.804,230.048 441.637,236.714 441.5,243.5 Z"/></g>
<g><path style="opacity:1" fill="#f95046" d="M 89.5,191.5 C 106.737,218.155 106.737,244.822 89.5,271.5C 88.8333,271.5 88.1667,271.5 87.5,271.5C 79.5902,271.095 74.4236,267.095 72,259.5C 71.3333,240.5 71.3333,221.5 72,202.5C 75.2209,194.641 81.0542,190.975 89.5,191.5 Z"/></g>
<g><path style="opacity:1" fill="#fe685e" d="M 89.5,191.5 C 95.5,191.5 101.5,191.5 107.5,191.5C 118.299,212.537 120.466,234.537 114,257.5C 112.093,262.313 109.926,266.98 107.5,271.5C 101.5,271.5 95.5,271.5 89.5,271.5C 106.737,244.822 106.737,218.155 89.5,191.5 Z"/></g>
<g><path style="opacity:1" fill="#fa5046" d="M 107.5,191.5 C 112.5,191.5 117.5,191.5 122.5,191.5C 127.5,191.5 132.5,191.5 137.5,191.5C 154.737,218.155 154.737,244.822 137.5,271.5C 134.833,271.5 132.167,271.5 129.5,271.5C 123.833,271.5 118.167,271.5 112.5,271.5C 110.833,271.5 109.167,271.5 107.5,271.5C 109.926,266.98 112.093,262.313 114,257.5C 120.466,234.537 118.299,212.537 107.5,191.5 Z"/></g>
<g><path style="opacity:1" fill="#fe685e" d="M 137.5,191.5 C 143.5,191.5 149.5,191.5 155.5,191.5C 166.299,212.537 168.466,234.537 162,257.5C 160.093,262.313 157.926,266.98 155.5,271.5C 149.5,271.5 143.5,271.5 137.5,271.5C 154.737,244.822 154.737,218.155 137.5,191.5 Z"/></g>
<g><path style="opacity:1" fill="#fa5147" d="M 155.5,191.5 C 155.833,191.5 156.167,191.5 156.5,191.5C 167.833,191.5 179.167,191.5 190.5,191.5C 185.745,199.252 182.245,207.586 180,216.5C 179.083,228.188 178.083,239.855 177,251.5C 172.674,260.156 167.84,268.489 162.5,276.5C 161.846,272.684 159.513,271.017 155.5,271.5C 157.926,266.98 160.093,262.313 162,257.5C 168.466,234.537 166.299,212.537 155.5,191.5 Z"/></g>
<g><path style="opacity:1" fill="#d8a278" d="M 336.5,203.5 C 353.786,201.823 369.453,205.99 383.5,216C 389.887,222.387 396.221,228.721 402.5,235C 414.425,242.396 427.425,245.229 441.5,243.5C 442.488,248.64 442.821,253.974 442.5,259.5C 415.39,262.862 393.723,253.695 377.5,232C 370.12,225.311 361.453,221.311 351.5,220C 343.989,219.829 336.655,219.329 329.5,218.5C 330.514,212.808 332.848,207.808 336.5,203.5 Z"/></g>
<g><path style="opacity:1" fill="#fecb20" d="M 246.5,207.5 C 276.757,205.691 295.591,219.357 303,248.5C 304.66,278.503 290.827,296.669 261.5,303C 232.031,304.2 214.198,290.367 208,261.5C 206.832,233.498 219.665,215.498 246.5,207.5 Z"/></g>
<g><path style="opacity:1" fill="#cf8c58" d="M 329.5,218.5 C 336.655,219.329 343.989,219.829 351.5,220C 361.453,221.311 370.12,225.311 377.5,232C 393.723,253.695 415.39,262.862 442.5,259.5C 441.655,270.758 439.988,281.758 437.5,292.5C 430.011,291.671 422.344,291.171 414.5,291C 404.982,289.407 396.649,285.407 389.5,279C 373.419,257.908 352.085,248.742 325.5,251.5C 325.5,256.833 325.5,262.167 325.5,267.5C 323.484,250.917 324.818,234.583 329.5,218.5 Z"/></g>
<g><path style="opacity:1" fill="#ffdf77" d="M 234.5,231.5 C 248.368,230.54 255.201,236.874 255,250.5C 252.303,259.767 246.136,263.934 236.5,263C 229.702,261.536 225.536,257.369 224,250.5C 223.31,241.882 226.81,235.548 234.5,231.5 Z"/></g>
<g><path style="opacity:1" fill="#d8a278" d="M 437.5,292.5 C 436.486,298.192 434.152,303.192 430.5,307.5C 404.942,309.718 384.609,300.551 369.5,280C 356.716,269.634 342.05,265.467 325.5,267.5C 325.5,262.167 325.5,256.833 325.5,251.5C 352.085,248.742 373.419,257.908 389.5,279C 396.649,285.407 404.982,289.407 414.5,291C 422.344,291.171 430.011,291.671 437.5,292.5 Z"/></g>
<g><path style="opacity:1" fill="#ce8b57" d="M 325.5,267.5 C 342.05,265.467 356.716,269.634 369.5,280C 384.609,300.551 404.942,309.718 430.5,307.5C 424.808,315.34 417.141,320.173 407.5,322C 389.762,324.308 372.095,323.975 354.5,321C 339.351,314.849 330.518,303.682 328,287.5C 326.838,280.865 326.005,274.199 325.5,267.5 Z"/></g>
<g><path style="opacity:1" fill="#fe8e81" d="M 87.5,271.5 C 88.1667,271.5 88.8333,271.5 89.5,271.5C 95.5,271.5 101.5,271.5 107.5,271.5C 109.167,271.5 110.833,271.5 112.5,271.5C 122.173,295.376 119.84,318.043 105.5,339.5C 97.0542,340.025 91.2209,336.359 88,328.5C 87.5001,309.503 87.3334,290.503 87.5,271.5 Z"/></g>
<g><path style="opacity:1" fill="#fe695f" d="M 112.5,271.5 C 118.167,271.5 123.833,271.5 129.5,271.5C 136.412,294.997 134.412,317.663 123.5,339.5C 121.801,339.527 120.467,340.194 119.5,341.5C 115.285,339.564 110.619,338.897 105.5,339.5C 119.84,318.043 122.173,295.376 112.5,271.5 Z"/></g>
<g><path style="opacity:1" fill="#ff8e81" d="M 129.5,271.5 C 132.167,271.5 134.833,271.5 137.5,271.5C 143.5,271.5 149.5,271.5 155.5,271.5C 159.513,271.017 161.846,272.684 162.5,276.5C 158.264,289.76 158.93,302.76 164.5,315.5C 162.193,323.723 158.526,331.39 153.5,338.5C 150.572,339.484 147.572,339.817 144.5,339.5C 137.5,339.5 130.5,339.5 123.5,339.5C 134.412,317.663 136.412,294.997 129.5,271.5 Z"/></g>
<g><path style="opacity:1" fill="#fe695e" d="M 164.5,315.5 C 167.78,320.781 171.447,325.781 175.5,330.5C 174.439,333.622 173.105,336.622 171.5,339.5C 168.102,339.18 164.768,339.513 161.5,340.5C 168.384,363.694 166.384,386.028 155.5,407.5C 149.5,407.5 143.5,407.5 137.5,407.5C 148.169,390.993 152.002,372.993 149,353.5C 147.793,348.712 146.293,344.045 144.5,339.5C 147.572,339.817 150.572,339.484 153.5,338.5C 158.526,331.39 162.193,323.723 164.5,315.5 Z"/></g>
<g><path style="opacity:1" fill="#fe9083" d="M 175.5,330.5 C 180.37,333.766 185.37,336.766 190.5,339.5C 184.167,339.5 177.833,339.5 171.5,339.5C 173.105,336.622 174.439,333.622 175.5,330.5 Z"/></g>
<g><path style="opacity:0.999" fill="#64954b" d="M 337.5,330.5 C 347.086,336.141 357.419,339.141 368.5,339.5C 384.965,356.465 401.632,373.299 418.5,390C 419.448,390.483 420.448,390.649 421.5,390.5C 421.389,391.117 421.056,391.617 420.5,392C 424.76,396.768 429.427,400.934 434.5,404.5C 437.144,407.48 439.811,410.48 442.5,413.5C 435.957,415.228 429.29,416.228 422.5,416.5C 412.112,417.136 401.779,418.136 391.5,419.5C 366.833,395.5 342.5,371.167 318.5,346.5C 323.274,343.604 327.941,340.437 332.5,337C 334.79,335.223 336.457,333.056 337.5,330.5 Z"/></g>
<g><path style="opacity:1" fill="#fe9184" d="M 241.5,335.5 C 240.694,336.728 239.694,337.728 238.5,338.5C 233.547,339.329 228.547,339.663 223.5,339.5C 228.966,336.303 234.966,334.97 241.5,335.5 Z"/></g>
<g><path style="opacity:1" fill="#fc665b" d="M 241.5,335.5 C 250.778,335.977 259.111,338.977 266.5,344.5C 258.685,347.074 251.352,350.741 244.5,355.5C 244.459,349.037 242.459,343.37 238.5,338.5C 239.694,337.728 240.694,336.728 241.5,335.5 Z"/></g>
<g><path style="opacity:0.994" fill="#8cd15e" d="M 420.5,335.5 C 427.833,343.5 435.5,351.167 443.5,358.5C 447.559,363.562 452.226,367.895 457.5,371.5C 461.812,376.146 466.145,380.813 470.5,385.5C 462.247,387.158 453.914,388.158 445.5,388.5C 437.493,389.093 429.493,389.76 421.5,390.5C 420.448,390.649 419.448,390.483 418.5,390C 401.632,373.299 384.965,356.465 368.5,339.5C 386.014,340.21 403.347,338.877 420.5,335.5 Z"/></g>
<g><path style="opacity:1" fill="#f95147" d="M 238.5,338.5 C 242.459,343.37 244.459,349.037 244.5,355.5C 242.393,357.727 240.06,359.727 237.5,361.5C 232.112,358.766 226.779,358.933 221.5,362C 218.669,364.001 216.003,366.167 213.5,368.5C 213.87,359.333 212.87,350.333 210.5,341.5C 214.906,341.252 219.24,340.585 223.5,339.5C 228.547,339.663 233.547,339.329 238.5,338.5 Z"/></g>
<g><path style="opacity:1" fill="#f95046" d="M 123.5,339.5 C 130.5,339.5 137.5,339.5 144.5,339.5C 146.293,344.045 147.793,348.712 149,353.5C 152.002,372.993 148.169,390.993 137.5,407.5C 128.547,408.047 122.714,404.047 120,395.5C 119.5,377.503 119.333,359.503 119.5,341.5C 120.467,340.194 121.801,339.527 123.5,339.5 Z"/></g>
<g><path style="opacity:1" fill="#fa5046" d="M 171.5,339.5 C 177.833,339.5 184.167,339.5 190.5,339.5C 191.167,339.5 191.833,339.5 192.5,339.5C 194.293,344.045 195.793,348.712 197,353.5C 197.796,356.039 197.629,358.372 196.5,360.5C 192.877,358.937 189.544,359.437 186.5,362C 179.968,368.198 173.801,374.698 168,381.5C 167.245,384.303 167.578,386.97 169,389.5C 173.016,393.348 176.849,397.348 180.5,401.5C 178.812,403.854 176.812,405.854 174.5,407.5C 168.167,407.5 161.833,407.5 155.5,407.5C 166.384,386.028 168.384,363.694 161.5,340.5C 164.768,339.513 168.102,339.18 171.5,339.5 Z"/></g>
<g><path style="opacity:1" fill="#fe695f" d="M 192.5,339.5 C 198.329,341.232 204.329,341.899 210.5,341.5C 212.87,350.333 213.87,359.333 213.5,368.5C 212.521,370.145 211.188,371.479 209.5,372.5C 205.12,368.45 200.787,364.45 196.5,360.5C 197.629,358.372 197.796,356.039 197,353.5C 195.793,348.712 194.293,344.045 192.5,339.5 Z"/></g>
<g><path style="opacity:1" fill="#764c2c" d="M 305.5,349.5 C 331.15,365.809 340.483,388.809 333.5,418.5C 330.47,422.863 327.637,427.53 325,432.5C 318.651,440.511 310.818,446.678 301.5,451C 271.295,460.717 247.295,452.551 229.5,426.5C 219.309,403.122 221.975,381.456 237.5,361.5C 240.06,359.727 242.393,357.727 244.5,355.5C 251.352,350.741 258.685,347.074 266.5,344.5C 279.999,342.361 292.999,344.028 305.5,349.5 Z"/></g>
<g><path style="opacity:0.995" fill="#8bd15e" d="M 318.5,346.5 C 342.5,371.167 366.833,395.5 391.5,419.5C 395.559,424.562 400.226,428.895 405.5,432.5C 408.296,435.797 411.296,438.964 414.5,442C 405.907,443.64 397.24,444.807 388.5,445.5C 381.139,445.799 373.805,446.466 366.5,447.5C 365.167,447.333 363.833,447.167 362.5,447C 361.295,445.624 359.962,444.458 358.5,443.5C 350.5,434.833 342.167,426.5 333.5,418.5C 340.483,388.809 331.15,365.809 305.5,349.5C 309.961,348.968 314.294,347.968 318.5,346.5 Z"/></g>
<g><path style="opacity:1" fill="#fcf1e0" d="M 196.5,360.5 C 200.787,364.45 205.12,368.45 209.5,372.5C 211.188,371.479 212.521,370.145 213.5,368.5C 216.003,366.167 218.669,364.001 221.5,362C 226.779,358.933 232.112,358.766 237.5,361.5C 221.975,381.456 219.309,403.122 229.5,426.5C 213.675,439.264 196.009,442.431 176.5,436C 165.417,427.247 164.75,417.747 174.5,407.5C 176.812,405.854 178.812,403.854 180.5,401.5C 176.849,397.348 173.016,393.348 169,389.5C 167.578,386.97 167.245,384.303 168,381.5C 173.801,374.698 179.968,368.198 186.5,362C 189.544,359.437 192.877,358.937 196.5,360.5 Z"/></g>
<g><path style="opacity:1" fill="#fcdd76" d="M 278.5,364.5 C 280.776,366.331 282.609,368.664 284,371.5C 286.466,377.507 288.299,383.674 289.5,390C 298.551,391.294 306.884,394.461 314.5,399.5C 306.884,404.539 298.551,407.706 289.5,409C 287.844,418.131 284.51,426.631 279.5,434.5C 274.461,426.884 271.294,418.551 270,409.5C 260.674,408.226 252.174,404.892 244.5,399.5C 252.174,394.108 260.674,390.774 270,389.5C 271.153,380.542 273.986,372.209 278.5,364.5 Z"/></g>
<g><path style="opacity:0.946" fill="#363636" d="M 51.5,367.5 C 55.5287,372.221 58.5287,377.554 60.5,383.5C 53.5359,390.965 46.3692,398.298 39,405.5C 35.6667,411.167 35.6667,416.833 39,422.5C 55.5,439 72,455.5 88.5,472C 94.1957,475.257 99.8624,475.257 105.5,472C 112.702,464.631 120.035,457.464 127.5,450.5C 133.446,452.471 138.779,455.471 143.5,459.5C 134.702,467.798 126.035,476.298 117.5,485C 103.25,493.928 89.2504,493.595 75.5,484C 57.2721,466.441 39.7721,448.274 23,429.5C 18.1144,418.345 18.4477,407.345 24,396.5C 33.0055,386.662 42.1722,376.995 51.5,367.5 Z"/></g>
<g><path style="opacity:0.945" fill="#4e504d" d="M 445.5,388.5 C 442.337,394.152 438.67,399.485 434.5,404.5C 429.427,400.934 424.76,396.768 420.5,392C 421.056,391.617 421.389,391.117 421.5,390.5C 429.493,389.76 437.493,389.093 445.5,388.5 Z"/></g>
<g><path style="opacity:0.959" fill="#4d4f4c" d="M 422.5,416.5 C 417.49,422.51 411.823,427.843 405.5,432.5C 400.226,428.895 395.559,424.562 391.5,419.5C 401.779,418.136 412.112,417.136 422.5,416.5 Z"/></g>
</svg>
