<?xml version="1.0" encoding="UTF-8"?>
<!DOCTYPE svg PUBLIC "-//W3C//DTD SVG 1.1//EN" "http://www.w3.org/Graphics/SVG/1.1/DTD/svg11.dtd">
<svg xmlns="http://www.w3.org/2000/svg" version="1.1" width="217px" height="223px" style="shape-rendering:geometricPrecision; text-rendering:geometricPrecision; image-rendering:optimizeQuality; fill-rule:evenodd; clip-rule:evenodd" xmlns:xlink="http://www.w3.org/1999/xlink">
<g><path style="opacity:1" fill="#ccccd1" d="M -0.5,-0.5 C 71.8333,-0.5 144.167,-0.5 216.5,-0.5C 216.5,73.8333 216.5,148.167 216.5,222.5C 205.833,222.5 195.167,222.5 184.5,222.5C 186.824,212.344 187.158,202.011 185.5,191.5C 185.436,187.78 184.936,184.114 184,180.5C 183.617,179.944 183.117,179.611 182.5,179.5C 181.167,177.833 179.833,176.167 178.5,174.5C 177.925,172.589 176.925,170.922 175.5,169.5C 175.5,168.833 175.5,168.167 175.5,167.5C 175.5,164.833 175.5,162.167 175.5,159.5C 172.833,159.5 170.167,159.5 167.5,159.5C 166.833,159.5 166.167,159.5 165.5,159.5C 164.833,159.167 164.167,158.833 163.5,158.5C 162.419,156.866 161.085,155.533 159.5,154.5C 156.646,153.974 153.979,152.974 151.5,151.5C 150.833,150.833 150.167,150.167 149.5,149.5C 150.376,149.631 151.043,149.298 151.5,148.5C 150.624,147.749 149.624,147.249 148.5,147C 141.551,145.878 134.551,145.211 127.5,145C 112.074,144.032 96.7406,144.366 81.5,146C 97.6719,146.169 113.672,146.669 129.5,147.5C 111.497,147.333 93.4969,147.5 75.5,148C 73.5,148.5 71.5,149 69.5,149.5C 68.2867,149.747 67.62,150.414 67.5,151.5C 65.1016,151.259 63.1016,151.926 61.5,153.5C 58.8021,153.845 56.8021,155.178 55.5,157.5C 54.1667,158.167 52.8333,158.833 51.5,159.5C 49.8333,160.5 48.5,161.833 47.5,163.5C 44.9228,164.606 43.2561,166.606 42.5,169.5C 42.1667,169.5 41.8333,169.5 41.5,169.5C 40.3263,170.514 39.6596,171.847 39.5,173.5C 39.1667,174.833 38.8333,176.167 38.5,177.5C 36.461,178.911 35.461,180.911 35.5,183.5C 33.8235,184.183 33.1568,185.517 33.5,187.5C 31.9656,193.084 31.2989,198.917 31.5,205C 31.3021,210.988 31.9688,216.821 33.5,222.5C 22.1667,222.5 10.8333,222.5 -0.5,222.5C -0.5,148.167 -0.5,73.8333 -0.5,-0.5 Z"/></g>
<g><path style="opacity:1" fill="#ebecf0" d="M 121.5,58.5 C 111.743,56.9176 102.077,57.251 92.5,59.5C 97.2494,57.0478 102.416,56.0478 108,56.5C 112.772,56.3078 117.272,56.9745 121.5,58.5 Z"/></g>
<g><path style="opacity:1" fill="#fefefe" d="M 121.5,58.5 C 122.167,58.5 122.833,58.5 123.5,58.5C 124.287,60.1042 125.62,60.7709 127.5,60.5C 128.035,62.4456 129.368,63.4456 131.5,63.5C 132.136,65.7946 133.469,67.4613 135.5,68.5C 135.856,70.1898 136.856,71.1898 138.5,71.5C 139.434,72.5676 139.768,73.901 139.5,75.5C 139.927,78.0098 140.593,80.3432 141.5,82.5C 142.167,84.1667 142.833,85.8333 143.5,87.5C 143.5,92.8333 143.5,98.1667 143.5,103.5C 141.926,105.102 141.259,107.102 141.5,109.5C 139.926,111.102 139.259,113.102 139.5,115.5C 139.5,115.833 139.5,116.167 139.5,116.5C 137.413,117.585 136.08,119.251 135.5,121.5C 134.761,121.369 134.094,121.536 133.5,122C 130.593,125.696 127.593,129.196 124.5,132.5C 122.784,132.629 121.117,132.962 119.5,133.5C 114.337,135.183 109.004,135.85 103.5,135.5C 102.833,135.5 102.167,135.5 101.5,135.5C 99.1849,134.416 97.3516,132.749 96,130.5C 94.9887,131.337 93.8221,131.67 92.5,131.5C 92.0269,130.094 91.0269,129.427 89.5,129.5C 88.8333,128.833 88.1667,128.167 87.5,127.5C 87.5,126.167 86.8333,125.5 85.5,125.5C 84.4884,124.128 83.4884,122.795 82.5,121.5C 82.5,120.167 81.8333,119.5 80.5,119.5C 79.6618,119.158 79.3284,118.492 79.5,117.5C 79.0075,115.181 78.0075,113.181 76.5,111.5C 75.7758,103.521 75.4425,95.5208 75.5,87.5C 75.5,85.8333 75.5,84.1667 75.5,82.5C 77.2038,79.7442 78.5371,76.7442 79.5,73.5C 81.7965,70.193 84.1298,66.8597 86.5,63.5C 86.8333,63.5 87.1667,63.5 87.5,63.5C 89.9806,63.226 91.6473,61.8927 92.5,59.5C 102.077,57.251 111.743,56.9176 121.5,58.5 Z"/></g>
<g><path style="opacity:1" fill="#dfe0e2" d="M 123.5,58.5 C 125.153,58.6596 126.486,59.3263 127.5,60.5C 125.62,60.7709 124.287,60.1042 123.5,58.5 Z"/></g>
<g><path style="opacity:1" fill="#eeeff4" d="M 92.5,59.5 C 91.6473,61.8927 89.9806,63.226 87.5,63.5C 88.5387,61.4689 90.2054,60.1355 92.5,59.5 Z"/></g>
<g><path style="opacity:1" fill="#ccccce" d="M 143.5,81.5 C 143.06,79.1561 142.06,77.1561 140.5,75.5C 140.167,75.5 139.833,75.5 139.5,75.5C 139.768,73.901 139.434,72.5676 138.5,71.5C 138.5,69.5 137.5,68.5 135.5,68.5C 135.267,66.9382 134.6,65.6049 133.5,64.5C 133.735,63.9033 134.235,63.5699 135,63.5C 137.315,64.8749 139.815,65.8749 142.5,66.5C 142.236,71.4866 142.57,76.4866 143.5,81.5 Z"/></g>
<g><path style="opacity:1" fill="#e8e8ea" d="M 131.5,63.5 C 132.167,63.8333 132.833,64.1667 133.5,64.5C 134.6,65.6049 135.267,66.9382 135.5,68.5C 133.469,67.4613 132.136,65.7946 131.5,63.5 Z"/></g>
<g><path style="opacity:1" fill="#eaeaea" d="M 86.5,63.5 C 84.1298,66.8597 81.7965,70.193 79.5,73.5C 80.1959,69.1193 82.5293,65.786 86.5,63.5 Z"/></g>
<g><path style="opacity:1" fill="#e3e3e5" d="M 135.5,68.5 C 137.5,68.5 138.5,69.5 138.5,71.5C 136.856,71.1898 135.856,70.1898 135.5,68.5 Z"/></g>
<g><path style="opacity:1" fill="#e7e8ed" d="M 79.5,73.5 C 78.5371,76.7442 77.2038,79.7442 75.5,82.5C 75.5,81.5 75.5,80.5 75.5,79.5C 76.3058,78.0028 76.9724,76.3361 77.5,74.5C 77.9569,73.7025 78.6236,73.3691 79.5,73.5 Z"/></g>
<g><path style="opacity:1" fill="#f0f0f1" d="M 139.5,75.5 C 139.833,75.5 140.167,75.5 140.5,75.5C 141.369,77.717 141.702,80.0504 141.5,82.5C 140.593,80.3432 139.927,78.0098 139.5,75.5 Z"/></g>
<g><path style="opacity:1" fill="#dcdcdc" d="M 140.5,75.5 C 142.06,77.1561 143.06,79.1561 143.5,81.5C 143.5,83.5 143.5,85.5 143.5,87.5C 142.833,85.8333 142.167,84.1667 141.5,82.5C 141.702,80.0504 141.369,77.717 140.5,75.5 Z"/></g>
<g><path style="opacity:1" fill="#c9cacc" d="M 75.5,79.5 C 74.6981,80.9516 74.1981,82.6183 74,84.5C 73.5005,90.8246 73.3338,97.1579 73.5,103.5C 73.5751,106.206 73.9084,108.873 74.5,111.5C 73.5,111.5 72.5,111.5 71.5,111.5C 71.8207,104.733 71.1541,98.0663 69.5,91.5C 70.5,88.1667 71.5,84.8333 72.5,81.5C 70.8851,79.249 71.5518,77.9156 74.5,77.5C 75.2975,77.9569 75.6309,78.6236 75.5,79.5 Z"/></g>
<g><path style="opacity:1" fill="#dedee0" d="M 75.5,79.5 C 75.5,80.5 75.5,81.5 75.5,82.5C 75.5,84.1667 75.5,85.8333 75.5,87.5C 74.5119,92.6405 74.1786,97.9738 74.5,103.5C 74.1667,103.5 73.8333,103.5 73.5,103.5C 73.3338,97.1579 73.5005,90.8246 74,84.5C 74.1981,82.6183 74.6981,80.9516 75.5,79.5 Z"/></g>
<g><path style="opacity:1" fill="#f0f0f2" d="M 75.5,87.5 C 75.4425,95.5208 75.7758,103.521 76.5,111.5C 75.2318,109.095 74.5651,106.428 74.5,103.5C 74.1786,97.9738 74.5119,92.6405 75.5,87.5 Z"/></g>
<g><path style="opacity:1" fill="#e1e1e1" d="M 143.5,103.5 C 143.975,106.082 143.308,108.082 141.5,109.5C 141.259,107.102 141.926,105.102 143.5,103.5 Z"/></g>
<g><path style="opacity:1" fill="#e4e4e6" d="M 141.5,109.5 C 141.741,111.898 141.074,113.898 139.5,115.5C 139.259,113.102 139.926,111.102 141.5,109.5 Z"/></g>
<g><path style="opacity:1" fill="#dadbe0" d="M 76.5,111.5 C 78.0075,113.181 79.0075,115.181 79.5,117.5C 77.0311,116.393 76.0311,114.393 76.5,111.5 Z"/></g>
<g><path style="opacity:1" fill="#e6e6e6" d="M 80.5,119.5 C 81.8333,119.5 82.5,120.167 82.5,121.5C 81.1667,121.5 80.5,120.833 80.5,119.5 Z"/></g>
<g><path style="opacity:1" fill="#e6e5ea" d="M 139.5,116.5 C 138.92,118.749 137.587,120.415 135.5,121.5C 136.08,119.251 137.413,117.585 139.5,116.5 Z"/></g>
<g><path style="opacity:1" fill="#ccccd6" d="M 141.5,124.5 C 143.456,130.412 144.123,136.745 143.5,143.5C 141.5,143.5 139.5,143.5 137.5,143.5C 137.807,137.907 137.473,132.407 136.5,127C 137.784,126.316 138.951,126.483 140,127.5C 141.039,126.756 141.539,125.756 141.5,124.5 Z"/></g>
<g><path style="opacity:1" fill="#e5e5e5" d="M 85.5,125.5 C 86.8333,125.5 87.5,126.167 87.5,127.5C 86.1667,127.5 85.5,126.833 85.5,125.5 Z"/></g>
<g><path style="opacity:1" fill="#e5e6eb" d="M 89.5,129.5 C 91.0269,129.427 92.0269,130.094 92.5,131.5C 90.9731,131.573 89.9731,130.906 89.5,129.5 Z"/></g>
<g><path style="opacity:1" fill="#e8e8eb" d="M 135.5,121.5 C 132.738,126.167 129.071,129.833 124.5,132.5C 127.593,129.196 130.593,125.696 133.5,122C 134.094,121.536 134.761,121.369 135.5,121.5 Z"/></g>
<g><path style="opacity:1" fill="#eaeaec" d="M 101.5,135.5 C 97.839,135.472 94.839,134.138 92.5,131.5C 93.8221,131.67 94.9887,131.337 96,130.5C 97.3516,132.749 99.1849,134.416 101.5,135.5 Z"/></g>
<g><path style="opacity:1" fill="#e7e7e9" d="M 119.5,133.5 C 118.77,135.045 117.437,135.878 115.5,136C 111.311,136.812 107.311,136.645 103.5,135.5C 109.004,135.85 114.337,135.183 119.5,133.5 Z"/></g>
<g><path style="opacity:1" fill="#cac9cf" d="M 149.5,149.5 C 147.5,149.167 145.5,148.833 143.5,148.5C 140.833,148.5 138.167,148.5 135.5,148.5C 133.735,147.539 131.735,147.205 129.5,147.5C 113.672,146.669 97.6719,146.169 81.5,146C 96.7406,144.366 112.074,144.032 127.5,145C 134.551,145.211 141.551,145.878 148.5,147C 149.624,147.249 150.624,147.749 151.5,148.5C 151.043,149.298 150.376,149.631 149.5,149.5 Z"/></g>
<g><path style="opacity:1" fill="#f3f2f7" d="M 129.5,147.5 C 131.735,147.205 133.735,147.539 135.5,148.5C 118.163,148.333 100.83,148.5 83.5,149C 78.0957,149.512 72.7624,150.345 67.5,151.5C 67.62,150.414 68.2867,149.747 69.5,149.5C 71.5,149 73.5,148.5 75.5,148C 93.4969,147.5 111.497,147.333 129.5,147.5 Z"/></g>
<g><path style="opacity:1" fill="#fcfcfc" d="M 135.5,148.5 C 138.167,148.5 140.833,148.5 143.5,148.5C 145.792,150.267 148.458,151.267 151.5,151.5C 153.979,152.974 156.646,153.974 159.5,154.5C 159.167,157.5 160.5,158.833 163.5,158.5C 164.167,158.833 164.833,159.167 165.5,159.5C 165.5,160.833 166.167,161.5 167.5,161.5C 168.262,163.262 169.596,164.262 171.5,164.5C 172.136,166.795 173.469,168.461 175.5,169.5C 176.925,170.922 177.925,172.589 178.5,174.5C 179.03,177.682 180.03,180.682 181.5,183.5C 181.461,186.321 180.795,188.988 179.5,191.5C 178.808,190.975 178.308,190.308 178,189.5C 131.05,191.326 83.8832,192.16 36.5,192C 36.0257,193.729 35.0257,194.895 33.5,195.5C 33.5,192.833 33.5,190.167 33.5,187.5C 33.1568,185.517 33.8235,184.183 35.5,183.5C 37.0075,181.819 38.0075,179.819 38.5,177.5C 38.8333,176.167 39.1667,174.833 39.5,173.5C 41.1042,172.713 41.7709,171.38 41.5,169.5C 41.8333,169.5 42.1667,169.5 42.5,169.5C 44.6137,167.981 46.2803,165.981 47.5,163.5C 49.8333,163.167 51.1667,161.833 51.5,159.5C 52.8333,158.833 54.1667,158.167 55.5,157.5C 57.9663,156.702 59.9663,155.369 61.5,153.5C 64.0101,153.946 66.0101,153.28 67.5,151.5C 72.7624,150.345 78.0957,149.512 83.5,149C 100.83,148.5 118.163,148.333 135.5,148.5 Z"/></g>
<g><path style="opacity:1" fill="#e5e4e9" d="M 143.5,148.5 C 145.5,148.833 147.5,149.167 149.5,149.5C 150.167,150.167 150.833,150.833 151.5,151.5C 148.458,151.267 145.792,150.267 143.5,148.5 Z"/></g>
<g><path style="opacity:1" fill="#eff0f2" d="M 67.5,151.5 C 66.0101,153.28 64.0101,153.946 61.5,153.5C 63.1016,151.926 65.1016,151.259 67.5,151.5 Z"/></g>
<g><path style="opacity:1" fill="#ebecf1" d="M 61.5,153.5 C 59.9663,155.369 57.9663,156.702 55.5,157.5C 56.8021,155.178 58.8021,153.845 61.5,153.5 Z"/></g>
<g><path style="opacity:1" fill="#edeef3" d="M 159.5,154.5 C 161.085,155.533 162.419,156.866 163.5,158.5C 160.5,158.833 159.167,157.5 159.5,154.5 Z"/></g>
<g><path style="opacity:1" fill="#cccccc" d="M 167.5,159.5 C 170.167,159.5 172.833,159.5 175.5,159.5C 175.5,162.167 175.5,164.833 175.5,167.5C 174.474,166.147 173.141,165.147 171.5,164.5C 170.738,162.738 169.404,161.738 167.5,161.5C 167.5,160.833 167.5,160.167 167.5,159.5 Z"/></g>
<g><path style="opacity:1" fill="#e7e7e7" d="M 165.5,159.5 C 166.167,159.5 166.833,159.5 167.5,159.5C 167.5,160.167 167.5,160.833 167.5,161.5C 166.167,161.5 165.5,160.833 165.5,159.5 Z"/></g>
<g><path style="opacity:1" fill="#e3e3e3" d="M 167.5,161.5 C 169.404,161.738 170.738,162.738 171.5,164.5C 169.596,164.262 168.262,163.262 167.5,161.5 Z"/></g>
<g><path style="opacity:1" fill="#e9e9e9" d="M 51.5,159.5 C 51.1667,161.833 49.8333,163.167 47.5,163.5C 48.5,161.833 49.8333,160.5 51.5,159.5 Z"/></g>
<g><path style="opacity:1" fill="#e3e4e6" d="M 47.5,163.5 C 46.2803,165.981 44.6137,167.981 42.5,169.5C 43.2561,166.606 44.9228,164.606 47.5,163.5 Z"/></g>
<g><path style="opacity:1" fill="#e7e7e7" d="M 171.5,164.5 C 173.141,165.147 174.474,166.147 175.5,167.5C 175.5,168.167 175.5,168.833 175.5,169.5C 173.469,168.461 172.136,166.795 171.5,164.5 Z"/></g>
<g><path style="opacity:1" fill="#e2e3e7" d="M 41.5,169.5 C 41.7709,171.38 41.1042,172.713 39.5,173.5C 39.6596,171.847 40.3263,170.514 41.5,169.5 Z"/></g>
<g><path style="opacity:1" fill="#edeeee" d="M 178.5,174.5 C 179.833,176.167 181.167,177.833 182.5,179.5C 182.833,180.833 183.167,182.167 183.5,183.5C 182.833,183.5 182.167,183.5 181.5,183.5C 180.03,180.682 179.03,177.682 178.5,174.5 Z"/></g>
<g><path style="opacity:1" fill="#f1f0f5" d="M 38.5,177.5 C 38.0075,179.819 37.0075,181.819 35.5,183.5C 35.461,180.911 36.461,178.911 38.5,177.5 Z"/></g>
<g><path style="opacity:1" fill="#d7d8db" d="M 182.5,179.5 C 183.117,179.611 183.617,179.944 184,180.5C 184.936,184.114 185.436,187.78 185.5,191.5C 185.167,191.5 184.833,191.5 184.5,191.5C 183.908,188.873 183.575,186.206 183.5,183.5C 183.167,182.167 182.833,180.833 182.5,179.5 Z"/></g>
<g><path style="opacity:1" fill="#f5f6fb" d="M 181.5,183.5 C 182.167,183.5 182.833,183.5 183.5,183.5C 183.575,186.206 183.908,188.873 184.5,191.5C 185.302,198.804 185.635,206.138 185.5,213.5C 184.522,213.189 183.855,212.522 183.5,211.5C 135.505,210.5 87.5046,210.167 39.5,210.5C 39.6641,207.813 39.4974,205.146 39,202.5C 38.8848,209.312 38.7181,215.979 38.5,222.5C 37.1667,222.5 35.8333,222.5 34.5,222.5C 32.2975,213.587 31.9642,204.587 33.5,195.5C 35.0257,194.895 36.0257,193.729 36.5,192C 83.8832,192.16 131.05,191.326 178,189.5C 178.308,190.308 178.808,190.975 179.5,191.5C 180.795,188.988 181.461,186.321 181.5,183.5 Z"/></g>
<g><path style="opacity:1" fill="#e8e9ee" d="M 184.5,191.5 C 184.833,191.5 185.167,191.5 185.5,191.5C 187.158,202.011 186.824,212.344 184.5,222.5C 184.167,222.5 183.833,222.5 183.5,222.5C 184.167,219.5 184.833,216.5 185.5,213.5C 185.635,206.138 185.302,198.804 184.5,191.5 Z"/></g>
<g><path style="opacity:1" fill="#e9eaef" d="M 33.5,187.5 C 33.5,190.167 33.5,192.833 33.5,195.5C 31.9642,204.587 32.2975,213.587 34.5,222.5C 34.1667,222.5 33.8333,222.5 33.5,222.5C 31.9688,216.821 31.3021,210.988 31.5,205C 31.2989,198.917 31.9656,193.084 33.5,187.5 Z"/></g>
<g><path style="opacity:1" fill="#f2f3f8" d="M 185.5,213.5 C 184.833,216.5 184.167,219.5 183.5,222.5C 135.167,222.5 86.8333,222.5 38.5,222.5C 38.7181,215.979 38.8848,209.312 39,202.5C 39.4974,205.146 39.6641,207.813 39.5,210.5C 87.5046,210.167 135.505,210.5 183.5,211.5C 183.855,212.522 184.522,213.189 185.5,213.5 Z"/></g>
</svg>
