<?xml version="1.0" encoding="UTF-8"?>
<!DOCTYPE svg PUBLIC "-//W3C//DTD SVG 1.1//EN" "http://www.w3.org/Graphics/SVG/1.1/DTD/svg11.dtd">
<svg xmlns="http://www.w3.org/2000/svg" version="1.1" width="512px" height="512px" style="shape-rendering:geometricPrecision; text-rendering:geometricPrecision; image-rendering:optimizeQuality; fill-rule:evenodd; clip-rule:evenodd" xmlns:xlink="http://www.w3.org/1999/xlink">
<g><path style="opacity:0.981" fill="#020201" d="M 246.5,-0.5 C 252.167,-0.5 257.833,-0.5 263.5,-0.5C 269.667,1.49328 274.167,5.49328 277,11.5C 277.5,21.1609 277.666,30.8276 277.5,40.5C 328.146,51.3107 361.646,81.3107 378,130.5C 379.598,136.091 380.765,141.758 381.5,147.5C 384.85,147.335 388.183,147.502 391.5,148C 392,148.5 392.5,149 393,149.5C 394.134,156.9 394.634,164.4 394.5,172C 394.634,179.6 394.134,187.1 393,194.5C 389.078,196.312 384.911,196.979 380.5,196.5C 375.745,284.584 369.911,372.584 363,460.5C 354.264,487.74 336.097,504.74 308.5,511.5C 273.167,511.5 237.833,511.5 202.5,511.5C 168.37,503.196 149.203,481.53 145,446.5C 139.59,363.177 134.423,279.844 129.5,196.5C 125.416,196.957 121.583,196.29 118,194.5C 116.866,187.1 116.366,179.6 116.5,172C 116.667,165.167 116.833,158.333 117,151.5C 117.465,150.069 118.299,148.903 119.5,148C 122.482,147.502 125.482,147.335 128.5,147.5C 137.595,98.9071 164.929,65.0738 210.5,46C 217.69,43.5359 225.023,41.7026 232.5,40.5C 232.334,30.8276 232.5,21.1609 233,11.5C 235.833,5.49328 240.333,1.49328 246.5,-0.5 Z"/></g>
<g><path style="opacity:1" fill="#789a99" d="M 249.5,11.5 C 252.85,11.335 256.183,11.5017 259.5,12C 267.355,14.3502 267.355,17.0168 259.5,20C 253.465,21.6216 248.465,20.1216 244.5,15.5C 246.015,13.9178 247.681,12.5845 249.5,11.5 Z"/></g>
<g><path style="opacity:1" fill="#728c8c" d="M 246.5,31.5 C 245.501,69.9964 245.168,108.663 245.5,147.5C 244.169,108.665 244.169,69.6646 245.5,30.5C 246.107,30.6236 246.44,30.9569 246.5,31.5 Z"/></g>
<g><path style="opacity:1" fill="#92b4b4" d="M 245.5,147.5 C 245.168,108.663 245.501,69.9964 246.5,31.5C 252.597,32.9882 258.597,32.6549 264.5,30.5C 265.5,69.4943 265.833,108.494 265.5,147.5C 258.833,147.5 252.167,147.5 245.5,147.5 Z"/></g>
<g><path style="opacity:1" fill="#c4cbc7" d="M 230.5,53.5 C 232.493,84.4822 233.159,115.816 232.5,147.5C 202.167,147.5 171.833,147.5 141.5,147.5C 149.403,104.759 173.403,74.9259 213.5,58C 219.002,55.7754 224.669,54.2754 230.5,53.5 Z"/></g>
<g><path style="opacity:1" fill="#696d6a" d="M 230.5,53.5 C 231.209,52.596 232.209,52.2627 233.5,52.5C 233.832,84.3377 233.498,116.004 232.5,147.5C 233.159,115.816 232.493,84.4822 230.5,53.5 Z"/></g>
<g><path style="opacity:1" fill="#515452" d="M 279.5,53.5 C 277.507,84.4822 276.841,115.816 277.5,147.5C 276.502,116.004 276.168,84.3377 276.5,52.5C 277.791,52.2627 278.791,52.596 279.5,53.5 Z"/></g>
<g><path style="opacity:1" fill="#c5ccc8" d="M 279.5,53.5 C 322.762,63.9245 351.595,90.2579 366,132.5C 367.636,137.375 368.469,142.375 368.5,147.5C 338.167,147.5 307.833,147.5 277.5,147.5C 276.841,115.816 277.507,84.4822 279.5,53.5 Z"/></g>
<g><path style="opacity:1" fill="#060606" d="M 216.5,68.5 C 217.822,68.33 218.989,68.6634 220,69.5C 221.748,72.6894 222.581,75.8561 222.5,79C 212.988,83.2511 204.321,88.7511 196.5,95.5C 193.683,93.1833 191.016,90.6833 188.5,88C 196.678,79.7524 206.011,73.2524 216.5,68.5 Z"/></g>
<g><path style="opacity:1" fill="#080909" d="M 182.5,94.5 C 185.469,96.9919 188.469,99.4919 191.5,102C 189.308,104.853 187.142,107.686 185,110.5C 181.768,108.8 178.601,106.966 175.5,105C 177.663,101.346 179.996,97.8462 182.5,94.5 Z"/></g>
<g><path style="opacity:1" fill="#a3a8a4" d="M 129.5,159.5 C 129.5,167.5 129.5,175.5 129.5,183.5C 213.5,183.5 297.5,183.5 381.5,183.5C 381.5,175.5 381.5,167.5 381.5,159.5C 382.493,167.65 382.826,175.983 382.5,184.5C 297.833,184.5 213.167,184.5 128.5,184.5C 128.174,175.983 128.507,167.65 129.5,159.5 Z"/></g>
<g><path style="opacity:1" fill="#c5cdc8" d="M 129.5,159.5 C 213.5,159.5 297.5,159.5 381.5,159.5C 381.5,167.5 381.5,175.5 381.5,183.5C 297.5,183.5 213.5,183.5 129.5,183.5C 129.5,175.5 129.5,167.5 129.5,159.5 Z"/></g>
<g><path style="opacity:1" fill="#97592a" d="M 141.5,196.5 C 217.167,196.5 292.833,196.5 368.5,196.5C 366.873,230.196 364.707,263.862 362,297.5C 355.535,308.474 347.035,310.307 336.5,303C 333.537,300.125 331.704,296.625 331,292.5C 330.667,281.167 330.333,269.833 330,258.5C 323.102,242.464 310.935,235.964 293.5,239C 284.091,242.075 277.591,248.241 274,257.5C 273.012,278.18 272.012,298.847 271,319.5C 265.771,328.021 258.271,330.855 248.5,328C 242.836,325.668 239.336,321.501 238,315.5C 237.667,289.167 237.333,262.833 237,236.5C 230.847,220.002 219.014,213.169 201.5,216C 191.333,219.5 184.5,226.333 181,236.5C 180.667,248.167 180.333,259.833 180,271.5C 176.384,282.418 168.884,286.585 157.5,284C 151.508,281.341 147.675,276.841 146,270.5C 144.749,245.812 143.249,221.145 141.5,196.5 Z"/></g>
<g><path style="opacity:1" fill="#e8bd78" d="M 203.5,227.5 C 213.805,225.414 220.972,229.081 225,238.5C 225.333,264.167 225.667,289.833 226,315.5C 230.561,334.695 242.728,342.862 262.5,340C 274.535,336.631 281.702,328.798 284,316.5C 284.333,298.5 284.667,280.5 285,262.5C 292.281,248.405 302.281,246.071 315,255.5C 316,257.167 317,258.833 318,260.5C 319.272,272.43 319.938,284.43 320,296.5C 324.138,310.136 333.305,317.802 347.5,319.5C 351.659,319.127 355.659,318.127 359.5,316.5C 359.833,318.833 360.167,321.167 360.5,323.5C 359.133,346.507 357.633,369.507 356,392.5C 349.189,383.16 340.022,379.66 328.5,382C 311.566,387.957 305.566,399.624 310.5,417C 305.255,419.878 300.422,423.378 296,427.5C 286.633,418.262 275.8,416.095 263.5,421C 260.688,422.977 258.022,425.144 255.5,427.5C 244.636,417.296 232.636,415.796 219.5,423C 209.497,431.507 206.497,442.007 210.5,454.5C 200.655,455.832 193.821,461.166 190,470.5C 187.242,479.245 188.408,487.411 193.5,495C 177.877,489.714 167.044,479.214 161,463.5C 159.682,460.57 159.015,457.57 159,454.5C 174.99,466.634 188.99,464.634 201,448.5C 207.819,429.307 201.652,416.474 182.5,410C 171.441,408.781 162.608,412.614 156,421.5C 153.163,379.141 150.33,336.808 147.5,294.5C 147.833,294.167 148.167,293.833 148.5,293.5C 162.633,299.974 175.133,297.64 186,286.5C 189.09,282.318 191.09,277.651 192,272.5C 192.333,261.167 192.667,249.833 193,238.5C 195.046,233.29 198.546,229.623 203.5,227.5 Z"/></g>
<g><path style="opacity:1" fill="#3b2314" d="M 331.5,392.5 C 344.519,393.016 350.019,399.682 348,412.5C 343.461,420.905 336.628,423.405 327.5,420C 320.141,414.183 318.641,407.016 323,398.5C 325.671,396.098 328.505,394.098 331.5,392.5 Z"/></g>
<g><path style="opacity:1" fill="#3b2314" d="M 174.5,421.5 C 188.177,422.218 193.677,429.218 191,442.5C 185.5,450.664 178.333,452.498 169.5,448C 163.152,442.053 161.986,435.219 166,427.5C 168.671,425.098 171.505,423.098 174.5,421.5 Z"/></g>
<g><path style="opacity:1" fill="#e3b875" d="M 352.5,426.5 C 353.461,428.265 353.795,430.265 353.5,432.5C 355.37,458.808 345.37,478.975 323.5,493C 321.598,494.301 319.598,494.968 317.5,495C 322.256,487.429 323.756,479.262 322,470.5C 339.219,463.896 345.385,451.729 340.5,434C 344.634,431.763 348.634,429.263 352.5,426.5 Z"/></g>
<g><path style="opacity:1" fill="#3b2314" d="M 229.5,430.5 C 244.993,428.82 251.16,435.487 248,450.5C 242.553,458.815 235.387,460.648 226.5,456C 217.805,446.367 218.805,437.867 229.5,430.5 Z"/></g>
<g><path style="opacity:1" fill="#3b2314" d="M 272.5,429.5 C 287.558,430.7 292.724,438.366 288,452.5C 282.096,458.972 275.262,460.139 267.5,456C 259.874,448.654 259.54,440.987 266.5,433C 268.727,432.059 270.727,430.892 272.5,429.5 Z"/></g>
<g><path style="opacity:1" fill="#3b2314" d="M 313.5,429.5 C 326.529,430.024 332.029,436.691 330,449.5C 325.436,457.913 318.603,460.413 309.5,457C 302.141,451.183 300.641,444.016 305,435.5C 307.671,433.098 310.505,431.098 313.5,429.5 Z"/></g>
<g><path style="opacity:1" fill="#4c3e27" d="M 353.5,432.5 C 353.795,430.265 353.461,428.265 352.5,426.5C 352.783,425.711 353.283,425.044 354,424.5C 354.801,427.367 354.634,430.034 353.5,432.5 Z"/></g>
<g><path style="opacity:1" fill="#3b2314" d="M 210.5,465.5 C 225.919,465.326 231.419,472.66 227,487.5C 219.299,496.344 211.299,496.677 203,488.5C 198.094,478.331 200.594,470.664 210.5,465.5 Z"/></g>
<g><path style="opacity:1" fill="#3b2314" d="M 251.5,465.5 C 267.268,466.093 272.435,473.76 267,488.5C 261.421,494.791 254.921,495.958 247.5,492C 240.359,484.925 239.693,477.258 245.5,469C 247.727,468.059 249.727,466.892 251.5,465.5 Z"/></g>
<g><path style="opacity:1" fill="#3b2314" d="M 291.5,465.5 C 306.351,465.174 312.184,472.174 309,486.5C 302.841,495.309 295.341,496.642 286.5,490.5C 278.817,480.259 280.484,471.926 291.5,465.5 Z"/></g>
<g><path style="opacity:1" fill="#d8b070" d="M 234.5,496.5 C 238.412,499.236 237.745,500.07 232.5,499C 233.381,498.292 234.047,497.458 234.5,496.5 Z"/></g>
<g><path style="opacity:1" fill="#d8af6f" d="M 275.5,496.5 C 279.412,499.236 278.745,500.07 273.5,499C 274.381,498.292 275.047,497.458 275.5,496.5 Z"/></g>
</svg>
