<?xml version="1.0" encoding="UTF-8"?>
<!DOCTYPE svg PUBLIC "-//W3C//DTD SVG 1.1//EN" "http://www.w3.org/Graphics/SVG/1.1/DTD/svg11.dtd">
<svg xmlns="http://www.w3.org/2000/svg" version="1.1" width="512px" height="512px" style="shape-rendering:geometricPrecision; text-rendering:geometricPrecision; image-rendering:optimizeQuality; fill-rule:evenodd; clip-rule:evenodd" xmlns:xlink="http://www.w3.org/1999/xlink">
<g><path style="opacity:0.965" fill="#000000" d="M 511.5,197.5 C 511.5,203.167 511.5,208.833 511.5,214.5C 493.209,292.672 475.043,371.005 457,449.5C 452.057,461.441 443.224,468.608 430.5,471C 313.833,471.667 197.167,471.667 80.5,471C 67.7764,468.608 58.943,461.441 54,449.5C 35.9573,371.005 17.7906,292.672 -0.5,214.5C -0.5,208.833 -0.5,203.167 -0.5,197.5C 3.65946,184.508 12.3261,176.008 25.5,172C 61.466,170.866 97.466,170.032 133.5,169.5C 151.569,128.125 169.736,86.7919 188,45.5C 193.787,39.5183 200.621,38.0183 208.5,41C 215.686,46.2263 217.853,53.0596 215,61.5C 199.264,97.5415 183.431,133.541 167.5,169.5C 226.167,170.833 284.833,170.833 343.5,169.5C 327.569,133.541 311.736,97.5415 296,61.5C 292.621,48.9075 297.288,41.5741 310,39.5C 315.331,39.3861 319.665,41.3861 323,45.5C 341.264,86.7919 359.431,128.125 377.5,169.5C 413.534,170.032 449.534,170.866 485.5,172C 498.674,176.008 507.341,184.508 511.5,197.5 Z M 33.5,201.5 C 62.1686,201.333 90.8353,201.5 119.5,202C 115.197,208.362 114.03,215.195 116,222.5C 120.194,230.35 126.694,233.184 135.5,231C 138.562,229.939 141.062,228.106 143,225.5C 146.5,217.833 150,210.167 153.5,202.5C 221.5,201.167 289.5,201.167 357.5,202.5C 361,210.167 364.5,217.833 368,225.5C 373.743,231.599 380.577,233.099 388.5,230C 394.4,226.035 396.9,220.535 396,213.5C 394.913,209.494 393.413,205.661 391.5,202C 420.919,201.017 450.253,201.35 479.5,203C 480.583,207.139 480.416,211.306 479,215.5C 462,289.5 445,363.5 428,437.5C 427.167,438.333 426.333,439.167 425.5,440C 312.167,440.667 198.833,440.667 85.5,440C 82.8783,437.058 81.3783,433.558 81,429.5C 64.0869,355.348 47.2536,281.181 30.5,207C 30.1197,204.297 31.1197,202.463 33.5,201.5 Z"/></g>
<g><path style="opacity:0.988" fill="#000000" d="M 162.5,265.5 C 170.559,265.109 176.393,268.442 180,275.5C 180.667,315.833 180.667,356.167 180,396.5C 174.705,406.723 166.872,409.223 156.5,404C 153.894,402.062 152.061,399.562 151,396.5C 150.333,356.167 150.333,315.833 151,275.5C 153.194,270.171 157.027,266.838 162.5,265.5 Z"/></g>
<g><path style="opacity:0.988" fill="#000000" d="M 252.5,265.5 C 260.559,265.109 266.393,268.442 270,275.5C 270.667,315.833 270.667,356.167 270,396.5C 264.705,406.723 256.872,409.223 246.5,404C 243.894,402.062 242.061,399.562 241,396.5C 240.333,356.167 240.333,315.833 241,275.5C 243.194,270.171 247.027,266.838 252.5,265.5 Z"/></g>
<g><path style="opacity:0.988" fill="#000000" d="M 342.5,265.5 C 350.559,265.109 356.393,268.442 360,275.5C 360.667,315.833 360.667,356.167 360,396.5C 354.705,406.723 346.872,409.223 336.5,404C 333.894,402.062 332.061,399.562 331,396.5C 330.333,356.167 330.333,315.833 331,275.5C 333.194,270.171 337.027,266.838 342.5,265.5 Z"/></g>
</svg>
