<?xml version="1.0" encoding="UTF-8"?>
<!DOCTYPE svg PUBLIC "-//W3C//DTD SVG 1.1//EN" "http://www.w3.org/Graphics/SVG/1.1/DTD/svg11.dtd">
<svg xmlns="http://www.w3.org/2000/svg" version="1.1" width="512px" height="512px" style="shape-rendering:geometricPrecision; text-rendering:geometricPrecision; image-rendering:optimizeQuality; fill-rule:evenodd; clip-rule:evenodd" xmlns:xlink="http://www.w3.org/1999/xlink">
<g><path style="opacity:0.971" fill="#e44961" d="M 325.5,16.5 C 325.5,22.1667 325.5,27.8333 325.5,33.5C 312.361,35.1301 306.527,42.4635 308,55.5C 311.215,63.2014 317.049,67.2014 325.5,67.5C 325.789,73.5907 325.455,79.5907 324.5,85.5C 302.462,84.1289 290.796,72.4622 289.5,50.5C 290.071,33.0914 298.737,21.9247 315.5,17C 318.817,16.5017 322.15,16.335 325.5,16.5 Z"/></g>
<g><path style="opacity:0.976" fill="#dd4361" d="M 325.5,16.5 C 345.903,18.5711 356.903,29.9044 358.5,50.5C 356.627,71.3729 345.294,83.0396 324.5,85.5C 325.455,79.5907 325.789,73.5907 325.5,67.5C 338.843,63.3068 343.01,54.6402 338,41.5C 334.622,37.406 330.455,34.7393 325.5,33.5C 325.5,27.8333 325.5,22.1667 325.5,16.5 Z"/></g>
<g><path style="opacity:0.964" fill="#f26864" d="M 195.5,107.5 C 194.167,133.167 194.167,158.833 195.5,184.5C 188.241,197.256 177.907,206.756 164.5,213C 157.599,214.266 153.599,211.433 152.5,204.5C 152.679,201.809 153.679,199.475 155.5,197.5C 185.392,180.341 194.559,155.341 183,122.5C 179.271,117.726 177.938,112.393 179,106.5C 182.554,101.549 187.054,100.382 192.5,103C 194.141,104.129 195.141,105.629 195.5,107.5 Z"/></g>
<g><path style="opacity:0.983" fill="#de4562" d="M 325.5,212.5 C 325.829,197.324 325.496,182.324 324.5,167.5C 327.235,148.627 326.902,129.794 323.5,111C 324.084,102.86 328.417,99.8599 336.5,102C 337.5,102.833 338.5,103.667 339.5,104.5C 347.56,136.059 345.726,167.059 334,197.5C 331.646,202.887 328.812,207.887 325.5,212.5 Z"/></g>
<g><path style="opacity:0.98" fill="#c42f62" d="M 471.5,101.5 C 472.458,107.744 472.791,114.077 472.5,120.5C 461.184,125.947 458.351,134.281 464,145.5C 466.177,148.523 469.011,150.523 472.5,151.5C 472.791,157.923 472.458,164.256 471.5,170.5C 449.407,163.991 440.241,149.325 444,126.5C 448.595,113.069 457.762,104.735 471.5,101.5 Z"/></g>
<g><path style="opacity:0.97" fill="#bd2a62" d="M 471.5,101.5 C 491.492,100.191 504.825,108.858 511.5,127.5C 511.5,133.167 511.5,138.833 511.5,144.5C 504.825,163.142 491.492,171.809 471.5,170.5C 472.458,164.256 472.791,157.923 472.5,151.5C 487.858,152.975 494.691,145.975 493,130.5C 488.852,121.493 482.018,118.159 472.5,120.5C 472.791,114.077 472.458,107.744 471.5,101.5 Z"/></g>
<g><path style="opacity:0.942" fill="#f26363" d="M 195.5,107.5 C 204.489,123.624 207.656,140.957 205,159.5C 204.008,168.792 200.841,177.125 195.5,184.5C 194.167,158.833 194.167,133.167 195.5,107.5 Z"/></g>
<g><path style="opacity:0.955" fill="#ec5061" d="M 254.5,118.5 C 260.833,118.5 267.167,118.5 273.5,118.5C 273.5,124.167 273.5,129.833 273.5,135.5C 279.167,135.5 284.833,135.5 290.5,135.5C 290.5,141.5 290.5,147.5 290.5,153.5C 284.833,153.5 279.167,153.5 273.5,153.5C 273.5,159.167 273.5,164.833 273.5,170.5C 267.167,170.5 260.833,170.5 254.5,170.5C 254.5,164.833 254.5,159.167 254.5,153.5C 248.833,153.5 243.167,153.5 237.5,153.5C 237.5,147.5 237.5,141.5 237.5,135.5C 243.167,135.5 248.833,135.5 254.5,135.5C 254.5,129.833 254.5,124.167 254.5,118.5 Z M 255.5,136.5 C 261.167,136.5 266.833,136.5 272.5,136.5C 272.5,141.833 272.5,147.167 272.5,152.5C 266.833,152.5 261.167,152.5 255.5,152.5C 255.5,147.167 255.5,141.833 255.5,136.5 Z"/></g>
<g><path style="opacity:1" fill="#f37166" d="M 144.5,126.5 C 150.425,126.192 156.259,126.525 162,127.5C 162.499,133.491 162.666,139.491 162.5,145.5C 156.5,145.5 150.5,145.5 144.5,145.5C 144.5,139.167 144.5,132.833 144.5,126.5 Z"/></g>
<g><path style="opacity:0.959" fill="#e34861" d="M 324.5,167.5 C 325.496,182.324 325.829,197.324 325.5,212.5C 316.88,226.787 305.547,238.454 291.5,247.5C 291.5,240.167 291.5,232.833 291.5,225.5C 308.729,209.708 319.729,190.375 324.5,167.5 Z"/></g>
<g><path style="opacity:0.952" fill="#cc3661" d="M 408.5,203.5 C 414.5,203.5 420.5,203.5 426.5,203.5C 426.5,209.167 426.5,214.833 426.5,220.5C 432.167,220.5 437.833,220.5 443.5,220.5C 443.5,226.5 443.5,232.5 443.5,238.5C 437.833,238.5 432.167,238.5 426.5,238.5C 426.5,244.167 426.5,249.833 426.5,255.5C 420.5,255.5 414.5,255.5 408.5,255.5C 408.5,249.833 408.5,244.167 408.5,238.5C 402.833,238.5 397.167,238.5 391.5,238.5C 391.5,232.5 391.5,226.5 391.5,220.5C 397.167,220.5 402.833,220.5 408.5,220.5C 408.5,214.833 408.5,209.167 408.5,203.5 Z M 409.5,221.5 C 414.833,221.5 420.167,221.5 425.5,221.5C 425.5,226.833 425.5,232.167 425.5,237.5C 420.167,237.5 414.833,237.5 409.5,237.5C 409.5,232.167 409.5,226.833 409.5,221.5 Z"/></g>
<g><path style="opacity:0.974" fill="#f47966" d="M 137.5,218.5 C 137.5,226.833 137.5,235.167 137.5,243.5C 135.186,241.523 132.853,239.523 130.5,237.5C 127.007,245.346 123.341,253.012 119.5,260.5C 118.504,247.344 118.171,234.01 118.5,220.5C 120.195,213.666 124.529,211.166 131.5,213C 133.996,214.331 135.996,216.164 137.5,218.5 Z"/></g>
<g><path style="opacity:0.965" fill="#f48067" d="M 118.5,220.5 C 118.171,234.01 118.504,247.344 119.5,260.5C 111.736,278.354 103.736,296.021 95.5,313.5C 95.829,299.656 95.4957,285.99 94.5,272.5C 101.987,254.863 109.987,237.529 118.5,220.5 Z"/></g>
<g><path style="opacity:0.962" fill="#ea4e60" d="M 291.5,225.5 C 291.5,232.833 291.5,240.167 291.5,247.5C 282.941,254.03 273.608,259.363 263.5,263.5C 263.5,256.833 263.5,250.167 263.5,243.5C 273.513,238.497 282.846,232.497 291.5,225.5 Z"/></g>
<g><path style="opacity:0.999" fill="#f36f65" d="M 137.5,218.5 C 150.833,231.167 163.833,244.167 176.5,257.5C 176.5,265.833 176.5,274.167 176.5,282.5C 163.167,269.833 150.167,256.833 137.5,243.5C 137.5,235.167 137.5,226.833 137.5,218.5 Z"/></g>
<g><path style="opacity:0.959" fill="#f05561" d="M 263.5,243.5 C 263.5,250.167 263.5,256.833 263.5,263.5C 252.682,267.996 241.515,271.33 230,273.5C 221.287,271.042 218.954,265.709 223,257.5C 236.87,253.932 250.37,249.265 263.5,243.5 Z"/></g>
<g><path style="opacity:0.952" fill="#d53d62" d="M 353.5,269.5 C 368.004,268.775 382.338,269.942 396.5,273C 400.671,276.854 401.504,281.354 399,286.5C 397.164,288.708 394.831,290.042 392,290.5C 379.345,287.908 366.511,286.908 353.5,287.5C 353.5,281.5 353.5,275.5 353.5,269.5 Z"/></g>
<g><path style="opacity:0.964" fill="#f58668" d="M 94.5,272.5 C 95.4957,285.99 95.829,299.656 95.5,313.5C 89.6773,327.806 83.3439,341.806 76.5,355.5C 76.5,341.5 76.5,327.5 76.5,313.5C 82.2276,299.712 88.2276,286.045 94.5,272.5 Z"/></g>
<g><path style="opacity:0.962" fill="#e14761" d="M 353.5,269.5 C 353.5,275.5 353.5,281.5 353.5,287.5C 334.789,289.842 318.123,296.842 303.5,308.5C 301.541,302.25 300.874,295.584 301.5,288.5C 316.975,277.449 334.309,271.116 353.5,269.5 Z"/></g>
<g><path style="opacity:0.965" fill="#f26363" d="M 176.5,257.5 C 192.167,272.5 207.5,287.833 222.5,303.5C 220.629,303.141 219.129,302.141 218,300.5C 217.5,308.159 217.334,315.826 217.5,323.5C 203.5,310.167 189.833,296.5 176.5,282.5C 176.5,274.167 176.5,265.833 176.5,257.5 Z"/></g>
<g><path style="opacity:0.955" fill="#e94d60" d="M 301.5,288.5 C 300.874,295.584 301.541,302.25 303.5,308.5C 299.896,311.602 296.396,314.935 293,318.5C 287.711,325.578 282.544,332.745 277.5,340C 269.715,342.448 265.048,339.781 263.5,332C 266.408,324.094 270.574,316.928 276,310.5C 283.507,301.812 292.007,294.479 301.5,288.5 Z"/></g>
<g><path style="opacity:0.963" fill="#f68c68" d="M 76.5,313.5 C 76.5,327.5 76.5,341.5 76.5,355.5C 70.6773,369.806 64.3439,383.806 57.5,397.5C 57.5,383.5 57.5,369.5 57.5,355.5C 63.3227,341.194 69.6561,327.194 76.5,313.5 Z"/></g>
<g><path style="opacity:0.967" fill="#ef5561" d="M 222.5,303.5 C 241.465,321.965 260.299,340.632 279,359.5C 282.632,364.745 282.132,369.578 277.5,374C 257.593,383.455 237.593,392.621 217.5,401.5C 217.793,394.745 217.46,388.078 216.5,381.5C 230.055,375.815 243.389,369.648 256.5,363C 243.298,349.965 230.298,336.798 217.5,323.5C 217.334,315.826 217.5,308.159 218,300.5C 219.129,302.141 220.629,303.141 222.5,303.5 Z"/></g>
<g><path style="opacity:0.945" fill="#d23b61" d="M 387.5,326.5 C 395.289,324.55 399.956,327.383 401.5,335C 399.789,342.855 395.123,345.522 387.5,343C 382.203,337.501 382.203,332.001 387.5,326.5 Z"/></g>
<g><path style="opacity:0.976" fill="#f69269" d="M 57.5,355.5 C 57.5,369.5 57.5,383.5 57.5,397.5C 51.4389,411.955 45.1056,426.289 38.5,440.5C 37.5043,427.01 37.171,413.344 37.5,399.5C 43.6562,384.527 50.3228,369.86 57.5,355.5 Z"/></g>
<g><path style="opacity:0.959" fill="#f16563" d="M 216.5,381.5 C 217.46,388.078 217.793,394.745 217.5,401.5C 203.955,407.772 190.288,413.772 176.5,419.5C 176.5,413.167 176.5,406.833 176.5,400.5C 189.589,393.796 202.922,387.463 216.5,381.5 Z"/></g>
<g><path style="opacity:0.975" fill="#f79a6a" d="M 37.5,399.5 C 37.171,413.344 37.5043,427.01 38.5,440.5C 34.743,448.595 31.0763,456.762 27.5,465C 27.8333,465.5 28.1667,466 28.5,466.5C 30.4496,465.628 32.4496,464.961 34.5,464.5C 35.1667,470.5 35.8333,476.5 36.5,482.5C 28.7128,486.558 20.7128,490.392 12.5,494C 7.32649,495.461 2.99316,494.294 -0.5,490.5C -0.5,487.5 -0.5,484.5 -0.5,481.5C 12.1667,454.167 24.8333,426.833 37.5,399.5 Z"/></g>
<g><path style="opacity:0.969" fill="#f37165" d="M 176.5,400.5 C 176.5,406.833 176.5,413.167 176.5,419.5C 163.684,425.739 150.684,431.739 137.5,437.5C 137.823,430.978 137.49,424.645 136.5,418.5C 149.517,411.933 162.85,405.933 176.5,400.5 Z"/></g>
<g><path style="opacity:0.964" fill="#f47d66" d="M 136.5,418.5 C 137.49,424.645 137.823,430.978 137.5,437.5C 123.289,444.106 108.955,450.439 94.5,456.5C 95.8073,450.068 95.8073,443.734 94.5,437.5C 108.205,430.65 122.205,424.317 136.5,418.5 Z"/></g>
<g><path style="opacity:0.96" fill="#f68a68" d="M 94.5,437.5 C 95.8073,443.734 95.8073,450.068 94.5,456.5C 82.3505,462.406 70.0172,468.072 57.5,473.5C 57.8235,466.978 57.4902,460.645 56.5,454.5C 68.8725,448.316 81.5392,442.65 94.5,437.5 Z"/></g>
<g><path style="opacity:0.963" fill="#f79369" d="M 56.5,454.5 C 57.4902,460.645 57.8235,466.978 57.5,473.5C 50.6205,476.773 43.6205,479.773 36.5,482.5C 35.8333,476.5 35.1667,470.5 34.5,464.5C 41.5266,460.656 48.8599,457.323 56.5,454.5 Z"/></g>
</svg>
