<?xml version="1.0" encoding="UTF-8"?>
<!DOCTYPE svg PUBLIC "-//W3C//DTD SVG 1.1//EN" "http://www.w3.org/Graphics/SVG/1.1/DTD/svg11.dtd">
<svg xmlns="http://www.w3.org/2000/svg" version="1.1" width="512px" height="512px" style="shape-rendering:geometricPrecision; text-rendering:geometricPrecision; image-rendering:optimizeQuality; fill-rule:evenodd; clip-rule:evenodd" xmlns:xlink="http://www.w3.org/1999/xlink">
<g><path style="opacity:0.98" fill="#f37f1a" d="M 52.5,6.5 C 57.2969,11.798 62.2969,16.9646 67.5,22C 66.2625,22.2321 65.2625,22.7321 64.5,23.5C 55.1667,23.5 45.8333,23.5 36.5,23.5C 36.6107,22.8826 36.944,22.3826 37.5,22C 33.5724,17.5642 29.2391,13.7308 24.5,10.5C 26.8577,8.87143 29.5243,7.70477 32.5,7C 39.1583,6.50042 45.825,6.33375 52.5,6.5 Z"/></g>
<g><path style="opacity:0.981" fill="#f2791b" d="M 52.5,6.5 C 62.5,6.5 72.5,6.5 82.5,6.5C 81.7375,7.26791 80.7375,7.76791 79.5,8C 84.7031,13.0354 89.7031,18.202 94.5,23.5C 84.5,23.5 74.5,23.5 64.5,23.5C 65.2625,22.7321 66.2625,22.2321 67.5,22C 62.2969,16.9646 57.2969,11.798 52.5,6.5 Z"/></g>
<g><path style="opacity:0.96" fill="#f1731c" d="M 82.5,6.5 C 89.8333,6.5 97.1667,6.5 104.5,6.5C 109.297,11.798 114.297,16.9646 119.5,22C 123.025,22.1787 126.359,22.6787 129.5,23.5C 117.833,23.5 106.167,23.5 94.5,23.5C 89.7031,18.202 84.7031,13.0354 79.5,8C 80.7375,7.76791 81.7375,7.26791 82.5,6.5 Z"/></g>
<g><path style="opacity:0.957" fill="#f06d1d" d="M 104.5,6.5 C 111.833,6.5 119.167,6.5 126.5,6.5C 127.952,7.30192 129.618,7.80192 131.5,8C 136.703,13.0354 141.703,18.202 146.5,23.5C 140.833,23.5 135.167,23.5 129.5,23.5C 126.359,22.6787 123.025,22.1787 119.5,22C 114.297,16.9646 109.297,11.798 104.5,6.5 Z"/></g>
<g><path style="opacity:0.938" fill="#f0671e" d="M 126.5,6.5 C 139.5,6.5 152.5,6.5 165.5,6.5C 164.737,7.26791 163.737,7.76791 162.5,8C 167.703,13.0354 172.703,18.202 177.5,23.5C 167.167,23.5 156.833,23.5 146.5,23.5C 141.703,18.202 136.703,13.0354 131.5,8C 129.618,7.80192 127.952,7.30192 126.5,6.5 Z"/></g>
<g><path style="opacity:0.971" fill="#ee5c20" d="M 165.5,6.5 C 181.5,6.5 197.5,6.5 213.5,6.5C 218.297,11.798 223.297,16.9646 228.5,22C 226.942,22.21 225.609,22.71 224.5,23.5C 208.833,23.5 193.167,23.5 177.5,23.5C 172.703,18.202 167.703,13.0354 162.5,8C 163.737,7.76791 164.737,7.26791 165.5,6.5 Z"/></g>
<g><path style="opacity:0.96" fill="#ed5022" d="M 213.5,6.5 C 232.167,6.5 250.833,6.5 269.5,6.5C 274.297,11.798 279.297,16.9646 284.5,22C 281.305,22.1805 278.305,22.6805 275.5,23.5C 258.5,23.5 241.5,23.5 224.5,23.5C 225.609,22.71 226.942,22.21 228.5,22C 223.297,16.9646 218.297,11.798 213.5,6.5 Z"/></g>
<g><path style="opacity:0.88" fill="#eb4325" d="M 269.5,6.5 C 286.833,6.5 304.167,6.5 321.5,6.5C 326.297,11.798 331.297,16.9646 336.5,22C 338.708,22.1909 340.708,22.6909 342.5,23.5C 320.167,23.5 297.833,23.5 275.5,23.5C 278.305,22.6805 281.305,22.1805 284.5,22C 279.297,16.9646 274.297,11.798 269.5,6.5 Z"/></g>
<g><path style="opacity:0.952" fill="#ea3c26" d="M 321.5,6.5 C 330.5,6.5 339.5,6.5 348.5,6.5C 373.221,31.5537 397.888,56.5537 422.5,81.5C 405.839,82.8842 389.172,84.2175 372.5,85.5C 368.767,80.2595 364.434,75.4262 359.5,71C 360.056,70.6174 360.389,70.1174 360.5,69.5C 373.507,68.4994 386.507,67.3327 399.5,66C 387.5,52.6667 375.5,39.3333 363.5,26C 362.167,25.3333 360.833,24.6667 359.5,24C 353.843,23.5006 348.176,23.3339 342.5,23.5C 340.708,22.6909 338.708,22.1909 336.5,22C 331.297,16.9646 326.297,11.798 321.5,6.5 Z"/></g>
<g><path style="opacity:0.964" fill="#ea3527" d="M 348.5,6.5 C 358.95,5.0422 368.284,7.5422 376.5,14C 391.13,30.9651 406.13,47.6318 421.5,64C 451.375,62.1647 470.875,75.3314 480,103.5C 485.285,128.757 490.118,154.09 494.5,179.5C 487.869,173.369 481.369,167.036 475,160.5C 474.617,161.056 474.117,161.389 473.5,161.5C 470.659,144.121 467.492,126.788 464,109.5C 457.766,89.1196 443.932,79.7862 422.5,81.5C 397.888,56.5537 373.221,31.5537 348.5,6.5 Z"/></g>
<g><path style="opacity:0.973" fill="#f48918" d="M 24.5,10.5 C 29.2391,13.7308 33.5724,17.5642 37.5,22C 36.944,22.3826 36.6107,22.8826 36.5,23.5C 32.2778,24.887 29.1111,27.5536 27,31.5C 25.6009,41.7683 25.1009,52.1017 25.5,62.5C 20.202,57.7031 15.0354,52.7031 10,47.5C 9.76791,48.7375 9.26791,49.7375 8.5,50.5C 6.70722,37.6119 9.54055,25.9452 17,15.5C 19.3996,13.5854 21.8996,11.9188 24.5,10.5 Z"/></g>
<g><path style="opacity:0.985" fill="#f59217" d="M 25.5,62.5 C 25.5,71.1667 25.5,79.8333 25.5,88.5C 20.202,83.7031 15.0354,78.7031 10,73.5C 9.61742,74.056 9.11742,74.3893 8.5,74.5C 8.5,66.5 8.5,58.5 8.5,50.5C 9.26791,49.7375 9.76791,48.7375 10,47.5C 15.0354,52.7031 20.202,57.7031 25.5,62.5 Z"/></g>
<g><path style="opacity:0.964" fill="#f1721c" d="M 168.5,97.5 C 164.833,93.1667 160.833,89.1667 156.5,85.5C 160.616,79.5441 164.949,73.7108 169.5,68C 178.453,64.9614 182.953,68.1281 183,77.5C 178.879,84.765 174.046,91.4316 168.5,97.5 Z"/></g>
<g><path style="opacity:0.969" fill="#ec4c23" d="M 360.5,69.5 C 360.389,70.1174 360.056,70.6174 359.5,71C 364.434,75.4262 368.767,80.2595 372.5,85.5C 355.828,86.7825 339.161,88.1158 322.5,89.5C 317.194,84.8604 312.194,79.8604 307.5,74.5C 324.952,72.1274 342.619,70.4607 360.5,69.5 Z"/></g>
<g><path style="opacity:0.943" fill="#f69915" d="M 25.5,88.5 C 25.5,99.8333 25.5,111.167 25.5,122.5C 24.6981,121.048 24.1981,119.382 24,117.5C 18.9646,112.297 13.798,107.297 8.5,102.5C 8.5,93.1667 8.5,83.8333 8.5,74.5C 9.11742,74.3893 9.61742,74.056 10,73.5C 15.0354,78.7031 20.202,83.7031 25.5,88.5 Z"/></g>
<g><path style="opacity:0.971" fill="#f38319" d="M 109.5,119.5 C 105.036,115.537 100.702,111.37 96.5,107C 97.4158,106.722 98.0825,106.222 98.5,105.5C 106.2,103.442 109.367,98.4424 108,90.5C 102.002,79.8339 94.6686,78.8339 86,87.5C 84.9914,89.0249 84.4914,90.6916 84.5,92.5C 83.8826,92.6107 83.3826,92.944 83,93.5C 78.9644,89.2964 74.7978,85.2964 70.5,81.5C 74.3744,72.207 81.3744,66.707 91.5,65C 115.662,64.4965 126.828,76.3298 125,100.5C 122.906,109.42 117.739,115.753 109.5,119.5 Z"/></g>
<g><path style="opacity:0.967" fill="#ee5821" d="M 307.5,74.5 C 312.194,79.8604 317.194,84.8604 322.5,89.5C 317.649,89.3704 312.982,90.2038 308.5,92C 302.576,98.083 297.243,104.583 292.5,111.5C 288.167,107.833 284.167,103.833 280.5,99.5C 284.971,92.0932 290.304,85.2598 296.5,79C 299.726,76.4246 303.393,74.9246 307.5,74.5 Z"/></g>
<g><path style="opacity:0.978" fill="#f58c18" d="M 70.5,81.5 C 74.7978,85.2964 78.9644,89.2964 83,93.5C 83.3826,92.944 83.8826,92.6107 84.5,92.5C 84.6981,101.699 89.3647,106.033 98.5,105.5C 98.0825,106.222 97.4158,106.722 96.5,107C 100.702,111.37 105.036,115.537 109.5,119.5C 94.8748,125.872 82.3748,122.872 72,110.5C 67.8426,103.005 66.5093,95.0047 68,86.5C 68.3736,84.5087 69.207,82.842 70.5,81.5 Z"/></g>
<g><path style="opacity:0.973" fill="#f27d1a" d="M 156.5,85.5 C 160.833,89.1667 164.833,93.1667 168.5,97.5C 162.321,107.194 155.655,116.527 148.5,125.5C 143.895,122.564 139.895,118.898 136.5,114.5C 142.91,104.688 149.577,95.0216 156.5,85.5 Z"/></g>
<g><path style="opacity:0.958" fill="#f79f14" d="M 8.5,102.5 C 13.798,107.297 18.9646,112.297 24,117.5C 24.1981,119.382 24.6981,121.048 25.5,122.5C 25.5,129.833 25.5,137.167 25.5,144.5C 20.202,139.703 15.0354,134.703 10,129.5C 9.82129,125.975 9.32129,122.641 8.5,119.5C 8.5,113.833 8.5,108.167 8.5,102.5 Z"/></g>
<g><path style="opacity:0.981" fill="#eb4424" d="M 425.5,164.5 C 421.833,159.833 418.167,155.167 414.5,150.5C 422.51,148.159 425.676,142.826 424,134.5C 417.535,124.692 410.201,124.026 402,132.5C 401.392,134.154 400.892,135.821 400.5,137.5C 396.108,133.103 391.442,129.103 386.5,125.5C 393.83,112.838 404.83,107.671 419.5,110C 437.05,115.92 444.216,128.087 441,146.5C 438.472,154.856 433.305,160.856 425.5,164.5 Z"/></g>
<g><path style="opacity:0.971" fill="#ef641f" d="M 280.5,99.5 C 284.167,103.833 288.167,107.833 292.5,111.5C 284.156,122.206 275.822,132.872 267.5,143.5C 263.167,139.833 259.167,135.833 255.5,131.5C 263.362,120.432 271.695,109.765 280.5,99.5 Z"/></g>
<g><path style="opacity:0.976" fill="#f48818" d="M 136.5,114.5 C 139.895,118.898 143.895,122.564 148.5,125.5C 140.321,137.862 131.654,149.862 122.5,161.5C 119.232,156.893 115.565,152.559 111.5,148.5C 119.357,136.773 127.69,125.44 136.5,114.5 Z"/></g>
<g><path style="opacity:0.922" fill="#f7a513" d="M 8.5,119.5 C 9.32129,122.641 9.82129,125.975 10,129.5C 15.0354,134.703 20.202,139.703 25.5,144.5C 25.5,151.167 25.5,157.833 25.5,164.5C 24.6981,165.952 24.1981,167.618 24,169.5C 19.3333,164.833 14.6667,160.167 10,155.5C 9.78997,157.058 9.28997,158.391 8.5,159.5C 8.5,146.167 8.5,132.833 8.5,119.5 Z"/></g>
<g><path style="opacity:0.973" fill="#ed4d23" d="M 386.5,125.5 C 391.442,129.103 396.108,133.103 400.5,137.5C 401.323,145.991 405.99,150.324 414.5,150.5C 418.167,155.167 421.833,159.833 425.5,164.5C 411.514,170.527 399.347,167.86 389,156.5C 382.809,146.54 381.975,136.206 386.5,125.5 Z"/></g>
<g><path style="opacity:0.979" fill="#f38519" d="M 186.5,197.5 C 182.435,193.441 178.768,189.107 175.5,184.5C 180.133,174.1 176.966,167.433 166,164.5C 162.963,165.012 160.129,166.012 157.5,167.5C 153.5,163.833 149.5,160.167 145.5,156.5C 154.591,147.4 165.258,145.233 177.5,150C 192.586,158.232 197.753,170.732 193,187.5C 191.556,191.411 189.389,194.744 186.5,197.5 Z"/></g>
<g><path style="opacity:0.959" fill="#f1711c" d="M 255.5,131.5 C 259.167,135.833 263.167,139.833 267.5,143.5C 260.398,153.385 253.065,163.051 245.5,172.5C 241.43,169.94 237.764,166.773 234.5,163C 233.552,162.517 232.552,162.351 231.5,162.5C 239.531,152.143 247.531,141.809 255.5,131.5 Z"/></g>
<g><path style="opacity:0.994" fill="#f8ab12" d="M 25.5,164.5 C 25.5,175.167 25.5,185.833 25.5,196.5C 20.202,191.703 15.0354,186.703 10,181.5C 9.80192,179.618 9.30192,177.952 8.5,176.5C 8.5,170.833 8.5,165.167 8.5,159.5C 9.28997,158.391 9.78997,157.058 10,155.5C 14.6667,160.167 19.3333,164.833 24,169.5C 24.1981,167.618 24.6981,165.952 25.5,164.5 Z"/></g>
<g><path style="opacity:0.977" fill="#f58d17" d="M 145.5,156.5 C 149.5,160.167 153.5,163.833 157.5,167.5C 150.761,178.442 153.594,185.776 166,189.5C 169.673,188.747 172.84,187.08 175.5,184.5C 178.768,189.107 182.435,193.441 186.5,197.5C 174.039,207.832 161.039,208.665 147.5,200C 136.734,190.1 133.9,178.267 139,164.5C 140.467,161.213 142.634,158.546 145.5,156.5 Z"/></g>
<g><path style="opacity:0.958" fill="#f69716" d="M 111.5,148.5 C 115.565,152.559 119.232,156.893 122.5,161.5C 115.601,172.73 107.935,183.397 99.5,193.5C 96.1053,189.102 92.1053,185.436 87.5,182.5C 95.1436,170.866 103.144,159.533 111.5,148.5 Z"/></g>
<g><path style="opacity:0.972" fill="#f27d1a" d="M 231.5,162.5 C 232.552,162.351 233.552,162.517 234.5,163C 237.764,166.773 241.43,169.94 245.5,172.5C 238.517,182.145 231.184,191.478 223.5,200.5C 218.895,197.564 214.895,193.898 211.5,189.5C 217.914,180.351 224.58,171.351 231.5,162.5 Z"/></g>
<g><path style="opacity:0.985" fill="#f9b111" d="M 8.5,176.5 C 9.30192,177.952 9.80192,179.618 10,181.5C 15.0354,186.703 20.202,191.703 25.5,196.5C 25.5,208.167 25.5,219.833 25.5,231.5C 24.6981,230.048 24.1981,228.382 24,226.5C 18.9646,221.297 13.798,216.297 8.5,211.5C 8.5,199.833 8.5,188.167 8.5,176.5 Z"/></g>
<g><path style="opacity:0.96" fill="#f7a014" d="M 87.5,182.5 C 92.1053,185.436 96.1053,189.102 99.5,193.5C 98.1461,197.032 96.1461,200.198 93.5,203C 82.9641,206.997 78.4641,203.497 80,192.5C 81.9789,188.7 84.4789,185.366 87.5,182.5 Z"/></g>
<g><path style="opacity:0.971" fill="#f0681e" d="M 385.5,231.5 C 389.86,235.194 393.86,239.194 397.5,243.5C 395.38,247.454 392.38,250.621 388.5,253C 385.366,253.79 382.366,253.457 379.5,252C 356.68,234.091 333.68,216.424 310.5,199C 305.31,189.711 307.977,184.711 318.5,184C 340.167,200.167 361.833,216.333 383.5,232.5C 384.183,232.137 384.85,231.804 385.5,231.5 Z"/></g>
<g><path style="opacity:0.966" fill="#f48619" d="M 211.5,189.5 C 214.895,193.898 218.895,197.564 223.5,200.5C 219.087,206.982 214.42,213.315 209.5,219.5C 205.441,215.435 201.107,211.768 196.5,208.5C 201.15,201.855 206.15,195.522 211.5,189.5 Z"/></g>
<g><path style="opacity:0.968" fill="#ec4524" d="M 494.5,179.5 C 497.549,194.078 500.215,208.745 502.5,223.5C 502.288,228.61 500.954,233.277 498.5,237.5C 494.895,232.226 490.562,227.559 485.5,223.5C 481.624,202.785 477.624,182.119 473.5,161.5C 474.117,161.389 474.617,161.056 475,160.5C 481.369,167.036 487.869,173.369 494.5,179.5 Z"/></g>
<g><path style="opacity:0.964" fill="#fab910" d="M 8.5,211.5 C 13.798,216.297 18.9646,221.297 24,226.5C 24.1981,228.382 24.6981,230.048 25.5,231.5C 25.619,239.254 29.2856,244.42 36.5,247C 41.1548,247.499 45.8215,247.666 50.5,247.5C 49.3915,248.29 48.0581,248.79 46.5,249C 51.7031,254.035 56.7031,259.202 61.5,264.5C 20.8333,269.833 3.16667,252.167 8.5,211.5 Z"/></g>
<g><path style="opacity:0.968" fill="#ef5d20" d="M 397.5,243.5 C 393.86,239.194 389.86,235.194 385.5,231.5C 392.284,222.21 399.284,213.043 406.5,204C 416.577,201.299 420.743,205.132 419,215.5C 411.618,224.709 404.451,234.043 397.5,243.5 Z"/></g>
<g><path style="opacity:0.966" fill="#f59017" d="M 196.5,208.5 C 201.107,211.768 205.441,215.435 209.5,219.5C 201.469,229.857 193.469,240.191 185.5,250.5C 182.232,245.893 178.565,241.559 174.5,237.5C 181.602,227.615 188.935,217.949 196.5,208.5 Z"/></g>
<g><path style="opacity:0.975" fill="#ed4d23" d="M 485.5,223.5 C 490.562,227.559 494.895,232.226 498.5,237.5C 495.471,243.557 491.471,248.891 486.5,253.5C 482.102,250.105 478.436,246.105 475.5,241.5C 477.485,237.544 479.985,233.878 483,230.5C 484.136,228.257 484.97,225.924 485.5,223.5 Z"/></g>
<g><path style="opacity:0.966" fill="#f2791b" d="M 307.5,235.5 C 319.167,247.833 331.167,259.833 343.5,271.5C 340.305,276.569 336.638,281.235 332.5,285.5C 327.167,282.167 322.833,277.833 319.5,272.5C 321.017,272.489 322.184,271.823 323,270.5C 325.167,267.667 327.333,264.833 329.5,262C 322.654,258.882 315.654,256.049 308.5,253.5C 307.479,254.002 307.312,254.668 308,255.5C 311.769,260.719 315.269,266.053 318.5,271.5C 305.033,259.547 291.699,246.713 278.5,233C 277.906,232.536 277.239,232.369 276.5,232.5C 277.649,228.997 280.149,227.331 284,227.5C 292.234,229.299 300.067,231.966 307.5,235.5 Z M 319.5,272.5 C 319.5,271.833 319.167,271.5 318.5,271.5C 315.269,266.053 311.769,260.719 308,255.5C 307.312,254.668 307.479,254.002 308.5,253.5C 315.654,256.049 322.654,258.882 329.5,262C 327.333,264.833 325.167,267.667 323,270.5C 322.184,271.823 321.017,272.489 319.5,272.5 Z"/></g>
<g><path style="opacity:0.978" fill="#f37f1a" d="M 276.5,232.5 C 277.239,232.369 277.906,232.536 278.5,233C 291.699,246.713 305.033,259.547 318.5,271.5C 319.167,271.5 319.5,271.833 319.5,272.5C 322.833,277.833 327.167,282.167 332.5,285.5C 331.527,287.068 331.36,288.735 332,290.5C 337.084,296.845 341.25,303.678 344.5,311C 342.44,318.864 337.773,321.031 330.5,317.5C 312.139,291.638 293.972,265.638 276,239.5C 275.204,236.961 275.371,234.628 276.5,232.5 Z"/></g>
<g><path style="opacity:0.966" fill="#f1721c" d="M 307.5,235.5 C 329.836,243.224 352.169,251.057 374.5,259C 380.808,266.661 379.308,272.161 370,275.5C 362.414,273.138 354.914,270.471 347.5,267.5C 345.784,268.549 344.451,269.882 343.5,271.5C 331.167,259.833 319.167,247.833 307.5,235.5 Z"/></g>
<g><path style="opacity:0.96" fill="#f69915" d="M 174.5,237.5 C 178.565,241.559 182.232,245.893 185.5,250.5C 181.519,256.475 177.186,262.142 172.5,267.5C 166.892,260.555 160.892,253.888 154.5,247.5C 158.514,247.666 162.514,247.499 166.5,247C 169.031,243.642 171.698,240.476 174.5,237.5 Z"/></g>
<g><path style="opacity:0.916" fill="#f9b111" d="M 50.5,247.5 C 59.1667,247.5 67.8333,247.5 76.5,247.5C 81.2969,252.798 86.2969,257.965 91.5,263C 89.9419,263.21 88.6085,263.71 87.5,264.5C 78.8333,264.5 70.1667,264.5 61.5,264.5C 56.7031,259.202 51.7031,254.035 46.5,249C 48.0581,248.79 49.3915,248.29 50.5,247.5 Z"/></g>
<g><path style="opacity:0.979" fill="#f8ab12" d="M 76.5,247.5 C 85.1667,247.5 93.8333,247.5 102.5,247.5C 107.297,252.798 112.297,257.965 117.5,263C 115.942,263.21 114.609,263.71 113.5,264.5C 104.833,264.5 96.1667,264.5 87.5,264.5C 88.6085,263.71 89.9419,263.21 91.5,263C 86.2969,257.965 81.2969,252.798 76.5,247.5 Z"/></g>
<g><path style="opacity:0.963" fill="#f7a214" d="M 102.5,247.5 C 119.833,247.5 137.167,247.5 154.5,247.5C 160.892,253.888 166.892,260.555 172.5,267.5C 165.167,277.167 157.833,286.833 150.5,296.5C 146.464,292.466 142.798,288.132 139.5,283.5C 143.325,277.205 147.658,271.205 152.5,265.5C 139.517,264.501 126.517,264.168 113.5,264.5C 114.609,263.71 115.942,263.21 117.5,263C 112.297,257.965 107.297,252.798 102.5,247.5 Z"/></g>
<g><path style="opacity:0.976" fill="#ee5821" d="M 475.5,241.5 C 478.436,246.105 482.102,250.105 486.5,253.5C 479.892,263.714 472.559,273.381 464.5,282.5C 459.895,279.564 455.895,275.898 452.5,271.5C 459.407,260.925 467.074,250.925 475.5,241.5 Z"/></g>
<g><path style="opacity:0.968" fill="#f59117" d="M 240.5,304.5 C 236.833,300.167 232.833,296.167 228.5,292.5C 234.279,285.119 239.946,277.619 245.5,270C 256.036,266.003 260.536,269.503 259,280.5C 253.055,288.749 246.889,296.749 240.5,304.5 Z"/></g>
<g><path style="opacity:0.965" fill="#ef641f" d="M 452.5,271.5 C 455.895,275.898 459.895,279.564 464.5,282.5C 456.519,293.808 448.186,304.808 439.5,315.5C 435.466,311.464 431.132,307.798 426.5,304.5C 434.937,293.279 443.603,282.279 452.5,271.5 Z"/></g>
<g><path style="opacity:0.972" fill="#f69816" d="M 228.5,292.5 C 232.833,296.167 236.833,300.167 240.5,304.5C 239.883,306.229 238.883,307.729 237.5,309C 244.5,314.167 251.5,319.333 258.5,324.5C 259.182,323.757 259.849,323.091 260.5,322.5C 264.132,327.467 268.132,332.133 272.5,336.5C 279.718,340.871 286.551,345.871 293,351.5C 295.945,347.249 299.112,343.249 302.5,339.5C 306.536,343.534 310.202,347.868 313.5,352.5C 309.384,358.456 305.051,364.289 300.5,370C 296.5,372 292.5,372 288.5,370C 265.333,352.167 242.167,334.333 219,316.5C 217.517,313.298 217.183,309.964 218,306.5C 221.332,301.673 224.832,297.007 228.5,292.5 Z"/></g>
<g><path style="opacity:0.97" fill="#f9b011" d="M 139.5,283.5 C 142.798,288.132 146.464,292.466 150.5,296.5C 142.156,307.206 133.822,317.872 125.5,328.5C 121.833,324.167 117.833,320.167 113.5,316.5C 121.937,305.279 130.603,294.279 139.5,283.5 Z"/></g>
<g><path style="opacity:0.965" fill="#f59217" d="M 272.5,336.5 C 268.132,332.133 264.132,327.467 260.5,322.5C 264.238,316.588 268.571,311.088 273.5,306C 283.662,303.159 287.828,306.992 286,317.5C 280.867,323.453 276.367,329.786 272.5,336.5 Z"/></g>
<g><path style="opacity:0.953" fill="#f1711c" d="M 426.5,304.5 C 431.132,307.798 435.466,311.464 439.5,315.5C 431.731,326.053 423.731,336.386 415.5,346.5C 412.99,341.313 409.324,336.979 404.5,333.5C 411.865,323.809 419.198,314.143 426.5,304.5 Z"/></g>
<g><path style="opacity:0.972" fill="#f58c18" d="M 313.5,352.5 C 310.202,347.868 306.536,343.534 302.5,339.5C 306.282,333.878 310.282,328.378 314.5,323C 325.323,319.117 329.823,322.617 328,333.5C 323.631,340.262 318.798,346.595 313.5,352.5 Z"/></g>
<g><path style="opacity:0.963" fill="#fbbe0f" d="M 113.5,316.5 C 117.833,320.167 121.833,324.167 125.5,328.5C 120.498,335.009 115.665,341.675 111,348.5C 108.733,353.896 109.4,358.896 113,363.5C 146.773,389.63 180.607,415.63 214.5,441.5C 233.747,462.249 253.58,482.582 274,502.5C 274.464,503.094 274.631,503.761 274.5,504.5C 269.035,503.435 264.035,501.268 259.5,498C 234.069,478.963 209.069,459.463 184.5,439.5C 154.868,409.368 125.035,379.368 95,349.5C 94.7679,348.263 94.2679,347.263 93.5,346.5C 94.6197,341.639 96.7864,337.306 100,333.5C 104.519,327.764 109.019,322.097 113.5,316.5 Z"/></g>
<g><path style="opacity:0.964" fill="#f8a413" d="M 215.5,333.5 C 235.116,354.783 255.449,375.45 276.5,395.5C 275.224,402.725 271.891,408.725 266.5,413.5C 263.94,409.43 260.773,405.764 257,402.5C 256.805,401.181 256.972,399.847 257.5,398.5C 261.744,391.283 260.744,384.783 254.5,379C 243.167,370.333 231.833,361.667 220.5,353C 215.722,350.339 210.722,349.839 205.5,351.5C 201.833,347.5 198.167,343.5 194.5,339.5C 200.575,334.702 207.575,332.702 215.5,333.5 Z"/></g>
<g><path style="opacity:0.96" fill="#f7a114" d="M 215.5,333.5 C 220.98,334.049 225.98,335.882 230.5,339C 244.457,349.233 257.957,360.066 271,371.5C 275.885,378.749 277.718,386.749 276.5,395.5C 255.449,375.45 235.116,354.783 215.5,333.5 Z"/></g>
<g><path style="opacity:0.955" fill="#fbc30e" d="M 93.5,346.5 C 94.2679,347.263 94.7679,348.263 95,349.5C 125.035,379.368 154.868,409.368 184.5,439.5C 161.047,422.261 137.714,404.761 114.5,387C 108.531,382.755 103.031,377.922 98,372.5C 92.9516,364.427 91.4516,355.76 93.5,346.5 Z"/></g>
<g><path style="opacity:0.963" fill="#f37d1a" d="M 404.5,333.5 C 409.324,336.979 412.99,341.313 415.5,346.5C 408.307,356.899 400.64,366.899 392.5,376.5C 388.441,372.435 384.107,368.768 379.5,365.5C 387.864,354.809 396.197,344.142 404.5,333.5 Z"/></g>
<g><path style="opacity:0.987" fill="#f9af12" d="M 194.5,339.5 C 198.167,343.5 201.833,347.5 205.5,351.5C 201.483,355.694 197.816,360.194 194.5,365C 212.724,379.931 231.391,393.931 250.5,407C 252.698,403.977 255.031,401.144 257.5,398.5C 256.972,399.847 256.805,401.181 257,402.5C 260.773,405.764 263.94,409.43 266.5,413.5C 263.77,418.404 260.436,422.904 256.5,427C 253.923,428.25 251.257,428.584 248.5,428C 223.715,409.55 199.215,390.716 175,371.5C 172.963,367.666 173.296,363.999 176,360.5C 180.576,355.013 184.909,349.347 189,343.5C 190.451,341.536 192.284,340.203 194.5,339.5 Z"/></g>
<g><path style="opacity:0.971" fill="#f48719" d="M 379.5,365.5 C 384.107,368.768 388.441,372.435 392.5,376.5C 387.85,383.145 382.85,389.478 377.5,395.5C 373.833,391.5 370.167,387.5 366.5,383.5C 370.809,377.518 375.142,371.518 379.5,365.5 Z"/></g>
<g><path style="opacity:0.961" fill="#f59117" d="M 366.5,383.5 C 370.167,387.5 373.833,391.5 377.5,395.5C 371.665,404.492 365.332,413.159 358.5,421.5C 354.167,417.833 350.167,413.833 346.5,409.5C 352.685,400.464 359.352,391.797 366.5,383.5 Z"/></g>
<g><path style="opacity:0.955" fill="#f69815" d="M 346.5,409.5 C 350.167,413.833 354.167,417.833 358.5,421.5C 354.156,426.873 349.823,432.206 345.5,437.5C 341.167,434.167 336.833,430.833 332.5,427.5C 336.815,421.19 341.482,415.19 346.5,409.5 Z"/></g>
<g><path style="opacity:0.964" fill="#f7a313" d="M 332.5,427.5 C 336.833,430.833 341.167,434.167 345.5,437.5C 338.593,448.075 330.926,458.075 322.5,467.5C 318.5,463.833 314.5,460.167 310.5,456.5C 317.108,446.286 324.441,436.619 332.5,427.5 Z"/></g>
<g><path style="opacity:0.961" fill="#fab810" d="M 214.5,441.5 C 233.672,456.501 253.006,471.334 272.5,486C 281.003,489.239 287.669,487.073 292.5,479.5C 296.806,483.14 300.806,487.14 304.5,491.5C 297.134,501.631 287.134,505.964 274.5,504.5C 274.631,503.761 274.464,503.094 274,502.5C 253.58,482.582 233.747,462.249 214.5,441.5 Z"/></g>
<g><path style="opacity:0.983" fill="#f9ae12" d="M 310.5,456.5 C 314.5,460.167 318.5,463.833 322.5,467.5C 316.853,475.807 310.853,483.807 304.5,491.5C 300.806,487.14 296.806,483.14 292.5,479.5C 297.787,471.25 303.787,463.584 310.5,456.5 Z"/></g>
</svg>
