<svg width="115" height="115" viewBox="0 0 115 115" fill="none" xmlns="http://www.w3.org/2000/svg">
<path d="M67.2652 0H47.7028C21.7825 0 0.752908 21.0425 0.508301 46.9788V48.2021C0.508301 50.8935 2.70908 53.0956 5.39884 53.0956H109.569C112.014 53.0956 114.215 50.8935 114.459 48.4466V47.2233C114.46 21.0425 93.1853 0 67.2652 0ZM10.534 43.5531C12.2458 24.4679 28.3848 9.54233 47.7026 9.54233H67.265C86.583 9.54233 102.722 24.4679 104.678 43.5531H10.534Z" fill="#FA6400"/>
<path d="M113.237 85.6383C112.259 84.4149 110.792 83.6809 109.324 83.6809H5.39885C3.93167 83.6809 2.46448 84.4149 1.48628 85.6383C0.508085 87.1064 0.263707 88.5745 0.752693 90.0425L3.68706 98.8511C6.86604 108.394 15.4245 115 25.2058 115H89.762C99.2987 115 108.102 108.394 111.281 98.8511L113.971 90.0425C114.46 88.5745 114.215 86.8618 113.237 85.6383ZM101.989 95.9149C100.032 101.542 95.1417 105.457 89.5176 105.457H25.2058C19.5817 105.457 14.4466 101.542 12.7348 95.9149L12.0012 93.2235H102.722L101.989 95.9149Z" fill="#FA6400"/>
<path d="M112.993 69.9789L103.701 63.3725C97.3428 58.7235 88.5397 58.7235 82.1818 63.3725L81.2036 64.1065C78.0246 66.3086 73.623 66.3086 70.6887 64.1065L68.7325 62.6384C62.3748 57.9894 53.5717 57.9894 47.2137 62.6384L44.2793 64.8406C41.1004 67.0427 36.6988 67.0427 33.7644 64.8406C27.8957 60.4363 19.5816 60.1915 13.2239 64.1065L2.46458 70.7129C0.0191981 72.181 -0.714394 75.1172 0.75279 77.3193C1.73099 78.7874 3.19795 79.5214 4.90974 79.5214C5.64333 79.5214 6.62153 79.2767 7.35512 78.7874L18.1144 72.181C21.2934 70.2236 25.4503 70.4681 28.1401 72.4258C34.4978 77.0748 43.3009 77.0748 49.6589 72.4258L52.5932 70.2236C55.7722 68.0215 60.1738 68.0215 63.1081 70.2236L65.0643 71.6917C71.422 76.3407 80.2251 76.3407 86.5831 71.6917L87.5613 70.9577C90.7403 68.7555 95.1418 68.7555 98.0762 70.9577L107.368 77.5641C109.324 79.2769 112.503 78.7874 113.971 76.5853C115.682 74.6279 115.193 71.447 112.993 69.9789Z" fill="#FA6400"/>
</svg>
