<svg width="187" height="239" viewBox="0 0 187 239" fill="none" xmlns="http://www.w3.org/2000/svg">
<ellipse opacity="0.3" cx="93.5" cy="148" rx="93.5" ry="91" fill="#FA6400"/>
<g clip-path="url(#clip0_108_38)" filter="url(#filter0_d_108_38)">
<path opacity="0.984" fill-rule="evenodd" clip-rule="evenodd" d="M132.37 44.4522C131.258 45.8816 129.827 46.3532 128.077 45.8672C123.393 43.0723 118.64 40.3995 113.818 37.8486C108.976 42.5 104.223 47.2692 99.5596 52.1563C115.558 61.3553 131.605 70.4744 147.702 79.5137C148.689 80.1284 149.712 80.5476 150.769 80.7715C155.424 76.0503 160.023 71.281 164.567 66.4639C159.189 63.3087 153.772 60.2166 148.315 57.1875C146.816 55.9855 146.407 54.4656 147.089 52.6279C148.351 51.3959 149.782 51.0291 151.382 51.5274C158.128 55.3008 164.874 59.0742 171.62 62.8477C172.102 63.287 172.511 63.7586 172.847 64.2627C172.847 65.2061 172.847 66.1494 172.847 67.0928C167.193 73.0479 161.469 78.9703 155.675 84.8594C161.469 90.7485 167.193 96.6709 172.847 102.626C172.847 103.569 172.847 104.513 172.847 105.456C172.172 106.512 171.252 107.298 170.087 107.814C164.749 110.682 159.485 113.669 154.295 116.776C154.193 127.887 154.09 138.998 153.988 150.108C153.748 150.67 153.39 151.142 152.915 151.523C134.517 161.9 116.118 172.277 97.7197 182.654C96.6637 183.301 95.5392 183.773 94.3467 184.069C93.1542 183.773 92.0297 183.301 90.9736 182.654C72.5752 172.277 54.1768 161.9 35.7783 151.523C35.3034 151.142 34.9456 150.67 34.7051 150.108C34.6029 138.998 34.5006 127.887 34.3984 116.776C29.2085 113.669 23.9444 110.682 18.6064 107.814C17.4411 107.298 16.5212 106.512 15.8467 105.456C15.8467 104.513 15.8467 103.569 15.8467 102.626C21.5005 96.6709 27.2244 90.7485 33.0186 84.8594C27.2244 78.9703 21.5005 73.0479 15.8467 67.0928C15.8467 66.1494 15.8467 65.2061 15.8467 64.2627C16.1829 63.7586 16.5917 63.287 17.0732 62.8477C36.085 52.1563 55.0967 41.4649 74.1084 30.7734C75.1304 30.5638 76.1528 30.5638 77.1748 30.7734C82.8519 36.6476 88.576 42.465 94.3467 48.2256C100.117 42.465 105.841 36.6476 111.519 30.7734C112.783 30.505 114.01 30.6098 115.198 31.0879C120.362 34.1026 125.575 37.0375 130.837 39.8926C132.527 40.9992 133.038 42.5191 132.37 44.4522Z" fill="#020100"/>
<path fill-rule="evenodd" clip-rule="evenodd" d="M74.4151 37.8486C74.7376 37.8016 75.0443 37.854 75.335 38.0058C79.9346 42.7226 84.5342 47.4394 89.1338 52.1562C72.2155 61.8269 55.2482 71.4177 38.2315 80.9287C33.5339 76.2688 28.8832 71.552 24.2793 66.7783C24.0684 66.5166 24.1196 66.3072 24.4326 66.1494C41.1618 56.7868 57.8227 47.3532 74.4151 37.8486Z" fill="#FCD89A"/>
<path opacity="0.998" fill-rule="evenodd" clip-rule="evenodd" d="M132.37 44.4521C133.936 45.4271 135.571 46.2657 137.276 46.9678C136.42 50.8364 137.85 52.3563 141.569 51.5273C141.939 51.0948 142.348 50.7279 142.796 50.4268C144.219 51.1563 145.65 51.89 147.089 52.6279C146.407 54.4656 146.816 55.9855 148.315 57.1875C153.772 60.2166 159.189 63.3086 164.567 66.4639C160.023 71.281 155.424 76.0503 150.769 80.7715C149.712 80.5476 148.689 80.1284 147.702 79.5137C131.605 70.4744 115.558 61.3553 99.5596 52.1562C104.223 47.2691 108.976 42.5 113.818 37.8486C118.64 40.3994 123.393 43.0723 128.077 45.8672C129.827 46.3532 131.258 45.8816 132.37 44.4521Z" fill="#FCD89A"/>
<path opacity="0.937" fill-rule="evenodd" clip-rule="evenodd" d="M142.796 50.4268C142.348 50.728 141.939 51.0948 141.569 51.5274C137.85 52.3563 136.42 50.8365 137.276 46.9678C138.582 45.6228 140.116 45.3608 141.876 46.1817C143.09 47.3849 143.397 48.8 142.796 50.4268Z" fill="#040302"/>
<path fill-rule="evenodd" clip-rule="evenodd" d="M93.7334 56.7158C94.6303 56.7031 95.4478 56.9652 96.1865 57.5019C112.336 66.621 128.486 75.7402 144.636 84.8593C127.813 94.4784 110.948 103.912 94.04 113.16C77.33 103.806 60.6693 94.3728 44.0576 84.8593C60.6846 75.549 77.2432 66.1679 93.7334 56.7158Z" fill="#FD9F2B"/>
<path fill-rule="evenodd" clip-rule="evenodd" d="M37.9248 88.79C54.9247 98.1884 71.8923 107.675 88.8272 117.248C89.1188 117.474 89.1697 117.736 88.9805 118.034C84.3766 122.808 79.7258 127.525 75.0283 132.185C58.1631 122.698 41.2979 113.213 24.4326 103.727C24.1411 103.501 24.0901 103.239 24.2793 102.94C28.8897 98.2651 33.4382 93.5483 37.9248 88.79Z" fill="#FCD899"/>
<path fill-rule="evenodd" clip-rule="evenodd" d="M150.155 88.79C155.035 93.3219 159.788 98.0387 164.414 102.94C164.441 103.448 164.186 103.815 163.647 104.041C146.948 113.359 130.287 122.74 113.665 132.185C108.968 127.525 104.317 122.808 99.7129 118.034C99.5237 117.736 99.5746 117.474 99.8662 117.248C116.698 107.833 133.461 98.3469 150.155 88.79Z" fill="#FCD899"/>
<path fill-rule="evenodd" clip-rule="evenodd" d="M94.3467 121.493C94.3467 124.219 94.3467 126.944 94.3467 129.669C91.7335 130.207 90.8648 131.779 91.7402 134.386C92.3624 135.359 93.2311 135.883 94.3467 135.958C94.3467 137.321 94.3467 138.683 94.3467 140.046C92.8656 140.254 91.8945 141.092 91.4336 142.562C91.3824 153.464 91.2291 164.365 90.9736 175.265C74.3129 165.884 57.6519 156.502 40.9912 147.121C40.635 138.077 40.5839 129.01 40.8379 119.921C51.9564 126.382 63.1488 132.724 74.415 138.945C75.2328 139.155 76.0503 139.155 76.8682 138.945C82.7474 133.178 88.5735 127.361 94.3467 121.493Z" fill="#FEC56B"/>
<path fill-rule="evenodd" clip-rule="evenodd" d="M94.3467 140.046C94.3467 138.683 94.3467 137.321 94.3467 135.958C97.9102 134.615 98.3192 132.571 95.5732 129.826C95.1768 129.672 94.7677 129.62 94.3467 129.669C94.3467 126.944 94.3467 124.219 94.3467 121.493C100.12 127.361 105.946 133.178 111.825 138.945C112.876 139.166 113.899 139.061 114.892 138.631C125.855 132.354 136.843 126.118 147.855 119.921C148.109 129.01 148.058 138.077 147.702 147.121C131.041 156.502 114.38 165.884 97.7197 175.265C97.4643 164.365 97.311 153.464 97.2598 142.562C96.7989 141.092 95.8278 140.254 94.3467 140.046Z" fill="#FEB853"/>
<path fill-rule="evenodd" clip-rule="evenodd" d="M94.3467 129.669C94.7677 129.62 95.1768 129.672 95.5732 129.826C98.3192 132.571 97.9102 134.615 94.3467 135.958C93.2311 135.883 92.3624 135.359 91.7402 134.386C90.8648 131.779 91.7335 130.207 94.3467 129.669Z" fill="#0B0703"/>
</g>
<path d="M162.381 8.11133C160.62 7.61501 158.77 7.56161 157.015 7.95651C155.261 8.35141 153.666 9.18063 152.39 10.3604C151.968 8.67522 151.085 7.10857 149.833 5.81871C148.58 4.52884 147.001 3.56144 145.256 3.01419C142.427 2.29579 139.455 2.65376 136.987 4.0099C134.519 5.36604 132.757 7.6101 132.086 10.2518C130.118 16.8625 135.42 26.3 140.212 33.055C141.282 34.5653 142.867 35.6906 144.69 36.2331C146.512 36.7755 148.455 36.7003 150.176 36.0207C157.882 32.9856 167.482 27.9835 169.45 21.3729C170.332 18.7939 170.084 15.9515 168.76 13.4667C167.435 10.9818 165.142 9.05651 162.381 8.11133Z" fill="#FF534A"/>
<defs>
<filter id="filter0_d_108_38" x="12" y="27" width="165" height="169" filterUnits="userSpaceOnUse" color-interpolation-filters="sRGB">
<feFlood flood-opacity="0" result="BackgroundImageFix"/>
<feColorMatrix in="SourceAlpha" type="matrix" values="0 0 0 0 0 0 0 0 0 0 0 0 0 0 0 0 0 0 127 0" result="hardAlpha"/>
<feOffset dy="4"/>
<feGaussianBlur stdDeviation="2"/>
<feComposite in2="hardAlpha" operator="out"/>
<feColorMatrix type="matrix" values="0 0 0 0 0 0 0 0 0 0 0 0 0 0 0 0 0 0 0.25 0"/>
<feBlend mode="normal" in2="BackgroundImageFix" result="effect1_dropShadow_108_38"/>
<feBlend mode="normal" in="SourceGraphic" in2="effect1_dropShadow_108_38" result="shape"/>
</filter>
<clipPath id="clip0_108_38">
<rect width="157" height="161" fill="white" transform="translate(16 27)"/>
</clipPath>
</defs>
</svg>
