<?xml version="1.0" encoding="UTF-8"?>
<!DOCTYPE svg PUBLIC "-//W3C//DTD SVG 1.1//EN" "http://www.w3.org/Graphics/SVG/1.1/DTD/svg11.dtd">
<svg xmlns="http://www.w3.org/2000/svg" version="1.1" width="512px" height="512px" style="shape-rendering:geometricPrecision; text-rendering:geometricPrecision; image-rendering:optimizeQuality; fill-rule:evenodd; clip-rule:evenodd" xmlns:xlink="http://www.w3.org/1999/xlink">
<g><path style="opacity:0.995" fill="#3b5998" d="M 233.5,-0.5 C 248.167,-0.5 262.833,-0.5 277.5,-0.5C 377.805,11.9821 449.305,63.9821 492,155.5C 502.297,180.687 508.797,206.687 511.5,233.5C 511.5,248.167 511.5,262.833 511.5,277.5C 499.018,377.805 447.018,449.305 355.5,492C 330.313,502.297 304.313,508.797 277.5,511.5C 262.833,511.5 248.167,511.5 233.5,511.5C 133.195,499.018 61.6947,447.018 19,355.5C 8.70332,330.313 2.20332,304.313 -0.5,277.5C -0.5,262.833 -0.5,248.167 -0.5,233.5C 11.9821,133.195 63.9821,61.6947 155.5,19C 180.687,8.70332 206.687,2.20332 233.5,-0.5 Z"/></g>
<g><path style="opacity:1" fill="#fefefe" d="M 264.5,99.5 C 284.833,99.5 305.167,99.5 325.5,99.5C 325.5,118.167 325.5,136.833 325.5,155.5C 312.656,155.171 299.989,155.505 287.5,156.5C 281.31,156.679 277.143,159.679 275,165.5C 274.5,179.163 274.333,192.829 274.5,206.5C 291.5,206.5 308.5,206.5 325.5,206.5C 323.739,226.162 322.072,245.829 320.5,265.5C 305.167,265.5 289.833,265.5 274.5,265.5C 273.501,320.998 273.168,376.664 273.5,432.5C 250.833,432.5 228.167,432.5 205.5,432.5C 205.832,376.664 205.499,320.998 204.5,265.5C 193.833,265.5 183.167,265.5 172.5,265.5C 172.5,245.833 172.5,226.167 172.5,206.5C 183.167,206.5 193.833,206.5 204.5,206.5C 204.122,189.132 204.622,171.799 206,154.5C 212.151,121.846 231.651,103.513 264.5,99.5 Z"/></g>
<g><path style="opacity:1" fill="#abb8d3" d="M 264.5,99.5 C 284.993,98.5028 305.66,98.1695 326.5,98.5C 326.5,117.833 326.5,137.167 326.5,156.5C 313.5,156.5 300.5,156.5 287.5,156.5C 299.989,155.505 312.656,155.171 325.5,155.5C 325.5,136.833 325.5,118.167 325.5,99.5C 305.167,99.5 284.833,99.5 264.5,99.5 Z"/></g>
<g><path style="opacity:1" fill="#9fadcc" d="M 204.5,265.5 C 205.499,320.998 205.832,376.664 205.5,432.5C 228.167,432.5 250.833,432.5 273.5,432.5C 273.168,376.664 273.501,320.998 274.5,265.5C 274.5,321.5 274.5,377.5 274.5,433.5C 251.167,433.5 227.833,433.5 204.5,433.5C 204.5,377.5 204.5,321.5 204.5,265.5 Z"/></g>
</svg>
