<?xml version="1.0" encoding="UTF-8"?>
<!DOCTYPE svg PUBLIC "-//W3C//DTD SVG 1.1//EN" "http://www.w3.org/Graphics/SVG/1.1/DTD/svg11.dtd">
<svg xmlns="http://www.w3.org/2000/svg" version="1.1" width="512px" height="512px" style="shape-rendering:geometricPrecision; text-rendering:geometricPrecision; image-rendering:optimizeQuality; fill-rule:evenodd; clip-rule:evenodd" xmlns:xlink="http://www.w3.org/1999/xlink">
<g><path style="opacity:0.99" fill="#010100" d="M 83.5,47.5 C 102.926,47.0249 122.259,47.5249 141.5,49C 142.126,49.7504 142.626,50.5838 143,51.5C 143.5,63.4954 143.667,75.4954 143.5,87.5C 154.167,87.5 164.833,87.5 175.5,87.5C 175.039,74.7335 175.539,62.0668 177,49.5C 177.75,48.8742 178.584,48.3742 179.5,48C 198.167,47.3333 216.833,47.3333 235.5,48C 238.094,49.339 239.594,51.5056 240,54.5C 240.5,65.495 240.667,76.495 240.5,87.5C 254.837,87.3334 269.171,87.5001 283.5,88C 284.416,88.3742 285.25,88.8742 286,89.5C 287.48,112.743 287.98,136.076 287.5,159.5C 291.514,159.334 295.514,159.501 299.5,160C 302.92,162.153 304.253,165.319 303.5,169.5C 303.331,172.533 302.998,175.533 302.5,178.5C 330.593,174.084 358.593,174.584 386.5,180C 442.899,195.943 474.065,233.11 480,291.5C 495.017,302.216 499.35,316.216 493,333.5C 490.404,337.931 487.238,341.931 483.5,345.5C 486.649,349.616 487.982,354.283 487.5,359.5C 487.982,364.717 486.649,369.384 483.5,373.5C 497.29,386.863 499.457,401.863 490,418.5C 486.965,421.87 483.632,424.87 480,427.5C 476.458,446.041 465.624,457.875 447.5,463C 322.5,463.667 197.5,463.667 72.5,463C 62.2503,459.028 56.417,451.528 55,440.5C 42,352.167 29,263.833 16,175.5C 12.38,162.382 17.2133,157.049 30.5,159.5C 30.3334,137.831 30.5,116.164 31,94.5C 31.4057,91.5056 32.9057,89.339 35.5,88C 49.8295,87.5001 64.1628,87.3334 78.5,87.5C 78.3335,76.495 78.5002,65.495 79,54.5C 79.5303,51.415 81.0303,49.0817 83.5,47.5 Z"/></g>
<g><path style="opacity:1" fill="#fbb75f" d="M 95.5,63.5 C 106.167,63.5 116.833,63.5 127.5,63.5C 127.833,114.171 127.5,164.838 126.5,215.5C 110.402,204.673 100.236,189.673 96,170.5C 95.5,134.835 95.3333,99.1682 95.5,63.5 Z"/></g>
<g><path style="opacity:1" fill="#fbb75f" d="M 182.5,183.5 C 183.449,178.26 183.782,172.927 183.5,167.5C 190.065,166.096 192.731,161.929 191.5,155C 192.648,147.762 189.648,143.928 182.5,143.5C 183.449,138.26 183.782,132.927 183.5,127.5C 187.637,127.518 190.137,125.518 191,121.5C 191.5,102.17 191.667,82.8362 191.5,63.5C 202.167,63.5 212.833,63.5 223.5,63.5C 223.667,99.1682 223.5,134.835 223,170.5C 218.764,189.673 208.598,204.673 192.5,215.5C 191.668,206.518 191.168,197.518 191,188.5C 189.326,184.911 186.493,183.245 182.5,183.5 Z"/></g>
<g><path style="opacity:1" fill="#faaf4e" d="M 47.5,103.5 C 58.1667,103.5 68.8333,103.5 79.5,103.5C 79.5,122.167 79.5,140.833 79.5,159.5C 68.8333,159.5 58.1667,159.5 47.5,159.5C 47.5,140.833 47.5,122.167 47.5,103.5 Z"/></g>
<g><path style="opacity:1" fill="#faaf4e" d="M 183.5,127.5 C 183.782,132.927 183.449,138.26 182.5,143.5C 176.77,145.108 174.437,148.941 175.5,155C 175.493,158.258 175.993,161.425 177,164.5C 178.734,166.451 180.901,167.451 183.5,167.5C 183.782,172.927 183.449,178.26 182.5,183.5C 179.325,183.84 177.159,185.507 176,188.5C 175.5,199.828 175.333,211.162 175.5,222.5C 164.828,223.767 154.161,223.767 143.5,222.5C 143.5,182.833 143.5,143.167 143.5,103.5C 154.167,103.5 164.833,103.5 175.5,103.5C 175.116,110.589 175.616,117.589 177,124.5C 178.734,126.451 180.901,127.451 183.5,127.5 Z"/></g>
<g><path style="opacity:1" fill="#faaf4e" d="M 239.5,103.5 C 250.167,103.5 260.833,103.5 271.5,103.5C 271.5,122.167 271.5,140.833 271.5,159.5C 260.833,159.5 250.167,159.5 239.5,159.5C 239.5,140.833 239.5,122.167 239.5,103.5 Z"/></g>
<g><path style="opacity:1" fill="#060401" d="M 182.5,143.5 C 189.648,143.928 192.648,147.762 191.5,155C 192.731,161.929 190.065,166.096 183.5,167.5C 180.901,167.451 178.734,166.451 177,164.5C 175.993,161.425 175.493,158.258 175.5,155C 174.437,148.941 176.77,145.108 182.5,143.5 Z"/></g>
<g><path style="opacity:1" fill="#fa5f66" d="M 33.5,175.5 C 49.5,175.5 65.5,175.5 81.5,175.5C 91.3318,215.338 116.665,236.671 157.5,239.5C 200.48,238.517 227.147,217.183 237.5,175.5C 253.5,175.5 269.5,175.5 285.5,175.5C 285.784,178.777 285.451,181.943 284.5,185C 243.775,201.063 218.942,230.563 210,273.5C 209.232,278.846 208.399,284.179 207.5,289.5C 178.473,267.424 148.473,265.924 117.5,285C 88.5372,308.789 80.7039,338.289 94,373.5C 109.669,403.588 134.502,417.422 168.5,415C 176.797,413.229 184.797,410.896 192.5,408C 195.417,416.254 200.583,422.754 208,427.5C 209.033,434.434 211.533,440.768 215.5,446.5C 169.17,447.667 122.837,447.833 76.5,447C 74.6667,446.5 73.5,445.333 73,443.5C 58.9513,354.327 45.7846,264.993 33.5,175.5 Z"/></g>
<g><path style="opacity:1" fill="#fbb75f" d="M 403.5,203.5 C 422.455,219.79 435.621,240.457 443,265.5C 445.049,272.673 446.215,280.006 446.5,287.5C 372.5,287.5 298.5,287.5 224.5,287.5C 231.018,236.482 259.352,205.316 309.5,194C 332.543,190.564 355.543,190.897 378.5,195C 387.228,196.964 395.562,199.798 403.5,203.5 Z"/></g>
<g><path style="opacity:1" fill="#f7ad4d" d="M 403.5,203.5 C 434.221,218.076 453.388,242.076 461,275.5C 462.015,279.44 462.515,283.44 462.5,287.5C 457.167,287.5 451.833,287.5 446.5,287.5C 446.215,280.006 445.049,272.673 443,265.5C 435.621,240.457 422.455,219.79 403.5,203.5 Z"/></g>
<g><path style="opacity:1" fill="#0d0904" d="M 308.5,215.5 C 319.167,216.003 321.833,220.836 316.5,230C 307.42,233.215 303.253,230.048 304,220.5C 305.025,218.313 306.525,216.646 308.5,215.5 Z"/></g>
<g><path style="opacity:1" fill="#0d0904" d="M 372.5,215.5 C 383.167,216.003 385.833,220.836 380.5,230C 371.42,233.215 367.253,230.048 368,220.5C 369.025,218.313 370.525,216.646 372.5,215.5 Z"/></g>
<g><path style="opacity:1" fill="#0d0904" d="M 276.5,247.5 C 287.167,248.003 289.833,252.836 284.5,262C 275.42,265.215 271.253,262.048 272,252.5C 273.025,250.313 274.525,248.646 276.5,247.5 Z"/></g>
<g><path style="opacity:1" fill="#0d0904" d="M 340.5,247.5 C 351.167,248.003 353.833,252.836 348.5,262C 339.42,265.215 335.253,262.048 336,252.5C 337.025,250.313 338.525,248.646 340.5,247.5 Z"/></g>
<g><path style="opacity:1" fill="#0d0904" d="M 404.5,247.5 C 415.167,248.003 417.833,252.836 412.5,262C 403.42,265.215 399.253,262.048 400,252.5C 401.025,250.313 402.525,248.646 404.5,247.5 Z"/></g>
<g><path style="opacity:1" fill="#e5e9ed" d="M 150.5,287.5 C 164.36,286.476 177.36,289.309 189.5,296C 192.311,297.644 194.644,299.81 196.5,302.5C 188.093,318.711 190.759,332.878 204.5,345C 198.187,354.116 197.853,363.45 203.5,373C 199.428,378.069 195.761,383.402 192.5,389C 162.764,406.514 136.597,402.348 114,376.5C 97.8729,349.706 100.373,324.873 121.5,302C 130.169,294.999 139.836,290.165 150.5,287.5 Z"/></g>
<g><path style="opacity:1" fill="#b17f50" d="M 218.5,303.5 C 227.506,303.334 236.506,303.5 245.5,304C 261.167,314.333 276.833,324.667 292.5,335C 267.833,335.667 243.167,335.667 218.5,335C 207.569,329.638 204.735,321.472 210,310.5C 212.441,307.546 215.275,305.213 218.5,303.5 Z"/></g>
<g><path style="opacity:1" fill="#f6ef64" d="M 393.5,303.5 C 373.833,316.833 354.167,330.167 334.5,343.5C 314.382,330.556 294.382,317.389 274.5,304C 314.165,303.5 353.832,303.333 393.5,303.5 Z"/></g>
<g><path style="opacity:1" fill="#f1e941" d="M 393.5,303.5 C 399.842,303.334 406.175,303.5 412.5,304C 389.5,319.167 366.5,334.333 343.5,349.5C 340.262,347.725 337.262,345.725 334.5,343.5C 354.167,330.167 373.833,316.833 393.5,303.5 Z"/></g>
<g><path style="opacity:1" fill="#af7d4e" d="M 441.5,303.5 C 450.506,303.334 459.506,303.5 468.5,304C 479.431,309.362 482.265,317.528 477,328.5C 474.512,332.325 471.012,334.492 466.5,335C 442.5,335.667 418.5,335.667 394.5,335C 410.344,324.637 426.01,314.137 441.5,303.5 Z"/></g>
<g><path style="opacity:1" fill="#f95f66" d="M 220.5,351.5 C 252.835,351.333 285.168,351.5 317.5,352C 325.167,357 332.833,362 340.5,367C 300.5,367.667 260.5,367.667 220.5,367C 215.465,363.987 214.298,359.82 217,354.5C 218.145,353.364 219.312,352.364 220.5,351.5 Z"/></g>
<g><path style="opacity:1" fill="#f95d64" d="M 369.5,351.5 C 401.835,351.333 434.168,351.5 466.5,352C 471.535,355.013 472.702,359.18 470,364.5C 469.097,365.701 467.931,366.535 466.5,367C 426.167,367.667 385.833,367.667 345.5,367C 353.923,362.395 361.923,357.228 369.5,351.5 Z"/></g>
<g><path style="opacity:1" fill="#58e589" d="M 459.5,383.5 C 464.746,393.648 464.746,403.814 459.5,414C 462.482,414.498 465.482,414.665 468.5,414.5C 465.36,415.641 462.027,415.808 458.5,415C 450.328,410.08 441.995,405.413 433.5,401C 426.802,399.176 420.136,399.176 413.5,401C 405.671,405.08 398.004,409.413 390.5,414C 386.572,415.325 382.572,415.658 378.5,415C 370.328,410.08 361.995,405.413 353.5,401C 346.802,399.176 340.136,399.176 333.5,401C 325.671,405.08 318.004,409.413 310.5,414C 306.572,415.325 302.572,415.658 298.5,415C 290.328,410.08 281.995,405.413 273.5,401C 266.802,399.176 260.136,399.176 253.5,401C 245.671,405.08 238.004,409.413 230.5,414C 220.144,417.572 212.644,414.405 208,404.5C 206.064,394.871 209.564,388.038 218.5,384C 298.833,383.5 379.166,383.333 459.5,383.5 Z"/></g>
<g><path style="opacity:1" fill="#40df78" d="M 459.5,383.5 C 473.801,383.3 480.301,390.3 479,404.5C 476.925,409.41 473.425,412.743 468.5,414.5C 465.482,414.665 462.482,414.498 459.5,414C 464.746,403.814 464.746,393.648 459.5,383.5 Z"/></g>
<g><path style="opacity:1" fill="#f9b65e" d="M 258.5,415.5 C 262.582,415.344 266.582,415.844 270.5,417C 277.167,421 283.833,425 290.5,429C 299.924,432.358 309.257,432.024 318.5,428C 323.435,425.394 328.102,422.394 332.5,419C 338.137,415.212 344.137,414.546 350.5,417C 358.593,422.713 367.259,427.38 376.5,431C 390.253,432.193 402.253,428.193 412.5,419C 418.137,415.212 424.137,414.546 430.5,417C 440.012,423.756 450.346,428.923 461.5,432.5C 457.858,439.662 452.192,444.495 444.5,447C 377.167,447.667 309.833,447.667 242.5,447C 234.522,444.527 228.855,439.527 225.5,432C 237.667,428.583 248.667,423.083 258.5,415.5 Z"/></g>
</svg>
