<?xml version="1.0" encoding="UTF-8"?>
<!DOCTYPE svg PUBLIC "-//W3C//DTD SVG 1.1//EN" "http://www.w3.org/Graphics/SVG/1.1/DTD/svg11.dtd">
<svg xmlns="http://www.w3.org/2000/svg" version="1.1" width="512px" height="512px" style="shape-rendering:geometricPrecision; text-rendering:geometricPrecision; image-rendering:optimizeQuality; fill-rule:evenodd; clip-rule:evenodd" xmlns:xlink="http://www.w3.org/1999/xlink">
<g><path style="opacity:0.961" fill="#000000" d="M 511.5,162.5 C 511.5,174.833 511.5,187.167 511.5,199.5C 506.579,233.415 493.746,264.082 473,291.5C 452.455,317.368 429.955,341.535 405.5,364C 363.353,400.903 321.02,437.57 278.5,474C 263.167,486.667 247.833,486.667 232.5,474C 189.98,437.57 147.647,400.903 105.5,364C 81.0448,341.535 58.5448,317.368 38,291.5C 17.254,264.082 4.42062,233.415 -0.5,199.5C -0.5,187.167 -0.5,174.833 -0.5,162.5C 5.35318,113.275 28.6865,74.7752 69.5,47C 110.119,24.4263 152.119,21.4263 195.5,38C 219.581,49.5829 239.581,66.0829 255.5,87.5C 297.674,32.5295 352.007,15.3628 418.5,36C 458.881,52.7145 486.714,81.5478 502,122.5C 506.27,135.71 509.437,149.044 511.5,162.5 Z M 128.5,58.5 C 162.605,55.255 191.772,65.5884 216,89.5C 225.931,100.762 235.098,112.595 243.5,125C 251.5,129.667 259.5,129.667 267.5,125C 275.902,112.595 285.069,100.762 295,89.5C 329.28,57.3111 368.447,49.8111 412.5,67C 452.428,87.6318 474.928,120.465 480,165.5C 482.792,192.084 478.458,217.417 467,241.5C 456.464,261.913 443.464,280.579 428,297.5C 414.221,311.279 400.387,325.113 386.5,339C 343.206,376.973 299.539,414.473 255.5,451.5C 201.782,407.031 149.282,361.031 98,313.5C 78.9189,293.979 62.2522,272.645 48,249.5C 27.3037,209.568 24.9703,168.568 41,126.5C 58.1365,88.1804 87.3032,65.5138 128.5,58.5 Z"/></g>
</svg>
