<?xml version="1.0" encoding="UTF-8"?>
<!DOCTYPE svg PUBLIC "-//W3C//DTD SVG 1.1//EN" "http://www.w3.org/Graphics/SVG/1.1/DTD/svg11.dtd">
<svg xmlns="http://www.w3.org/2000/svg" version="1.1" width="512px" height="512px" style="shape-rendering:geometricPrecision; text-rendering:geometricPrecision; image-rendering:optimizeQuality; fill-rule:evenodd; clip-rule:evenodd" xmlns:xlink="http://www.w3.org/1999/xlink">
<g><path style="opacity:0.984" fill="#000000" d="M 286.5,8.5 C 296.3,6.5592 302.3,10.3925 304.5,20C 296.381,79.4484 288.381,138.948 280.5,198.5C 324.835,198.333 369.168,198.5 413.5,199C 421.959,201.415 425.126,206.915 423,215.5C 353.887,310.947 284.387,406.114 214.5,501C 203.634,505.07 196.968,501.57 194.5,490.5C 206.093,431.535 217.426,372.535 228.5,313.5C 185.499,313.667 142.499,313.5 99.5,313C 89.8148,311.64 85.9814,306.14 88,296.5C 152,202.5 216,108.5 280,14.5C 282.063,12.2659 284.229,10.2659 286.5,8.5 Z"/></g>
</svg>
