<?xml version="1.0" encoding="UTF-8"?>
<!DOCTYPE svg PUBLIC "-//W3C//DTD SVG 1.1//EN" "http://www.w3.org/Graphics/SVG/1.1/DTD/svg11.dtd">
<svg xmlns="http://www.w3.org/2000/svg" version="1.1" width="512px" height="512px" style="shape-rendering:geometricPrecision; text-rendering:geometricPrecision; image-rendering:optimizeQuality; fill-rule:evenodd; clip-rule:evenodd" xmlns:xlink="http://www.w3.org/1999/xlink">
<g><path style="opacity:1" fill="#c42529" d="M 107.5,91.5 C 108.659,93.2503 110.326,94.2503 112.5,94.5C 115.704,95.3833 118.371,97.0499 120.5,99.5C 127.933,107.028 132.766,116.028 135,126.5C 135.5,159.165 135.667,191.832 135.5,224.5C 135.5,225.5 135.5,226.5 135.5,227.5C 109.656,209.164 83.6562,190.997 57.5,173C 47.9938,164.809 41.9938,154.642 39.5,142.5C 39.3339,136.824 39.5006,131.157 40,125.5C 40.838,121.14 42.338,117.14 44.5,113.5C 45.9063,113.027 46.573,112.027 46.5,110.5C 46.427,108.973 47.0937,107.973 48.5,107.5C 50.2624,106.738 51.2624,105.404 51.5,103.5C 51.8333,102.5 52.5,101.833 53.5,101.5C 56.0892,100.581 58.0892,98.914 59.5,96.5C 59.9731,95.0937 60.9731,94.427 62.5,94.5C 64.0269,94.573 65.0269,93.9063 65.5,92.5C 67.3797,92.7709 68.713,92.1042 69.5,90.5C 78.5798,87.61 87.9131,86.7767 97.5,88C 101.109,88.7013 104.442,89.8679 107.5,91.5 Z"/></g>
<g><path style="opacity:1" fill="#fdb900" d="M 445.5,92.5 C 445.973,93.9063 446.973,94.573 448.5,94.5C 452.704,96.0332 456.037,98.6998 458.5,102.5C 459.08,104.749 460.413,106.415 462.5,107.5C 463.906,107.973 464.573,108.973 464.5,110.5C 464.427,112.027 465.094,113.027 466.5,113.5C 468.662,117.14 470.162,121.14 471,125.5C 471.499,131.157 471.666,136.824 471.5,142.5C 468.914,155.158 462.581,165.658 452.5,174C 426.677,191.664 401.011,209.497 375.5,227.5C 375.333,193.832 375.5,160.165 376,126.5C 378.208,115.064 383.708,105.73 392.5,98.5C 404.339,88.6223 418.006,85.1223 433.5,88C 437.86,88.838 441.86,90.338 445.5,92.5 Z"/></g>
<g><path style="opacity:0.416" fill="#8065b8" d="M 69.5,90.5 C 68.713,92.1042 67.3797,92.7709 65.5,92.5C 66.5137,91.3263 67.847,90.6596 69.5,90.5 Z"/></g>
<g><path style="opacity:0.643" fill="#8f5d9e" d="M 107.5,91.5 C 109.674,91.7497 111.341,92.7497 112.5,94.5C 110.326,94.2503 108.659,93.2503 107.5,91.5 Z"/></g>
<g><path style="opacity:0.933" fill="#8b5591" d="M 65.5,92.5 C 65.0269,93.9063 64.0269,94.573 62.5,94.5C 62.9731,93.0937 63.9731,92.427 65.5,92.5 Z"/></g>
<g><path style="opacity:0.329" fill="#6eb133" d="M 445.5,92.5 C 447.027,92.427 448.027,93.0937 448.5,94.5C 446.973,94.573 445.973,93.9063 445.5,92.5 Z"/></g>
<g><path style="opacity:0.996" fill="#a2496d" d="M 59.5,96.5 C 58.0892,98.914 56.0892,100.581 53.5,101.5C 54.9108,99.086 56.9108,97.4194 59.5,96.5 Z"/></g>
<g><path style="opacity:0.993" fill="#ea4434" d="M 392.5,98.5 C 383.708,105.73 378.208,115.064 376,126.5C 375.5,160.165 375.333,193.832 375.5,227.5C 375.5,227.833 375.5,228.167 375.5,228.5C 338.812,254.351 301.979,280.018 265,305.5C 221.878,278.359 178.711,251.359 135.5,224.5C 135.667,191.832 135.5,159.165 135,126.5C 132.766,116.028 127.933,107.028 120.5,99.5C 167.711,129.026 214.878,158.693 262,188.5C 305.388,158.269 348.888,128.269 392.5,98.5 Z"/></g>
<g><path style="opacity:0.98" fill="#905990" d="M 51.5,103.5 C 51.2624,105.404 50.2624,106.738 48.5,107.5C 48.7376,105.596 49.7376,104.262 51.5,103.5 Z"/></g>
<g><path style="opacity:0.922" fill="#90b42a" d="M 458.5,102.5 C 460.587,103.585 461.92,105.251 462.5,107.5C 460.413,106.415 459.08,104.749 458.5,102.5 Z"/></g>
<g><path style="opacity:0.518" fill="#8260a6" d="M 46.5,110.5 C 46.573,112.027 45.9063,113.027 44.5,113.5C 44.427,111.973 45.0937,110.973 46.5,110.5 Z"/></g>
<g><path style="opacity:0.502" fill="#73b232" d="M 464.5,110.5 C 465.906,110.973 466.573,111.973 466.5,113.5C 465.094,113.027 464.427,112.027 464.5,110.5 Z"/></g>
<g><path style="opacity:0.999" fill="#01ac46" d="M 471.5,142.5 C 471.667,228.167 471.5,313.834 471,399.5C 467.833,412 460,419.833 447.5,423C 423.502,423.5 399.502,423.667 375.5,423.5C 375.5,358.5 375.5,293.5 375.5,228.5C 375.5,228.167 375.5,227.833 375.5,227.5C 401.011,209.497 426.677,191.664 452.5,174C 462.581,165.658 468.914,155.158 471.5,142.5 Z"/></g>
<g><path style="opacity:0.999" fill="#4284f3" d="M 39.5,142.5 C 41.9938,154.642 47.9938,164.809 57.5,173C 83.6562,190.997 109.656,209.164 135.5,227.5C 135.5,292.833 135.5,358.167 135.5,423.5C 111.498,423.667 87.4977,423.5 63.5,423C 51,419.833 43.1667,412 40,399.5C 39.5,313.834 39.3333,228.167 39.5,142.5 Z"/></g>
</svg>
