<svg width="22" height="19" viewBox="0 0 22 19" fill="none" xmlns="http://www.w3.org/2000/svg">
<path d="M16.0396 0C15.0078 0.0157747 13.9985 0.298881 13.1137 0.82073C12.2288 1.34258 11.4997 2.08469 11 2.97212C10.5003 2.08469 9.77118 1.34258 8.88632 0.82073C8.00146 0.298881 6.99216 0.0157747 5.96037 0C4.31556 0.0702418 2.76589 0.777484 1.64991 1.96721C0.533927 3.15695 -0.0576437 4.73245 0.00443589 6.34954C0.00443589 10.4448 4.38983 14.9174 8.06785 17.9498C8.88905 18.6281 9.92734 19 11 19C12.0727 19 13.1109 18.6281 13.9322 17.9498C17.6102 14.9174 21.9956 10.4448 21.9956 6.34954C22.0576 4.73245 21.4661 3.15695 20.3501 1.96721C19.2341 0.777484 17.6844 0.0702418 16.0396 0Z" fill="#FF534A"/>
</svg>
