<?xml version="1.0" encoding="UTF-8"?>
<!DOCTYPE svg PUBLIC "-//W3C//DTD SVG 1.1//EN" "http://www.w3.org/Graphics/SVG/1.1/DTD/svg11.dtd">
<svg xmlns="http://www.w3.org/2000/svg" version="1.1" width="512px" height="512px" style="shape-rendering:geometricPrecision; text-rendering:geometricPrecision; image-rendering:optimizeQuality; fill-rule:evenodd; clip-rule:evenodd" xmlns:xlink="http://www.w3.org/1999/xlink">
<g><path style="opacity:0.964" fill="#000000" d="M 253.5,30.5 C 257.769,30.7339 261.769,31.9006 265.5,34C 336,104.5 406.5,175 477,245.5C 483.189,259.789 478.689,268.789 463.5,272.5C 459.946,271.945 456.613,270.779 453.5,269C 387.653,202.986 321.653,137.153 255.5,71.5C 189.347,137.153 123.347,202.986 57.5,269C 43.2227,275.195 34.2227,270.695 30.5,255.5C 31.1058,251.972 32.2725,248.639 34,245.5C 104.5,175 175,104.5 245.5,34C 248.158,32.522 250.825,31.3554 253.5,30.5 Z"/></g>
<g><path style="opacity:0.986" fill="#000000" d="M 89.5,287.5 C 99.36,285.35 106.527,288.683 111,297.5C 111.333,332.833 111.667,368.167 112,403.5C 115.963,429.129 130.796,443.629 156.5,447C 222.5,447.667 288.5,447.667 354.5,447C 380.204,443.629 395.037,429.129 399,403.5C 399.333,368.167 399.667,332.833 400,297.5C 404.473,288.518 411.64,285.351 421.5,288C 426,289.833 429.167,293 431,297.5C 431.667,335.833 431.667,374.167 431,412.5C 423.506,449.327 401.339,471.494 364.5,479C 360.445,479.232 356.445,479.732 352.5,480.5C 287.833,479.167 223.167,479.167 158.5,480.5C 118.512,477.329 92.6782,456.663 81,418.5C 79.3624,378.205 79.0291,337.872 80,297.5C 82.0223,292.98 85.189,289.647 89.5,287.5 Z"/></g>
</svg>
