<?xml version="1.0" encoding="UTF-8"?>
<!DOCTYPE svg PUBLIC "-//W3C//DTD SVG 1.1//EN" "http://www.w3.org/Graphics/SVG/1.1/DTD/svg11.dtd">
<svg xmlns="http://www.w3.org/2000/svg" version="1.1" width="512px" height="512px" style="shape-rendering:geometricPrecision; text-rendering:geometricPrecision; image-rendering:optimizeQuality; fill-rule:evenodd; clip-rule:evenodd" xmlns:xlink="http://www.w3.org/1999/xlink">
<g><path style="opacity:0.995" fill="#fe911b" d="M 199.5,67.5 C 199.5,80.8333 199.5,94.1667 199.5,107.5C 202.385,107.194 205.052,107.527 207.5,108.5C 209.525,127.192 219.858,137.525 238.5,139.5C 239.488,144.64 239.821,149.974 239.5,155.5C 211.162,152.497 194.828,136.831 190.5,108.5C 186.71,109.565 183.043,110.898 179.5,112.5C 174.915,101.046 169.582,90.0457 163.5,79.5C 162.37,59.7943 171.37,52.2943 190.5,57C 194.811,59.5054 197.811,63.0054 199.5,67.5 Z"/></g>
<g><path style="opacity:0.99" fill="#fe640a" d="M 235.5,79.5 C 229.399,90.0372 224.066,101.037 219.5,112.5C 215.698,110.601 211.698,109.267 207.5,108.5C 205.052,107.527 202.385,107.194 199.5,107.5C 199.5,94.1667 199.5,80.8333 199.5,67.5C 204.613,56.6118 213.113,52.9451 225,56.5C 233.855,61.5524 237.355,69.219 235.5,79.5 Z"/></g>
<g><path style="opacity:1" fill="#373737" d="M 163.5,79.5 C 169.582,90.0457 174.915,101.046 179.5,112.5C 175.235,115.094 171.569,118.428 168.5,122.5C 162.97,129.077 159.97,136.744 159.5,145.5C 159.5,159.167 159.5,172.833 159.5,186.5C 159.5,193.5 159.5,200.5 159.5,207.5C 159.982,233.978 173.316,248.644 199.5,251.5C 213.123,250.855 224.123,245.189 232.5,234.5C 235.334,229.832 237.334,224.832 238.5,219.5C 239.403,211.542 239.736,203.542 239.5,195.5C 239.5,190.167 239.5,184.833 239.5,179.5C 239.5,171.5 239.5,163.5 239.5,155.5C 239.821,149.974 239.488,144.64 238.5,139.5C 235.86,127.883 229.527,118.883 219.5,112.5C 224.066,101.037 229.399,90.0372 235.5,79.5C 318.834,79.3333 402.167,79.5 485.5,80C 490,81.8333 493.167,85 495,89.5C 495.667,205.5 495.667,321.5 495,437.5C 493.167,442 490,445.167 485.5,447C 332.167,447.667 178.833,447.667 25.5,447C 21,445.167 17.8333,442 16,437.5C 15.3333,321.5 15.3333,205.5 16,89.5C 17.8333,85 21,81.8333 25.5,80C 71.4988,79.5 117.499,79.3333 163.5,79.5 Z"/></g>
<g><path style="opacity:1" fill="#fe9019" d="M 125.5,115.5 C 99.5049,125.832 73.5049,136.165 47.5,146.5C 47.3335,137.161 47.5002,127.827 48,118.5C 50.1667,113.667 53.6667,110.167 58.5,108C 77.8333,107.333 97.1667,107.333 116.5,108C 120.275,109.611 123.275,112.111 125.5,115.5 Z"/></g>
<g><path style="opacity:1" fill="#f95046" d="M 350.5,118.5 C 350.586,119.496 350.252,120.329 349.5,121C 324.141,134.92 298.808,134.92 273.5,121C 272.748,120.329 272.414,119.496 272.5,118.5C 274.257,113.575 277.59,110.075 282.5,108C 301.5,107.333 320.5,107.333 339.5,108C 344.984,109.651 348.65,113.151 350.5,118.5 Z"/></g>
<g><path style="opacity:1" fill="#f5faf9" d="M 239.5,155.5 C 239.5,163.5 239.5,171.5 239.5,179.5C 202.586,176.89 178.919,157.89 168.5,122.5C 171.569,118.428 175.235,115.094 179.5,112.5C 183.043,110.898 186.71,109.565 190.5,108.5C 194.828,136.831 211.162,152.497 239.5,155.5 Z"/></g>
<g><path style="opacity:1" fill="#fe640a" d="M 415.5,108.5 C 416.833,108.5 418.167,108.5 419.5,108.5C 422.332,134.999 436.999,149.333 463.5,151.5C 463.5,156.833 463.5,162.167 463.5,167.5C 434.804,165.903 415.637,151.569 406,124.5C 404.985,120.56 404.485,116.56 404.5,112.5C 407.8,110.358 411.467,109.025 415.5,108.5 Z"/></g>
<g><path style="opacity:1" fill="#fe7c14" d="M 415.5,108.5 C 420.65,107.349 425.984,107.183 431.5,108C 433.723,108.566 435.723,109.4 437.5,110.5C 436.751,115.102 437.918,119.435 441,123.5C 445.402,129.196 451.069,132.863 458,134.5C 459.07,134.472 459.903,134.139 460.5,133.5C 461.927,135.148 462.76,137.148 463,139.5C 463.499,143.486 463.666,147.486 463.5,151.5C 436.999,149.333 422.332,134.999 419.5,108.5C 418.167,108.5 416.833,108.5 415.5,108.5 Z"/></g>
<g><path style="opacity:1" fill="#f3f7f5" d="M 207.5,108.5 C 211.698,109.267 215.698,110.601 219.5,112.5C 229.527,118.883 235.86,127.883 238.5,139.5C 219.858,137.525 209.525,127.192 207.5,108.5 Z"/></g>
<g><path style="opacity:1" fill="#fb8e19" d="M 437.5,110.5 C 445.123,112.602 451.289,116.935 456,123.5C 458.22,126.54 459.72,129.873 460.5,133.5C 459.903,134.139 459.07,134.472 458,134.5C 451.069,132.863 445.402,129.196 441,123.5C 437.918,119.435 436.751,115.102 437.5,110.5 Z"/></g>
<g><path style="opacity:1" fill="#fe9018" d="M 404.5,112.5 C 404.485,116.56 404.985,120.56 406,124.5C 415.637,151.569 434.804,165.903 463.5,167.5C 463.5,172.833 463.5,178.167 463.5,183.5C 425.565,181.059 401.232,161.725 390.5,125.5C 393.864,119.804 398.531,115.47 404.5,112.5 Z"/></g>
<g><path style="opacity:1" fill="#fe640a" d="M 125.5,115.5 C 127.345,120.945 128.012,126.612 127.5,132.5C 100.823,142.84 74.1561,153.173 47.5,163.5C 47.5,157.833 47.5,152.167 47.5,146.5C 73.5049,136.165 99.5049,125.832 125.5,115.5 Z"/></g>
<g><path style="opacity:1" fill="#fe685e" d="M 272.5,118.5 C 272.414,119.496 272.748,120.329 273.5,121C 298.808,134.92 324.141,134.92 349.5,121C 350.252,120.329 350.586,119.496 350.5,118.5C 351.491,124.979 351.824,131.646 351.5,138.5C 324.819,150.396 298.152,150.396 271.5,138.5C 271.176,131.646 271.509,124.979 272.5,118.5 Z"/></g>
<g><path style="opacity:1" fill="#fe921e" d="M 168.5,122.5 C 178.919,157.89 202.586,176.89 239.5,179.5C 239.5,184.833 239.5,190.167 239.5,195.5C 203.241,193.861 176.574,177.195 159.5,145.5C 159.97,136.744 162.97,129.077 168.5,122.5 Z"/></g>
<g><path style="opacity:1" fill="#fe7c14" d="M 390.5,125.5 C 401.232,161.725 425.565,181.059 463.5,183.5C 463.5,188.833 463.5,194.167 463.5,199.5C 428.687,197.961 402.021,182.627 383.5,153.5C 383.012,146.326 383.845,139.326 386,132.5C 387.026,129.761 388.526,127.428 390.5,125.5 Z"/></g>
<g><path style="opacity:1" fill="#ff9018" d="M 127.5,132.5 C 127.5,140.167 127.5,147.833 127.5,155.5C 100.688,165.438 74.0213,175.771 47.5,186.5C 47.5,178.833 47.5,171.167 47.5,163.5C 74.1561,153.173 100.823,142.84 127.5,132.5 Z"/></g>
<g><path style="opacity:1" fill="#fa5046" d="M 271.5,138.5 C 298.152,150.396 324.819,150.396 351.5,138.5C 351.5,146.833 351.5,155.167 351.5,163.5C 325.064,179.105 298.397,179.438 271.5,164.5C 271.5,155.833 271.5,147.167 271.5,138.5 Z"/></g>
<g><path style="opacity:1" fill="#f5faf9" d="M 159.5,145.5 C 176.574,177.195 203.241,193.861 239.5,195.5C 239.736,203.542 239.403,211.542 238.5,219.5C 207.82,218.653 181.487,207.653 159.5,186.5C 159.5,172.833 159.5,159.167 159.5,145.5 Z"/></g>
<g><path style="opacity:1" fill="#fe640a" d="M 383.5,153.5 C 402.021,182.627 428.687,197.961 463.5,199.5C 463.5,204.833 463.5,210.167 463.5,215.5C 431.794,215.053 405.127,203.386 383.5,180.5C 383.5,171.5 383.5,162.5 383.5,153.5 Z"/></g>
<g><path style="opacity:1" fill="#ff640a" d="M 127.5,155.5 C 127.5,161.167 127.5,166.833 127.5,172.5C 100.823,182.84 74.1561,193.173 47.5,203.5C 47.5,197.833 47.5,192.167 47.5,186.5C 74.0213,175.771 100.688,165.438 127.5,155.5 Z"/></g>
<g><path style="opacity:1" fill="#fe685e" d="M 351.5,163.5 C 351.5,169.833 351.5,176.167 351.5,182.5C 324.819,194.396 298.152,194.396 271.5,182.5C 271.5,176.5 271.5,170.5 271.5,164.5C 298.397,179.438 325.064,179.105 351.5,163.5 Z"/></g>
<g><path style="opacity:1" fill="#ff9018" d="M 127.5,172.5 C 127.5,180.167 127.5,187.833 127.5,195.5C 100.688,205.438 74.0213,215.771 47.5,226.5C 47.5,218.833 47.5,211.167 47.5,203.5C 74.1561,193.173 100.823,182.84 127.5,172.5 Z"/></g>
<g><path style="opacity:1" fill="#fe9018" d="M 383.5,180.5 C 405.127,203.386 431.794,215.053 463.5,215.5C 462.804,220.921 461.137,225.921 458.5,230.5C 430.362,229.252 405.362,219.919 383.5,202.5C 383.5,195.167 383.5,187.833 383.5,180.5 Z"/></g>
<g><path style="opacity:1" fill="#fa5046" d="M 271.5,182.5 C 298.152,194.396 324.819,194.396 351.5,182.5C 351.5,190.833 351.5,199.167 351.5,207.5C 325.064,223.105 298.397,223.438 271.5,208.5C 271.5,199.833 271.5,191.167 271.5,182.5 Z"/></g>
<g><path style="opacity:1" fill="#fe921d" d="M 159.5,186.5 C 181.487,207.653 207.82,218.653 238.5,219.5C 237.334,224.832 235.334,229.832 232.5,234.5C 205.088,233.588 180.755,224.588 159.5,207.5C 159.5,200.5 159.5,193.5 159.5,186.5 Z"/></g>
<g><path style="opacity:1" fill="#fe640a" d="M 127.5,195.5 C 127.5,201.167 127.5,206.833 127.5,212.5C 101.336,222.443 75.3361,232.776 49.5,243.5C 47.6549,238.055 46.9883,232.388 47.5,226.5C 74.0213,215.771 100.688,205.438 127.5,195.5 Z"/></g>
<g><path style="opacity:1" fill="#fe7c14" d="M 383.5,202.5 C 405.362,219.919 430.362,229.252 458.5,230.5C 454.882,237.118 449.882,242.452 443.5,246.5C 422.794,242.929 403.461,235.596 385.5,224.5C 383.703,217.314 383.037,209.98 383.5,202.5 Z"/></g>
<g><path style="opacity:1" fill="#f3f9f8" d="M 159.5,207.5 C 180.755,224.588 205.088,233.588 232.5,234.5C 224.123,245.189 213.123,250.855 199.5,251.5C 173.316,248.644 159.982,233.978 159.5,207.5 Z"/></g>
<g><path style="opacity:1" fill="#fe685e" d="M 351.5,207.5 C 351.5,213.833 351.5,220.167 351.5,226.5C 324.819,238.396 298.152,238.396 271.5,226.5C 271.5,220.5 271.5,214.5 271.5,208.5C 298.397,223.438 325.064,223.105 351.5,207.5 Z"/></g>
<g><path style="opacity:1" fill="#fe9019" d="M 127.5,212.5 C 127.666,221.839 127.5,231.173 127,240.5C 124.833,245.333 121.333,248.833 116.5,251C 97.1667,251.667 77.8333,251.667 58.5,251C 54.7252,249.389 51.7252,246.889 49.5,243.5C 75.3361,232.776 101.336,222.443 127.5,212.5 Z"/></g>
<g><path style="opacity:1" fill="#fb630b" d="M 385.5,224.5 C 403.461,235.596 422.794,242.929 443.5,246.5C 423.219,256.055 405.719,252.388 391,235.5C 388.626,232.086 386.793,228.419 385.5,224.5 Z"/></g>
<g><path style="opacity:1" fill="#f85046" d="M 271.5,226.5 C 298.152,238.396 324.819,238.396 351.5,226.5C 353.262,235.399 350.929,242.899 344.5,249C 342.913,249.862 341.246,250.529 339.5,251C 320.5,251.667 301.5,251.667 282.5,251C 272.788,245.741 269.121,237.575 271.5,226.5 Z"/></g>
<g><path style="opacity:1" fill="#f95147" d="M 79.5,275.5 C 80.6749,297.352 91.3415,312.519 111.5,321C 116.714,322.591 122.048,323.425 127.5,323.5C 127.5,331.5 127.5,339.5 127.5,347.5C 97.4308,346.222 75.5974,332.222 62,305.5C 58.3667,296.499 56.2,287.166 55.5,277.5C 56.4734,277.013 57.4734,276.513 58.5,276C 65.4921,275.5 72.4921,275.334 79.5,275.5 Z"/></g>
<g><path style="opacity:1" fill="#f5f9f9" d="M 79.5,275.5 C 84.8333,275.5 90.1667,275.5 95.5,275.5C 97.1968,295.197 107.863,305.863 127.5,307.5C 127.5,312.833 127.5,318.167 127.5,323.5C 122.048,323.425 116.714,322.591 111.5,321C 91.3415,312.519 80.6749,297.352 79.5,275.5 Z"/></g>
<g><path style="opacity:1" fill="#f95147" d="M 95.5,275.5 C 121.19,271.19 131.856,281.856 127.5,307.5C 107.863,305.863 97.1968,295.197 95.5,275.5 Z"/></g>
<g><path style="opacity:1" fill="#feca1e" d="M 463.5,327.5 C 458.167,327.5 452.833,327.5 447.5,327.5C 447.954,316.397 447.454,305.397 446,294.5C 444.829,293.107 443.329,292.273 441.5,292C 429.167,291.333 416.833,291.333 404.5,292C 403.069,292.465 401.903,293.299 401,294.5C 399.546,305.397 399.046,316.397 399.5,327.5C 394.167,327.5 388.833,327.5 383.5,327.5C 383.333,313.829 383.5,300.163 384,286.5C 386.167,281.667 389.667,278.167 394.5,276C 413.833,275.333 433.167,275.333 452.5,276C 457.333,278.167 460.833,281.667 463,286.5C 463.5,300.163 463.667,313.829 463.5,327.5 Z"/></g>
<g><path style="opacity:1" fill="#895833" d="M 230.5,290.5 C 230.586,291.496 230.252,292.329 229.5,293C 209.5,301.667 189.5,301.667 169.5,293C 168.748,292.329 168.414,291.496 168.5,290.5C 185.178,272.967 203.845,270.801 224.5,284C 226.706,286.037 228.706,288.203 230.5,290.5 Z"/></g>
<g><path style="opacity:1" fill="#f3fafa" d="M 338.5,286.5 C 338.423,287.75 337.756,288.583 336.5,289C 315.237,297.309 294.07,305.809 273,314.5C 272.503,312.19 272.337,309.857 272.5,307.5C 277.457,288.047 289.957,277.38 310,275.5C 321.17,275.18 330.67,278.847 338.5,286.5 Z"/></g>
<g><path style="opacity:1" fill="#f5f8f8" d="M 55.5,277.5 C 56.2,287.166 58.3667,296.499 62,305.5C 75.5974,332.222 97.4308,346.222 127.5,347.5C 127.5,352.833 127.5,358.167 127.5,363.5C 90.8718,361.83 64.2051,344.83 47.5,312.5C 47.3336,303.827 47.5002,295.16 48,286.5C 49.6114,282.725 52.1114,279.725 55.5,277.5 Z"/></g>
<g><path style="opacity:1" fill="#dbecec" d="M 338.5,286.5 C 343.721,290.728 347.387,296.062 349.5,302.5C 348.85,302.196 348.183,301.863 347.5,301.5C 322.359,312.074 297.026,322.074 271.5,331.5C 271.174,323.316 271.508,315.316 272.5,307.5C 272.337,309.857 272.503,312.19 273,314.5C 294.07,305.809 315.237,297.309 336.5,289C 337.756,288.583 338.423,287.75 338.5,286.5 Z"/></g>
<g><path style="opacity:1" fill="#ffdf77" d="M 447.5,327.5 C 442.167,327.5 436.833,327.5 431.5,327.5C 431.5,320.833 431.5,314.167 431.5,307.5C 426.167,307.5 420.833,307.5 415.5,307.5C 415.5,314.167 415.5,320.833 415.5,327.5C 410.167,327.5 404.833,327.5 399.5,327.5C 399.046,316.397 399.546,305.397 401,294.5C 401.903,293.299 403.069,292.465 404.5,292C 416.833,291.333 429.167,291.333 441.5,292C 443.329,292.273 444.829,293.107 446,294.5C 447.454,305.397 447.954,316.397 447.5,327.5 Z"/></g>
<g><path style="opacity:1" fill="#764c2c" d="M 168.5,290.5 C 168.414,291.496 168.748,292.329 169.5,293C 189.5,301.667 209.5,301.667 229.5,293C 230.252,292.329 230.586,291.496 230.5,290.5C 234.734,294.968 237.401,300.301 238.5,306.5C 212.477,318.428 186.477,318.428 160.5,306.5C 161.599,300.301 164.266,294.968 168.5,290.5 Z"/></g>
<g><path style="opacity:1" fill="#f4fbfb" d="M 349.5,302.5 C 351.283,309.334 351.95,316.334 351.5,323.5C 324.844,333.827 298.177,344.16 271.5,354.5C 271.5,346.833 271.5,339.167 271.5,331.5C 297.026,322.074 322.359,312.074 347.5,301.5C 348.183,301.863 348.85,302.196 349.5,302.5 Z"/></g>
<g><path style="opacity:1" fill="#895833" d="M 160.5,306.5 C 186.477,318.428 212.477,318.428 238.5,306.5C 239.47,315.082 239.803,323.749 239.5,332.5C 212.8,347.163 186.134,347.163 159.5,332.5C 159.197,323.749 159.53,315.082 160.5,306.5 Z"/></g>
<g><path style="opacity:1" fill="#fecb1d" d="M 431.5,327.5 C 426.167,327.5 420.833,327.5 415.5,327.5C 415.5,320.833 415.5,314.167 415.5,307.5C 420.833,307.5 426.167,307.5 431.5,307.5C 431.5,314.167 431.5,320.833 431.5,327.5 Z"/></g>
<g><path style="opacity:1" fill="#fa5147" d="M 47.5,312.5 C 64.2051,344.83 90.8718,361.83 127.5,363.5C 127.5,371.5 127.5,379.5 127.5,387.5C 96.4119,386.948 69.7453,375.948 47.5,354.5C 47.5,340.5 47.5,326.5 47.5,312.5 Z"/></g>
<g><path style="opacity:1" fill="#dceded" d="M 351.5,323.5 C 351.5,329.167 351.5,334.833 351.5,340.5C 324.823,350.84 298.156,361.173 271.5,371.5C 271.5,365.833 271.5,360.167 271.5,354.5C 298.177,344.16 324.844,333.827 351.5,323.5 Z"/></g>
<g><path style="opacity:1" fill="#4c4d4c" d="M 383.5,327.5 C 388.833,327.5 394.167,327.5 399.5,327.5C 404.833,327.5 410.167,327.5 415.5,327.5C 420.833,327.5 426.167,327.5 431.5,327.5C 436.833,327.5 442.167,327.5 447.5,327.5C 452.833,327.5 458.167,327.5 463.5,327.5C 463.5,340.833 463.5,354.167 463.5,367.5C 458.167,367.5 452.833,367.5 447.5,367.5C 442.167,367.5 436.833,367.5 431.5,367.5C 426.167,367.5 420.833,367.5 415.5,367.5C 410.167,367.5 404.833,367.5 399.5,367.5C 394.167,367.5 388.833,367.5 383.5,367.5C 383.5,354.167 383.5,340.833 383.5,327.5 Z"/></g>
<g><path style="opacity:1" fill="#764c2c" d="M 159.5,332.5 C 186.134,347.163 212.8,347.163 239.5,332.5C 239.5,338.5 239.5,344.5 239.5,350.5C 212.804,362.497 186.137,362.497 159.5,350.5C 159.5,344.5 159.5,338.5 159.5,332.5 Z"/></g>
<g><path style="opacity:1" fill="#f4fbfb" d="M 351.5,340.5 C 351.5,348.167 351.5,355.833 351.5,363.5C 325.732,373.216 300.066,383.216 274.5,393.5C 271.826,386.459 270.826,379.126 271.5,371.5C 298.156,361.173 324.823,350.84 351.5,340.5 Z"/></g>
<g><path style="opacity:1" fill="#895833" d="M 159.5,350.5 C 186.137,362.497 212.804,362.497 239.5,350.5C 239.5,359.167 239.5,367.833 239.5,376.5C 212.8,391.163 186.134,391.163 159.5,376.5C 159.5,367.833 159.5,359.167 159.5,350.5 Z"/></g>
<g><path style="opacity:1" fill="#f5f9f9" d="M 47.5,354.5 C 69.7453,375.948 96.4119,386.948 127.5,387.5C 127.5,392.833 127.5,398.167 127.5,403.5C 97.5714,403.189 70.9048,393.856 47.5,375.5C 47.5,368.5 47.5,361.5 47.5,354.5 Z"/></g>
<g><path style="opacity:1" fill="#dcecec" d="M 351.5,363.5 C 351.825,370.687 351.491,377.687 350.5,384.5C 350.657,383.127 350.49,381.793 350,380.5C 328.93,389.191 307.763,397.691 286.5,406C 285.244,406.417 284.577,407.25 284.5,408.5C 279.417,404.667 276.083,399.667 274.5,393.5C 300.066,383.216 325.732,373.216 351.5,363.5 Z"/></g>
<g><path style="opacity:1" fill="#feca1e" d="M 383.5,367.5 C 388.833,367.5 394.167,367.5 399.5,367.5C 399.069,378.578 399.569,389.578 401,400.5C 401.903,401.701 403.069,402.535 404.5,403C 416.833,403.667 429.167,403.667 441.5,403C 444.333,402.167 446.167,400.333 447,397.5C 447.5,387.506 447.666,377.506 447.5,367.5C 452.833,367.5 458.167,367.5 463.5,367.5C 463.667,381.171 463.5,394.837 463,408.5C 460.833,413.333 457.333,416.833 452.5,419C 433.167,419.667 413.833,419.667 394.5,419C 389.667,416.833 386.167,413.333 384,408.5C 383.5,394.837 383.333,381.171 383.5,367.5 Z"/></g>
<g><path style="opacity:1" fill="#ffdf77" d="M 399.5,367.5 C 404.833,367.5 410.167,367.5 415.5,367.5C 415.5,374.167 415.5,380.833 415.5,387.5C 420.833,387.5 426.167,387.5 431.5,387.5C 431.5,380.833 431.5,374.167 431.5,367.5C 436.833,367.5 442.167,367.5 447.5,367.5C 447.666,377.506 447.5,387.506 447,397.5C 446.167,400.333 444.333,402.167 441.5,403C 429.167,403.667 416.833,403.667 404.5,403C 403.069,402.535 401.903,401.701 401,400.5C 399.569,389.578 399.069,378.578 399.5,367.5 Z"/></g>
<g><path style="opacity:1" fill="#fecb1d" d="M 415.5,367.5 C 420.833,367.5 426.167,367.5 431.5,367.5C 431.5,374.167 431.5,380.833 431.5,387.5C 426.167,387.5 420.833,387.5 415.5,387.5C 415.5,380.833 415.5,374.167 415.5,367.5 Z"/></g>
<g><path style="opacity:1" fill="#f95046" d="M 47.5,375.5 C 70.9048,393.856 97.5714,403.189 127.5,403.5C 127.077,411.424 123.077,416.591 115.5,419C 96.5,419.667 77.5,419.667 58.5,419C 53.2425,416.744 49.7425,412.91 48,407.5C 47.5002,396.839 47.3335,386.172 47.5,375.5 Z"/></g>
<g><path style="opacity:1" fill="#764c2c" d="M 159.5,376.5 C 186.134,391.163 212.8,391.163 239.5,376.5C 240.251,383.703 238.918,390.37 235.5,396.5C 235.565,396.062 235.399,395.728 235,395.5C 211.99,405.647 188.824,405.98 165.5,396.5C 164.702,396.957 164.369,397.624 164.5,398.5C 160.397,391.828 158.731,384.495 159.5,376.5 Z"/></g>
<g><path style="opacity:1" fill="#f3fafa" d="M 350.5,384.5 C 347.779,402.726 337.446,414.226 319.5,419C 305.86,421.514 294.193,418.014 284.5,408.5C 284.577,407.25 285.244,406.417 286.5,406C 307.763,397.691 328.93,389.191 350,380.5C 350.49,381.793 350.657,383.127 350.5,384.5 Z"/></g>
<g><path style="opacity:1" fill="#885833" d="M 235.5,396.5 C 224.879,415.305 208.879,422.471 187.5,418C 177.216,414.546 169.549,408.046 164.5,398.5C 164.369,397.624 164.702,396.957 165.5,396.5C 188.824,405.98 211.99,405.647 235,395.5C 235.399,395.728 235.565,396.062 235.5,396.5 Z"/></g>
</svg>
