<?xml version="1.0" encoding="UTF-8"?>
<!DOCTYPE svg PUBLIC "-//W3C//DTD SVG 1.1//EN" "http://www.w3.org/Graphics/SVG/1.1/DTD/svg11.dtd">
<svg xmlns="http://www.w3.org/2000/svg" version="1.1" width="512px" height="512px" style="shape-rendering:geometricPrecision; text-rendering:geometricPrecision; image-rendering:optimizeQuality; fill-rule:evenodd; clip-rule:evenodd" xmlns:xlink="http://www.w3.org/1999/xlink">
<g><path style="opacity:0.959" fill="#020100" d="M 293.5,-0.5 C 297.833,-0.5 302.167,-0.5 306.5,-0.5C 324.756,16.4204 342.756,33.7537 360.5,51.5C 379.5,40.6667 398.5,29.8333 417.5,19C 426.217,18.051 429.717,21.8844 428,30.5C 426.833,31.6667 425.667,32.8333 424.5,34C 406.84,43.4947 389.507,53.4947 372.5,64C 390.333,81.8333 408.167,99.6667 426,117.5C 431.342,128.915 428.842,138.082 418.5,145C 404.754,150.137 391.088,155.471 377.5,161C 370.493,162.562 364.159,161.229 358.5,157C 321.333,119.833 284.167,82.6667 247,45.5C 240.199,35.0401 241.366,25.5401 250.5,17C 265.054,11.4336 279.387,5.60027 293.5,-0.5 Z"/></g>
<g><path style="opacity:1" fill="#f42938" d="M 297.5,14.5 C 298.873,14.3433 300.207,14.51 301.5,15C 306.682,20.0147 311.682,25.1814 316.5,30.5C 314.265,40.7161 313.432,51.0494 314,61.5C 314.759,64.7846 316.092,67.7846 318,70.5C 322.438,74.9392 327.438,78.6059 333,81.5C 335.194,87.0801 337.194,92.7468 339,98.5C 341.5,105 346,109.5 352.5,112C 357.5,113.667 362.5,115.333 367.5,117C 368.667,118.167 369.833,119.333 371,120.5C 372.919,129.023 373.753,137.69 373.5,146.5C 371.692,146.509 370.025,146.009 368.5,145C 332,108.5 295.5,72 259,35.5C 258.257,33.5594 258.424,31.7261 259.5,30C 272.369,25.0566 285.036,19.8899 297.5,14.5 Z"/></g>
<g><path style="opacity:0.887" fill="#000000" d="M 161.5,27.5 C 170.72,27.6183 173.72,31.9517 170.5,40.5C 164.92,44.9611 158.586,47.1278 151.5,47C 146.463,43.2363 145.63,38.7363 149,33.5C 153.303,31.5969 157.47,29.5969 161.5,27.5 Z"/></g>
<g><path style="opacity:1" fill="#facea1" d="M 329.5,43.5 C 357.465,70.9651 385.299,98.6318 413,126.5C 413.711,128.367 413.211,129.867 411.5,131C 404.206,133.931 396.873,136.765 389.5,139.5C 388.003,132.251 386.837,124.918 386,117.5C 383.417,110.797 378.917,105.964 372.5,103C 366.638,101.324 360.971,99.1574 355.5,96.5C 354.667,95.5 353.833,94.5 353,93.5C 351.318,86.1209 348.652,79.1209 345,72.5C 339.846,68.2567 334.512,64.2567 329,60.5C 328.313,54.7963 328.479,49.1296 329.5,43.5 Z"/></g>
<g><path style="opacity:0.885" fill="#000000" d="M 210.5,62.5 C 216.621,62.0899 222.621,62.5899 228.5,64C 232.926,69.4414 232.259,74.1081 226.5,78C 220.388,78.9094 214.388,78.576 208.5,77C 204.128,71.4079 204.794,66.5746 210.5,62.5 Z"/></g>
<g><path style="opacity:0.983" fill="#010000" d="M 354.5,511.5 C 286.833,511.5 219.167,511.5 151.5,511.5C 145.678,508.507 141.844,503.841 140,497.5C 128.616,435.861 117.449,374.194 106.5,312.5C 95.8026,313.902 87.9693,309.902 83,300.5C 82.3333,284.833 82.3333,269.167 83,253.5C 85.6669,246.903 90.5003,242.737 97.5,241C 94.1784,232.683 95.0117,224.849 100,217.5C 104.391,213.388 109.224,209.888 114.5,207C 117.322,206.572 119.988,207.072 122.5,208.5C 123.376,211.799 123.543,215.132 123,218.5C 119.185,222.072 115.185,225.405 111,228.5C 111.011,232.225 111.677,235.892 113,239.5C 116.74,240.794 120.74,241.461 125,241.5C 128.833,241.333 132.667,241.167 136.5,241C 141.129,230.907 145.629,220.741 150,210.5C 152.946,205.555 157.112,202.055 162.5,200C 182.256,199.976 201.923,199.309 221.5,198C 230.575,190.38 239.741,182.88 249,175.5C 246.934,160.615 243.601,145.948 239,131.5C 236.79,130.251 234.624,130.418 232.5,132C 204.788,154.714 176.788,177.047 148.5,199C 144.567,199.884 140.901,199.384 137.5,197.5C 136.013,194.087 136.18,190.753 138,187.5C 144.167,182.667 150.333,177.833 156.5,173C 158.227,171.611 159.561,169.944 160.5,168C 153.589,144.856 146.756,121.689 140,98.5C 138.532,88.9628 142.365,85.4628 151.5,88C 153.049,89.214 154.215,90.714 155,92.5C 160.667,111.833 166.333,131.167 172,150.5C 172.516,153.251 173.683,155.584 175.5,157.5C 193.072,143.092 211.072,129.259 229.5,116C 239.871,113.119 247.705,116.286 253,125.5C 254.488,129.787 255.822,134.12 257,138.5C 265.552,131.614 274.386,125.114 283.5,119C 293.863,116.117 301.696,119.284 307,128.5C 309.514,137.557 312.18,146.557 315,155.5C 343.5,184 372,212.5 400.5,241C 413.469,240.045 420.969,245.878 423,258.5C 423.909,272.547 423.575,286.547 422,300.5C 417.429,309.889 409.929,313.889 399.5,312.5C 388.626,376.37 376.792,440.037 364,503.5C 361.228,506.783 358.061,509.45 354.5,511.5 Z"/></g>
<g><path style="opacity:0.999" fill="#f62a39" d="M 122.5,208.5 C 127.762,205.244 132.762,201.578 137.5,197.5C 140.901,199.384 144.567,199.884 148.5,199C 176.788,177.047 204.788,154.714 232.5,132C 234.624,130.418 236.79,130.251 239,131.5C 243.601,145.948 246.934,160.615 249,175.5C 239.741,182.88 230.575,190.38 221.5,198C 201.923,199.309 182.256,199.976 162.5,200C 157.112,202.055 152.946,205.555 150,210.5C 145.629,220.741 141.129,230.907 136.5,241C 132.667,241.167 128.833,241.333 125,241.5C 120.74,241.461 116.74,240.794 113,239.5C 111.677,235.892 111.011,232.225 111,228.5C 115.185,225.405 119.185,222.072 123,218.5C 123.543,215.132 123.376,211.799 122.5,208.5 Z"/></g>
<g><path style="opacity:1" fill="#f79501" d="M 288.5,133.5 C 290.144,133.286 291.644,133.62 293,134.5C 296.333,147.167 299.667,159.833 303,172.5C 303.667,174.5 303.667,176.5 303,178.5C 294.774,185.693 286.274,192.527 277.5,199C 266.167,199.667 254.833,199.667 243.5,199C 250.742,193.967 257.242,188.134 263,181.5C 263.893,178.567 264.393,175.567 264.5,172.5C 263.778,166.631 262.611,160.964 261,155.5C 270.354,148.303 279.521,140.969 288.5,133.5 Z"/></g>
<g><path style="opacity:0.88" fill="#000000" d="M 129.5,140.5 C 137.662,140.498 140.828,144.498 139,152.5C 134.125,158.519 127.959,161.686 120.5,162C 114.253,157.486 113.92,152.486 119.5,147C 123.009,144.97 126.342,142.804 129.5,140.5 Z"/></g>
<g><path style="opacity:1" fill="#060300" d="M 274.5,157.5 C 277.187,157.336 279.854,157.503 282.5,158C 286.913,161.999 289.913,166.832 291.5,172.5C 290.647,179.103 286.98,181.27 280.5,179C 276.087,175.001 273.087,170.168 271.5,164.5C 271.695,161.782 272.695,159.449 274.5,157.5 Z"/></g>
<g><path style="opacity:1" fill="#060100" d="M 206.5,163.5 C 212.509,163.334 218.509,163.501 224.5,164C 228.5,168.333 228.5,172.667 224.5,177C 218.5,177.667 212.5,177.667 206.5,177C 202.541,172.501 202.541,168.001 206.5,163.5 Z"/></g>
<g><path style="opacity:0.885" fill="#000000" d="M 374.5,178.5 C 380.621,178.09 386.621,178.59 392.5,180C 396.926,185.441 396.259,190.108 390.5,194C 384.388,194.909 378.388,194.576 372.5,193C 368.128,187.408 368.794,182.575 374.5,178.5 Z"/></g>
<g><path style="opacity:1" fill="#e01e2c" d="M 317.5,181.5 C 338.249,200.747 358.582,220.58 378.5,241C 363.156,241.833 347.822,241.666 332.5,240.5C 335,234.833 337.5,229.167 340,223.5C 342.601,211.53 338.101,203.697 326.5,200C 318.167,199.667 309.833,199.333 301.5,199C 306.8,195.425 311.633,191.258 316,186.5C 317.009,184.975 317.509,183.308 317.5,181.5 Z"/></g>
<g><path style="opacity:1" fill="#b66300" d="M 324.5,215.5 C 282.167,215.5 239.833,215.5 197.5,215.5C 197.768,217.099 197.434,218.432 196.5,219.5C 196.5,217.833 196.5,216.167 196.5,214.5C 239.337,214.168 282.003,214.501 324.5,215.5 Z"/></g>
<g><path style="opacity:1" fill="#f98700" d="M 196.5,219.5 C 197.434,218.432 197.768,217.099 197.5,215.5C 239.833,215.5 282.167,215.5 324.5,215.5C 325.613,216.946 325.78,218.613 325,220.5C 322.442,227.282 319.609,233.949 316.5,240.5C 304.185,241.499 291.851,241.832 279.5,241.5C 279.834,233.678 276.167,230.844 268.5,233C 265.631,236.038 262.631,238.871 259.5,241.5C 223.996,241.832 188.663,241.498 153.5,240.5C 156.83,231.674 160.83,223.174 165.5,215C 169.167,214.333 172.833,214.333 176.5,215C 179.5,218 182.5,221 185.5,224C 188.167,224.667 190.833,224.667 193.5,224C 195.141,222.871 196.141,221.371 196.5,219.5 Z"/></g>
<g><path style="opacity:1" fill="#211200" d="M 153.5,240.5 C 188.663,241.498 223.996,241.832 259.5,241.5C 223.998,242.83 188.331,242.83 152.5,241.5C 152.624,240.893 152.957,240.56 153.5,240.5 Z"/></g>
<g><path style="opacity:1" fill="#cadbea" d="M 405.5,257.5 C 314.833,257.5 224.167,257.5 133.5,257.5C 133.5,270.5 133.5,283.5 133.5,296.5C 194.669,296.168 255.669,296.501 316.5,297.5C 244.166,297.667 171.833,297.5 99.5,297C 99,296.5 98.5,296 98,295.5C 97.3333,283.167 97.3333,270.833 98,258.5C 98.5,258 99,257.5 99.5,257C 201.667,256.167 303.667,256.334 405.5,257.5 Z"/></g>
<g><path style="opacity:1" fill="#e9f5fe" d="M 405.5,257.5 C 406.83,263.463 407.496,269.796 407.5,276.5C 407.333,282.833 407.167,289.167 407,295.5C 406.5,296 406,296.5 405.5,297C 385.833,297.333 366.167,297.667 346.5,298C 344.859,299.129 343.859,300.629 343.5,302.5C 340.093,303.753 336.427,304.42 332.5,304.5C 328.573,304.42 324.907,303.753 321.5,302.5C 320.833,299.833 319.167,298.167 316.5,297.5C 255.669,296.501 194.669,296.168 133.5,296.5C 133.5,283.5 133.5,270.5 133.5,257.5C 224.167,257.5 314.833,257.5 405.5,257.5 Z"/></g>
<g><path style="opacity:1" fill="#d7ebfd" d="M 321.5,302.5 C 324.907,303.753 328.573,304.42 332.5,304.5C 336.427,304.42 340.093,303.753 343.5,302.5C 342.415,307.17 344.082,310.17 348.5,311.5C 360.369,311.841 372.036,312.841 383.5,314.5C 378.274,344.188 372.941,373.854 367.5,403.5C 304.833,403.5 242.167,403.5 179.5,403.5C 174.609,373.152 169.609,342.819 164.5,312.5C 215.336,312.832 266.003,312.499 316.5,311.5C 320.918,310.17 322.585,307.17 321.5,302.5 Z"/></g>
<g><path style="opacity:1" fill="#717c86" d="M 316.5,311.5 C 266.003,312.499 215.336,312.832 164.5,312.5C 150.323,312.171 136.323,312.504 122.5,313.5C 121.957,313.44 121.624,313.107 121.5,312.5C 186.497,311.5 251.497,311.167 316.5,311.5 Z"/></g>
<g><path style="opacity:1" fill="#707b84" d="M 348.5,311.5 C 360.5,311.5 372.5,311.5 384.5,311.5C 384.737,312.791 384.404,313.791 383.5,314.5C 372.036,312.841 360.369,311.841 348.5,311.5 Z"/></g>
<g><path style="opacity:1" fill="#bfdbf7" d="M 164.5,312.5 C 169.609,342.819 174.609,373.152 179.5,403.5C 242.167,403.5 304.833,403.5 367.5,403.5C 291.335,404.499 215.002,404.833 138.5,404.5C 133.353,374.137 128.019,343.804 122.5,313.5C 136.323,312.504 150.323,312.171 164.5,312.5 Z"/></g>
<g><path style="opacity:1" fill="#a4bcd3" d="M 364.5,419.5 C 304.167,419.5 243.833,419.5 183.5,419.5C 184.051,422.807 184.384,426.14 184.5,429.5C 188.371,429.185 192.038,429.518 195.5,430.5C 178.167,430.5 160.833,430.5 143.5,430.5C 142.705,426.524 142.038,422.524 141.5,418.5C 216.002,418.167 290.335,418.501 364.5,419.5 Z"/></g>
<g><path style="opacity:1" fill="#d4e7f9" d="M 364.5,419.5 C 363.954,423.045 363.287,426.545 362.5,430C 316.833,430.333 271.167,430.667 225.5,431C 222.606,433.909 221.773,437.409 223,441.5C 224.129,443.141 225.629,444.141 227.5,444.5C 271.5,445.167 315.5,445.833 359.5,446.5C 359.037,449.482 358.704,452.482 358.5,455.5C 302.167,455.5 245.833,455.5 189.5,455.5C 188.949,452.193 188.616,448.86 188.5,445.5C 191.059,445.802 193.393,445.468 195.5,444.5C 199.083,443.578 200.75,441.244 200.5,437.5C 200.75,433.756 199.083,431.422 195.5,430.5C 192.038,429.518 188.371,429.185 184.5,429.5C 184.384,426.14 184.051,422.807 183.5,419.5C 243.833,419.5 304.167,419.5 364.5,419.5 Z"/></g>
<g><path style="opacity:1" fill="#646d76" d="M 227.5,444.5 C 271.838,444.167 316.172,444.5 360.5,445.5C 360.376,446.107 360.043,446.44 359.5,446.5C 315.5,445.833 271.5,445.167 227.5,444.5 Z"/></g>
<g><path style="opacity:1" fill="#a7bfd6" d="M 195.5,444.5 C 193.393,445.468 191.059,445.802 188.5,445.5C 188.616,448.86 188.949,452.193 189.5,455.5C 245.833,455.5 302.167,455.5 358.5,455.5C 288.668,456.665 218.668,456.832 148.5,456C 147.512,452.255 146.845,448.422 146.5,444.5C 162.833,444.5 179.167,444.5 195.5,444.5 Z"/></g>
<g><path style="opacity:1" fill="#626c76" d="M 354.5,473.5 C 300.844,471.504 246.844,470.838 192.5,471.5C 178.459,470.851 164.792,471.518 151.5,473.5C 150.596,472.791 150.263,471.791 150.5,470.5C 218.833,470.5 287.167,470.5 355.5,470.5C 355.737,471.791 355.404,472.791 354.5,473.5 Z"/></g>
<g><path style="opacity:1" fill="#c3e1fe" d="M 192.5,471.5 C 194.076,479.876 195.743,488.209 197.5,496.5C 183.829,496.667 170.163,496.5 156.5,496C 156,495.5 155.5,495 155,494.5C 153.971,487.461 152.804,480.461 151.5,473.5C 164.792,471.518 178.459,470.851 192.5,471.5 Z"/></g>
<g><path style="opacity:1" fill="#d7ebfd" d="M 192.5,471.5 C 246.844,470.838 300.844,471.504 354.5,473.5C 353.676,481.286 352.009,488.786 349.5,496C 298.834,496.5 248.168,496.667 197.5,496.5C 195.743,488.209 194.076,479.876 192.5,471.5 Z"/></g>
</svg>
