<svg width="443" height="297" viewBox="0 0 443 297" fill="none" xmlns="http://www.w3.org/2000/svg">
<path d="M44.7513 205C42.7246 205 41.0179 204.307 39.6313 202.92C38.2446 201.533 37.5513 199.827 37.5513 197.8V100.68C37.5513 98.6533 38.2446 96.9467 39.6313 95.56C41.0179 94.0667 42.7246 93.32 44.7513 93.32H82.5113C93.9246 93.32 102.725 95.9333 108.911 101.16C115.205 106.387 118.351 113.427 118.351 122.28C118.351 128.467 116.858 133.64 113.871 137.8C110.991 141.853 107.258 144.893 102.671 146.92C109.071 148.947 114.298 152.2 118.351 156.68C122.511 161.16 124.591 166.813 124.591 173.64C124.591 183.453 121.285 191.133 114.671 196.68C108.058 202.227 97.6579 205 83.4713 205H44.7513ZM78.6713 141.64C88.1646 141.64 94.8313 140.04 98.6713 136.84C102.511 133.64 104.431 129.16 104.431 123.4C104.431 118.387 102.351 114.387 98.1913 111.4C94.1379 108.413 88.5379 106.92 81.3913 106.92H52.1113V141.64H78.6713ZM82.0313 191.4C92.3779 191.4 99.6846 189.8 103.951 186.6C108.325 183.4 110.511 178.867 110.511 173C110.511 160.84 101.071 154.76 82.1913 154.76H52.1113V191.4H82.0313Z" fill="#FA6400"/>
<path d="M325.588 205.8C323.775 205.8 322.175 205.16 320.788 203.88C319.508 202.493 318.868 200.893 318.868 199.08C318.868 197.373 319.348 195.88 320.308 194.6L357.268 149.16L320.628 104.04C319.668 102.76 319.188 101.267 319.188 99.56C319.188 97.5333 319.828 95.88 321.108 94.6C322.495 93.2133 324.201 92.52 326.228 92.52C327.401 92.52 328.521 92.7867 329.588 93.32C330.655 93.8533 331.508 94.5467 332.148 95.4L365.908 138.28L399.668 95.08C400.841 93.3733 402.601 92.52 404.948 92.52C406.868 92.52 408.521 93.2133 409.908 94.6C411.295 95.88 411.988 97.48 411.988 99.4C411.988 100.893 411.561 102.227 410.708 103.4L373.748 149L410.708 194.44C411.668 195.507 412.148 196.893 412.148 198.6C412.148 200.627 411.455 202.333 410.068 203.72C408.788 205.107 407.081 205.8 404.948 205.8C402.601 205.8 400.681 204.787 399.188 202.76L364.948 159.72L331.188 202.92C329.588 204.84 327.721 205.8 325.588 205.8Z" fill="#FA6400"/>
<circle cx="221" cy="153" r="65" stroke="#FA6400" stroke-width="4"/>
<circle cx="221" cy="153" r="48" stroke="#FA6400" stroke-width="4"/>
<path d="M258.078 156C259.14 156 260.006 156.861 259.944 157.921C259.675 162.547 258.434 167.078 256.291 171.232C253.852 175.96 250.311 180.071 245.95 183.236C241.589 186.402 236.528 188.536 231.169 189.468C226.436 190.291 221.586 190.157 216.921 189.082C215.902 188.847 215.33 187.787 215.634 186.787V186.787C215.931 185.81 216.957 185.257 217.954 185.482C222.062 186.409 226.328 186.517 230.492 185.792C235.262 184.963 239.767 183.063 243.65 180.245C247.532 177.427 250.684 173.768 252.855 169.56C254.73 165.924 255.829 161.965 256.094 157.92C256.163 156.861 257.017 156 258.078 156V156Z" fill="#FA6400"/>
<path d="M350.984 205.694C352.003 206.106 352.5 207.263 352.082 208.28C341.951 232.905 325.245 254.217 303.813 269.825C281.849 285.82 255.831 295.161 228.804 296.755C201.776 298.349 174.859 292.13 151.202 278.826C128.119 265.844 109.073 246.641 96.1756 223.373C95.6435 222.413 96.0022 221.207 96.9649 220.68L97.9291 220.151C98.9038 219.617 100.126 219.981 100.665 220.953C113.102 243.349 131.448 261.833 153.676 274.334C176.488 287.163 202.445 293.16 228.507 291.623C254.569 290.086 279.659 281.078 300.839 265.654C321.479 250.623 337.573 230.106 347.346 206.398C347.769 205.372 348.939 204.869 349.969 205.285L350.984 205.694Z" fill="#EEA64B"/>
<path d="M96.6919 76.8322C95.727 76.3087 95.3633 75.1044 95.8916 74.1421C108.267 51.6001 126.411 32.8169 148.44 19.7687C171.034 6.38539 196.842 -0.446765 223.027 0.0226526C249.213 0.49207 274.765 8.2449 296.875 22.4297C318.432 36.2591 335.905 55.6807 347.482 78.652C347.976 79.6326 347.57 80.8237 346.586 81.3126L345.604 81.8012C344.609 82.2958 343.403 81.8839 342.902 80.8921C331.738 58.7814 314.907 40.0868 294.149 26.7697C272.828 13.0914 248.188 5.61533 222.937 5.16267C197.686 4.71001 172.8 11.2983 151.012 24.2038C129.8 36.7683 112.323 54.8474 100.391 76.5434C99.8554 77.5173 98.635 77.8863 97.6581 77.3563L96.6919 76.8322Z" fill="#F19639"/>
</svg>
