<?xml version="1.0" encoding="UTF-8"?>
<!DOCTYPE svg PUBLIC "-//W3C//DTD SVG 1.1//EN" "http://www.w3.org/Graphics/SVG/1.1/DTD/svg11.dtd">
<svg xmlns="http://www.w3.org/2000/svg" version="1.1" width="512px" height="512px" style="shape-rendering:geometricPrecision; text-rendering:geometricPrecision; image-rendering:optimizeQuality; fill-rule:evenodd; clip-rule:evenodd" xmlns:xlink="http://www.w3.org/1999/xlink">
<g><path style="opacity:0.967" fill="#000000" d="M 244.5,-0.5 C 251.833,-0.5 259.167,-0.5 266.5,-0.5C 299.949,9.6838 314.949,32.3505 311.5,67.5C 361.455,87.2904 395.288,122.624 413,173.5C 416.227,183.97 418.561,194.637 420,205.5C 421.253,245.816 421.92,286.149 422,326.5C 422.903,327.701 424.069,328.535 425.5,329C 462.324,331.16 482.991,350.493 487.5,387C 485.384,417.931 469.384,437.264 439.5,445C 402.835,445.5 366.168,445.667 329.5,445.5C 323.577,481.421 302.911,503.421 267.5,511.5C 259.5,511.5 251.5,511.5 243.5,511.5C 208.089,503.421 187.423,481.421 181.5,445.5C 144.832,445.667 108.165,445.5 71.5,445C 39.4123,436.573 23.579,415.74 24,382.5C 30.337,348.557 50.837,330.724 85.5,329C 86.9308,328.535 88.0975,327.701 89,326.5C 89.0849,285.15 89.7516,243.817 91,202.5C 101.258,136.618 137.258,91.2851 199,66.5C 196.33,31.7911 211.497,9.45775 244.5,-0.5 Z M 249.5,33.5 C 267.512,32.1803 277.179,40.5137 278.5,58.5C 263.175,55.965 247.842,55.965 232.5,58.5C 232.49,46.1558 238.157,37.8224 249.5,33.5 Z M 248.5,90.5 C 303.92,91.113 345.086,115.446 372,163.5C 379.142,178.064 383.808,193.397 386,209.5C 386.958,251.527 387.958,293.527 389,335.5C 393.926,348.759 403.092,357.593 416.5,362C 423.181,362.94 429.847,363.94 436.5,365C 452.805,373.094 456.972,385.261 449,401.5C 445.429,406.031 440.929,409.198 435.5,411C 315.5,411.667 195.5,411.667 75.5,411C 58.7273,403.347 54.2273,391.18 62,374.5C 65.3148,370.182 69.4814,367.015 74.5,365C 95.8636,366.078 111.364,357.245 121,338.5C 121.822,336.212 122.489,333.878 123,331.5C 123.07,289.482 123.737,247.482 125,205.5C 134.069,151.762 164.235,115.596 215.5,97C 226.431,93.7554 237.431,91.5887 248.5,90.5 Z M 215.5,446.5 C 241.997,445.336 268.664,445.17 295.5,446C 286.971,470.939 269.637,480.939 243.5,476C 229.484,470.487 220.151,460.654 215.5,446.5 Z"/></g>
</svg>
