<?xml version="1.0" encoding="UTF-8"?>
<!DOCTYPE svg PUBLIC "-//W3C//DTD SVG 1.1//EN" "http://www.w3.org/Graphics/SVG/1.1/DTD/svg11.dtd">
<svg xmlns="http://www.w3.org/2000/svg" version="1.1" width="512px" height="512px" style="shape-rendering:geometricPrecision; text-rendering:geometricPrecision; image-rendering:optimizeQuality; fill-rule:evenodd; clip-rule:evenodd" xmlns:xlink="http://www.w3.org/1999/xlink">
<g><path style="opacity:0.99" fill="#000000" d="M 130.5,31.5 C 213.834,31.3333 297.167,31.5 380.5,32C 409.519,37.3514 430.019,53.5181 442,80.5C 444.277,86.3315 445.944,92.3315 447,98.5C 447.667,203.167 447.667,307.833 447,412.5C 441.649,441.519 425.482,462.019 398.5,474C 392.668,476.277 386.668,477.944 380.5,479C 297.167,479.667 213.833,479.667 130.5,479C 101.481,473.649 80.9808,457.482 69,430.5C 66.7228,424.668 65.0561,418.668 64,412.5C 63.3333,307.833 63.3333,203.167 64,98.5C 72.0818,62.0676 94.2485,39.7343 130.5,31.5 Z M 143.5,63.5 C 218.167,63.3333 292.834,63.5 367.5,64C 390.283,65.4729 405.449,76.9729 413,98.5C 414.03,102.773 414.697,107.106 415,111.5C 415.667,207.5 415.667,303.5 415,399.5C 413.523,422.295 402.023,437.462 380.5,445C 376.227,446.03 371.894,446.697 367.5,447C 292.833,447.667 218.167,447.667 143.5,447C 120.705,445.523 105.538,434.023 98,412.5C 96.9695,408.227 96.3028,403.894 96,399.5C 95.0209,300.479 95.3542,201.479 97,102.5C 103.603,78.7195 119.103,65.7195 143.5,63.5 Z"/></g>
<g><path style="opacity:0.934" fill="#000000" d="M 153.5,159.5 C 166.648,157.224 174.315,162.557 176.5,175.5C 174.323,188.6 166.656,193.767 153.5,191C 143.968,185.748 141.135,177.915 145,167.5C 147.074,163.923 149.907,161.256 153.5,159.5 Z"/></g>
<g><path style="opacity:0.989" fill="#000000" d="M 217.5,159.5 C 264.168,159.333 310.835,159.5 357.5,160C 366.482,164.473 369.649,171.64 367,181.5C 365.167,186 362,189.167 357.5,191C 310.833,191.667 264.167,191.667 217.5,191C 210.513,188.193 207.18,183.027 207.5,175.5C 207.302,167.885 210.635,162.551 217.5,159.5 Z"/></g>
<g><path style="opacity:0.934" fill="#000000" d="M 153.5,239.5 C 166.648,237.224 174.315,242.557 176.5,255.5C 174.323,268.6 166.656,273.767 153.5,271C 143.968,265.748 141.135,257.915 145,247.5C 147.074,243.923 149.907,241.256 153.5,239.5 Z"/></g>
<g><path style="opacity:0.989" fill="#000000" d="M 217.5,239.5 C 264.168,239.333 310.835,239.5 357.5,240C 366.482,244.473 369.649,251.64 367,261.5C 365.167,266 362,269.167 357.5,271C 310.833,271.667 264.167,271.667 217.5,271C 210.513,268.193 207.18,263.027 207.5,255.5C 207.302,247.885 210.635,242.551 217.5,239.5 Z"/></g>
<g><path style="opacity:0.934" fill="#000000" d="M 153.5,319.5 C 166.648,317.224 174.315,322.557 176.5,335.5C 174.323,348.6 166.656,353.767 153.5,351C 143.968,345.748 141.135,337.915 145,327.5C 147.074,323.923 149.907,321.256 153.5,319.5 Z"/></g>
<g><path style="opacity:0.989" fill="#000000" d="M 217.5,319.5 C 264.168,319.333 310.835,319.5 357.5,320C 366.482,324.473 369.649,331.64 367,341.5C 365.167,346 362,349.167 357.5,351C 310.833,351.667 264.167,351.667 217.5,351C 210.513,348.193 207.18,343.027 207.5,335.5C 207.302,327.885 210.635,322.551 217.5,319.5 Z"/></g>
</svg>
