<?xml version="1.0" encoding="UTF-8"?>
<!DOCTYPE svg PUBLIC "-//W3C//DTD SVG 1.1//EN" "http://www.w3.org/Graphics/SVG/1.1/DTD/svg11.dtd">
<svg xmlns="http://www.w3.org/2000/svg" version="1.1" width="512px" height="512px" style="shape-rendering:geometricPrecision; text-rendering:geometricPrecision; image-rendering:optimizeQuality; fill-rule:evenodd; clip-rule:evenodd" xmlns:xlink="http://www.w3.org/1999/xlink">
<g><path style="opacity:0.966" fill="#000000" d="M 193.5,-0.5 C 207.5,-0.5 221.5,-0.5 235.5,-0.5C 308.689,8.32575 364.522,43.9924 403,106.5C 435.153,166.31 439.153,227.977 415,291.5C 405.091,314.335 391.925,335.002 375.5,353.5C 419.82,397.654 464.32,441.654 509,485.5C 509.608,487.066 510.442,488.4 511.5,489.5C 511.5,493.167 511.5,496.833 511.5,500.5C 509.5,505.833 505.833,509.5 500.5,511.5C 496.833,511.5 493.167,511.5 489.5,511.5C 487.432,510.625 485.432,509.459 483.5,508C 439.319,464.319 394.986,420.819 350.5,377.5C 282.283,426.887 208.616,436.72 129.5,407C 54.4137,371.984 11.0803,313.484 -0.5,231.5C -0.5,218.167 -0.5,204.833 -0.5,191.5C 9.96358,113.211 50.2969,56.0447 120.5,20C 143.953,9.55721 168.286,2.72387 193.5,-0.5 Z M 207.5,32.5 C 273.306,32.3207 325.806,58.3207 365,110.5C 399.558,163.741 405.558,220.074 383,279.5C 357.534,335.834 314.701,371.334 254.5,386C 191.936,397.947 136.936,382.947 89.5,341C 34.8688,284.958 20.3688,219.791 46,145.5C 71.2018,87.9705 114.368,51.8039 175.5,37C 186.231,34.8714 196.897,33.3714 207.5,32.5 Z"/></g>
</svg>
