<svg width="131" height="73" viewBox="0 0 131 73" fill="none" xmlns="http://www.w3.org/2000/svg">
<path d="M79.5899 2.63603C79.3435 1.11373 78.0929 0 76.6276 0H9.0651C7.11801 0 5.5414 1.66479 5.5414 3.71467C5.5414 5.76833 7.11801 7.43123 9.0651 7.43123H25.5074C27.4545 7.43123 29.0311 9.0963 29.0311 11.1481C29.0311 13.1998 27.4545 14.8646 25.5074 14.8646H3.5237C1.5784 14.8646 0 16.5294 0 18.5812C0 20.633 1.5784 22.2956 3.5237 22.2956H33.4884C35.2078 22.2956 36.6027 23.769 36.6027 25.5825C36.6027 27.396 35.2078 28.8673 33.4884 28.8673H17.5686C15.6215 28.8673 14.0449 30.5324 14.0449 32.5841C14.0449 34.6357 15.6215 36.3007 17.5686 36.3007H29.3015C31.0224 36.3007 32.4176 37.772 32.4176 39.5855C32.4176 41.3987 31.0224 42.8703 29.3015 42.8703H13.1038C11.1567 42.8703 9.58014 44.535 9.58014 46.5868C9.58014 48.6386 11.1567 50.3034 13.1038 50.3034H35.3672L36.7713 58.6805H44.836C44.3617 59.896 44.0912 61.2229 44.0912 62.62C44.0912 68.3532 48.4966 73 53.9326 73C59.3663 73 63.7719 68.3532 63.7719 62.62C63.7719 61.2229 63.5015 59.896 63.0271 58.6805H88.6233L79.5899 2.63603ZM58.1676 62.6197C58.1676 65.0879 56.2724 67.0868 53.9324 67.0868C51.5907 67.0868 49.6953 65.0879 49.6953 62.6197C49.6953 60.9023 50.6233 59.4288 51.9704 58.6802H55.8925C57.2393 59.4288 58.1676 60.902 58.1676 62.6197Z" fill="#34AA7D"/>
<path d="M130.897 52.1714L126.855 31.1379L112.095 7.18512H85.2201L93.5443 58.6802H103.374C102.902 59.8957 102.631 61.2226 102.631 62.6197C102.631 68.353 107.037 72.9997 112.471 72.9997C117.907 72.9997 122.312 68.353 122.312 62.6197C122.312 61.2226 122.042 59.8957 121.568 58.6802H125.851C127.396 58.6802 128.86 57.9494 129.838 56.687C130.814 55.427 131.205 53.7679 130.897 52.1714ZM100.432 16.768H107.165L115.906 30.9485H102.726L100.432 16.768ZM116.708 62.6197C116.708 65.0879 114.813 67.0868 112.471 67.0868C110.133 67.0868 108.236 65.0879 108.236 62.6197C108.236 60.9023 109.166 59.4288 110.511 58.6802H114.433C115.78 59.4288 116.708 60.902 116.708 62.6197Z" fill="#34AA7D"/>
</svg>
