<?xml version="1.0" encoding="UTF-8"?>
<!DOCTYPE svg PUBLIC "-//W3C//DTD SVG 1.1//EN" "http://www.w3.org/Graphics/SVG/1.1/DTD/svg11.dtd">
<svg xmlns="http://www.w3.org/2000/svg" version="1.1" width="512px" height="512px" style="shape-rendering:geometricPrecision; text-rendering:geometricPrecision; image-rendering:optimizeQuality; fill-rule:evenodd; clip-rule:evenodd" xmlns:xlink="http://www.w3.org/1999/xlink">
<g><path style="opacity:0.973" fill="#000000" d="M 238.5,-0.5 C 249.833,-0.5 261.167,-0.5 272.5,-0.5C 335.528,9.69126 377.361,45.0246 398,105.5C 412.282,162.211 399.449,211.711 359.5,254C 353.712,259.723 347.379,264.723 340.5,269C 427.827,302.659 482.994,364.825 506,455.5C 508.336,466.899 510.17,478.232 511.5,489.5C 511.5,496.833 511.5,504.167 511.5,511.5C 497.833,511.5 484.167,511.5 470.5,511.5C 468.209,429.813 432.542,367.646 363.5,325C 303.294,292.202 240.961,287.536 176.5,311C 105.148,341.513 60.9814,394.679 44,470.5C 41.2557,484.032 40.089,497.699 40.5,511.5C 26.8333,511.5 13.1667,511.5 -0.5,511.5C -0.5,504.167 -0.5,496.833 -0.5,489.5C 10.0943,399.445 54.4276,331.612 132.5,286C 144.93,279.784 157.597,274.118 170.5,269C 124.11,234.698 103.277,188.531 108,130.5C 117.146,71.3723 149.312,30.539 204.5,8C 215.73,4.19244 227.063,1.35911 238.5,-0.5 Z M 241.5,40.5 C 288.302,37.1504 324.135,55.1504 349,94.5C 367,129.833 367,165.167 349,200.5C 324.157,240.005 288.323,257.838 241.5,254C 198.865,246.605 169.698,222.772 154,182.5C 139.281,127.806 155.448,84.9724 202.5,54C 214.894,47.37 227.894,42.87 241.5,40.5 Z"/></g>
</svg>
