<?xml version="1.0" encoding="UTF-8"?>
<!DOCTYPE svg PUBLIC "-//W3C//DTD SVG 1.1//EN" "http://www.w3.org/Graphics/SVG/1.1/DTD/svg11.dtd">
<svg xmlns="http://www.w3.org/2000/svg" version="1.1" width="512px" height="512px" style="shape-rendering:geometricPrecision; text-rendering:geometricPrecision; image-rendering:optimizeQuality; fill-rule:evenodd; clip-rule:evenodd" xmlns:xlink="http://www.w3.org/1999/xlink">
<g><path style="opacity:0.984" fill="#030302" d="M 511.5,145.5 C 511.5,150.833 511.5,156.167 511.5,161.5C 509.579,166.676 507.079,171.676 504,176.5C 496.952,182.549 489.619,188.216 482,193.5C 477.757,198.714 476.59,204.548 478.5,211C 478.094,214.845 477.594,218.679 477,222.5C 475.055,226.39 471.888,228.057 467.5,227.5C 465.897,226.404 464.397,225.07 463,223.5C 462.333,214.5 462.333,205.5 463,196.5C 464.556,191.72 466.889,187.387 470,183.5C 477.153,177.591 484.486,171.925 492,166.5C 500.33,149.317 495.163,138.15 476.5,133C 468.485,132.945 460.485,133.445 452.5,134.5C 445.565,134.8 439.232,132.967 433.5,129C 420.486,113.911 405.153,110.911 387.5,120C 381.796,125.406 376.796,131.406 372.5,138C 365.959,142.791 358.626,145.291 350.5,145.5C 330.32,139.183 315.154,145.183 305,163.5C 305.654,178.914 299.821,191.081 287.5,200C 276.693,201.819 267.526,206.653 260,214.5C 254.089,222.543 251.922,231.543 253.5,241.5C 268.837,241.667 284.17,241.5 299.5,241C 306.228,216.606 321.895,201.273 346.5,195C 371.615,191.253 392.115,199.087 408,218.5C 408.976,222.327 408.143,225.66 405.5,228.5C 402.396,229.864 399.396,229.698 396.5,228C 391.88,222.538 386.546,218.038 380.5,214.5C 355.376,203.374 334.876,209.041 319,231.5C 317.259,234.309 316.092,237.309 315.5,240.5C 314.957,240.56 314.624,240.893 314.5,241.5C 346.664,242.83 378.664,242.83 410.5,241.5C 426.833,241.5 443.167,241.5 459.5,241.5C 485.988,240.232 500.655,252.732 503.5,279C 500.609,298.339 493.776,316.173 483,332.5C 461.986,363.015 435.152,387.015 402.5,404.5C 397.382,434.118 380.049,451.618 350.5,457C 287.167,457.667 223.833,457.667 160.5,457C 130.979,451.645 113.645,434.145 108.5,404.5C 64.4117,381.914 32.5783,347.914 13,302.5C 1.66427,277.475 7.4976,257.809 30.5,243.5C 24.0708,233.881 21.2374,223.214 22,211.5C 16.85,206.927 11.5167,202.594 6,198.5C 3.53937,194.904 1.3727,191.237 -0.5,187.5C -0.5,182.5 -0.5,177.5 -0.5,172.5C 4.91281,159.625 14.7461,152.625 29,151.5C 34.1341,152.663 39.3008,153.163 44.5,153C 50.5459,148.636 56.8792,144.636 63.5,141C 70.1783,139.297 76.8449,139.131 83.5,140.5C 94.3344,143.252 102.001,149.752 106.5,160C 106.16,162.511 105.16,164.678 103.5,166.5C 96.7013,168.934 92.0346,166.767 89.5,160C 83.8694,155.676 77.5361,154.009 70.5,155C 63.5204,159.302 56.5204,163.635 49.5,168C 42.6505,168.645 35.8172,168.478 29,167.5C 16.0412,169.094 12.2078,175.761 17.5,187.5C 24.7948,191.962 30.9615,197.629 36,204.5C 36.8624,206.087 37.5291,207.754 38,209.5C 36.1813,221.096 39.348,230.929 47.5,239C 48.8333,239.667 50.1667,240.333 51.5,241C 73.8308,241.5 96.1642,241.667 118.5,241.5C 115.067,230.769 113.401,219.769 113.5,208.5C 114.586,204.822 114.586,201.155 113.5,197.5C 111.568,198.52 109.568,198.687 107.5,198C 104.308,193.563 100.308,192.563 95.5,195C 87.3023,202.863 79.469,211.03 72,219.5C 71.3333,221.833 71.3333,224.167 72,226.5C 75.448,229.573 76.2813,233.24 74.5,237.5C 71.7544,240.305 68.4211,241.139 64.5,240C 55.3254,230.424 54.1588,219.924 61,208.5C 69.1667,200.333 77.3333,192.167 85.5,184C 95.1238,178.096 104.79,178.096 114.5,184C 116.041,185.579 117.208,187.413 118,189.5C 120.999,182.168 124.499,175.168 128.5,168.5C 153.227,139.148 183.894,130.648 220.5,143C 242.073,152.793 257.073,168.793 265.5,191C 272.846,190.247 279.346,187.414 285,182.5C 285.667,181.833 285.667,181.167 285,180.5C 256.113,164.084 241.613,139.084 241.5,105.5C 237.86,103.958 234.027,103.291 230,103.5C 226.779,103.541 223.612,103.875 220.5,104.5C 222.348,114.652 219.681,123.485 212.5,131C 203.373,136.556 194.039,136.889 184.5,132C 179.329,128.304 178.329,123.804 181.5,118.5C 185.876,115.539 189.876,116.039 193.5,120C 202.152,122.288 205.985,119.121 205,110.5C 196.833,102.333 188.667,94.1667 180.5,86C 172.34,83.8222 168.84,86.9889 170,95.5C 172.466,98.1282 174.299,101.128 175.5,104.5C 175.098,106.3 174.431,107.967 173.5,109.5C 171.669,110.995 169.502,111.662 167,111.5C 153.083,106.918 140.75,109.585 130,119.5C 126.29,125.087 122.457,130.587 118.5,136C 115.177,138.763 111.51,139.263 107.5,137.5C 105.348,134.876 104.515,131.876 105,128.5C 109.889,120.556 115.389,113.056 121.5,106C 130.752,98.3043 141.419,94.471 153.5,94.5C 154.753,76.416 164.419,68.2493 182.5,70C 184.949,70.7246 187.283,71.7246 189.5,73C 196.636,79.1349 203.469,85.6349 210,92.5C 221.427,87.1727 233.261,86.1727 245.5,89.5C 249.362,76.1278 256.362,64.6278 266.5,55C 269.167,54.3333 271.833,54.3333 274.5,55C 300.319,79.9855 325.986,105.152 351.5,130.5C 354.161,129.668 356.828,128.834 359.5,128C 364.544,122.624 369.211,116.958 373.5,111C 390.933,98.0895 409.6,96.0895 429.5,105C 435.167,109.333 440.833,113.667 446.5,118C 449.107,118.818 451.774,119.318 454.5,119.5C 473.483,113.924 489.983,117.924 504,131.5C 507.322,135.815 509.822,140.482 511.5,145.5 Z"/></g>
<g><path style="opacity:1" fill="#f85065" d="M 312.5,129.5 C 314.23,130.026 315.564,131.026 316.5,132.5C 311.356,134.467 306.856,137.467 303,141.5C 299.863,137.691 296.697,133.858 293.5,130C 285.463,126.399 281.296,128.899 281,137.5C 284.309,143.309 288.809,147.976 294.5,151.5C 291.946,155.94 289.946,160.606 288.5,165.5C 262.419,147.772 252.919,123.439 260,92.5C 262.637,85.2227 266.304,78.556 271,72.5C 279,80.5 287,88.5 295,96.5C 290.6,108.155 291.933,119.155 299,129.5C 303.57,133.47 308.07,133.47 312.5,129.5 Z"/></g>
<g><path style="opacity:1" fill="#fb7c3f" d="M 181.5,118.5 C 178.833,115.5 176.167,112.5 173.5,109.5C 174.431,107.967 175.098,106.3 175.5,104.5C 174.299,101.128 172.466,98.1282 170,95.5C 168.84,86.9889 172.34,83.8222 180.5,86C 188.667,94.1667 196.833,102.333 205,110.5C 205.985,119.121 202.152,122.288 193.5,120C 189.876,116.039 185.876,115.539 181.5,118.5 Z"/></g>
<g><path style="opacity:1" fill="#070202" d="M 276.5,99.5 C 278.857,99.3367 281.19,99.5034 283.5,100C 285.333,100.5 286.5,101.667 287,103.5C 287.667,109.167 287.667,114.833 287,120.5C 281.408,126.315 276.742,125.648 273,118.5C 272.333,113.833 272.333,109.167 273,104.5C 273.997,102.677 275.164,101.01 276.5,99.5 Z"/></g>
<g><path style="opacity:0.998" fill="#01ad49" d="M 128.5,168.5 C 123.333,167.44 117.999,167.44 112.5,168.5C 109.308,168.551 106.308,167.884 103.5,166.5C 105.16,164.678 106.16,162.511 106.5,160C 102.001,149.752 94.3344,143.252 83.5,140.5C 89.3127,140.297 95.3127,140.13 101.5,140C 103.641,139.427 105.641,138.594 107.5,137.5C 111.51,139.263 115.177,138.763 118.5,136C 122.457,130.587 126.29,125.087 130,119.5C 140.75,109.585 153.083,106.918 167,111.5C 169.502,111.662 171.669,110.995 173.5,109.5C 176.167,112.5 178.833,115.5 181.5,118.5C 178.329,123.804 179.329,128.304 184.5,132C 194.039,136.889 203.373,136.556 212.5,131C 219.681,123.485 222.348,114.652 220.5,104.5C 223.612,103.875 226.779,103.541 230,103.5C 234.027,103.291 237.86,103.958 241.5,105.5C 241.613,139.084 256.113,164.084 285,180.5C 285.667,181.167 285.667,181.833 285,182.5C 279.346,187.414 272.846,190.247 265.5,191C 257.073,168.793 242.073,152.793 220.5,143C 183.894,130.648 153.227,139.148 128.5,168.5 Z"/></g>
<g><path style="opacity:1" fill="#ec7280" d="M 316.5,132.5 C 315.564,131.026 314.23,130.026 312.5,129.5C 313.39,127.218 313.556,124.885 313,122.5C 308.964,119.056 307.297,114.723 308,109.5C 314.348,115.681 320.515,122.014 326.5,128.5C 323.064,129.644 319.73,130.977 316.5,132.5 Z"/></g>
<g><path style="opacity:1" fill="#4ee066" d="M 467.5,227.5 C 465.353,232.46 462.686,237.127 459.5,241.5C 443.167,241.5 426.833,241.5 410.5,241.5C 409.421,236.927 407.754,232.593 405.5,228.5C 408.143,225.66 408.976,222.327 408,218.5C 392.115,199.087 371.615,191.253 346.5,195C 321.895,201.273 306.228,216.606 299.5,241C 284.17,241.5 268.837,241.667 253.5,241.5C 251.922,231.543 254.089,222.543 260,214.5C 267.526,206.653 276.693,201.819 287.5,200C 299.821,191.081 305.654,178.914 305,163.5C 315.154,145.183 330.32,139.183 350.5,145.5C 358.626,145.291 365.959,142.791 372.5,138C 376.796,131.406 381.796,125.406 387.5,120C 405.153,110.911 420.486,113.911 433.5,129C 439.232,132.967 445.565,134.8 452.5,134.5C 460.485,133.445 468.485,132.945 476.5,133C 495.163,138.15 500.33,149.317 492,166.5C 484.486,171.925 477.153,177.591 470,183.5C 466.889,187.387 464.556,191.72 463,196.5C 462.333,205.5 462.333,214.5 463,223.5C 464.397,225.07 465.897,226.404 467.5,227.5 Z"/></g>
<g><path style="opacity:1" fill="#020301" d="M 415.5,190.5 C 415.5,189.5 415.5,188.5 415.5,187.5C 416.297,181.91 419.63,179.41 425.5,180C 431.092,174.833 430.759,170.167 424.5,166C 412.833,165.333 401.167,165.333 389.5,166C 383.271,170.171 382.938,174.837 388.5,180C 394.374,179.583 398.041,182.083 399.5,187.5C 399.5,187.833 399.5,188.167 399.5,188.5C 398.608,193.38 395.608,195.713 390.5,195.5C 374.184,191.867 367.684,181.867 371,165.5C 373.998,157.836 379.498,153.003 387.5,151C 400.5,150.333 413.5,150.333 426.5,151C 445.358,158.557 449.524,171.057 439,188.5C 432.742,194.189 425.575,196.023 417.5,194C 416.695,192.887 416.028,191.721 415.5,190.5 Z"/></g>
<g><path style="opacity:1" fill="#f95165" d="M 209.5,207.5 C 207.5,202.167 203.833,198.5 198.5,196.5C 198.666,188.16 198.5,179.827 198,171.5C 195.442,167.788 191.942,166.622 187.5,168C 185.951,169.214 184.785,170.714 184,172.5C 183.829,177.864 183.329,183.198 182.5,188.5C 164.435,197.528 159.602,211.195 168,229.5C 171.921,234.414 176.754,238.247 182.5,241C 178.833,241.667 175.167,241.667 171.5,241C 168.794,238.629 166.461,235.963 164.5,233C 158.007,229.916 153.674,231.75 151.5,238.5C 151.608,239.442 151.941,240.275 152.5,241C 146.472,241.83 140.472,241.664 134.5,240.5C 122.217,206.849 130.884,180.016 160.5,160C 194.886,144.476 223.053,151.976 245,182.5C 248.334,188.166 250.834,194.166 252.5,200.5C 241.463,211.944 236.796,225.611 238.5,241.5C 235.833,241.5 233.167,241.5 230.5,241.5C 230.457,232.948 226.457,230.115 218.5,233C 215.833,235.667 213.167,238.333 210.5,241C 198.302,242.608 197.302,241.275 207.5,237C 216.482,229.717 219.649,220.551 217,209.5C 214.772,207.887 212.272,207.22 209.5,207.5 Z"/></g>
<g><path style="opacity:1" fill="#4edf65" d="M 103.5,166.5 C 106.308,167.884 109.308,168.551 112.5,168.5C 117.999,167.44 123.333,167.44 128.5,168.5C 124.499,175.168 120.999,182.168 118,189.5C 117.208,187.413 116.041,185.579 114.5,184C 104.79,178.096 95.1238,178.096 85.5,184C 77.3333,192.167 69.1667,200.333 61,208.5C 54.1588,219.924 55.3254,230.424 64.5,240C 68.4211,241.139 71.7544,240.305 74.5,237.5C 79.0803,237.887 83.4136,237.053 87.5,235C 96.3963,226.272 105.063,217.438 113.5,208.5C 113.401,219.769 115.067,230.769 118.5,241.5C 96.1642,241.667 73.8308,241.5 51.5,241C 50.1667,240.333 48.8333,239.667 47.5,239C 39.348,230.929 36.1813,221.096 38,209.5C 37.5291,207.754 36.8624,206.087 36,204.5C 30.9615,197.629 24.7948,191.962 17.5,187.5C 12.2078,175.761 16.0412,169.094 29,167.5C 35.8172,168.478 42.6505,168.645 49.5,168C 56.5204,163.635 63.5204,159.302 70.5,155C 77.5361,154.009 83.8694,155.676 89.5,160C 92.0346,166.767 96.7013,168.934 103.5,166.5 Z"/></g>
<g><path style="opacity:1" fill="#fa7b3e" d="M 415.5,187.5 C 410.167,187.5 404.833,187.5 399.5,187.5C 398.041,182.083 394.374,179.583 388.5,180C 382.938,174.837 383.271,170.171 389.5,166C 401.167,165.333 412.833,165.333 424.5,166C 430.759,170.167 431.092,174.833 425.5,180C 419.63,179.41 416.297,181.91 415.5,187.5 Z"/></g>
<g><path style="opacity:1" fill="#0c0404" d="M 164.5,175.5 C 171.685,175.848 174.519,179.515 173,186.5C 170.203,190.299 167.036,193.799 163.5,197C 155.874,199.023 152.041,196.19 152,188.5C 155.025,182.977 159.191,178.644 164.5,175.5 Z"/></g>
<g><path style="opacity:1" fill="#090202" d="M 213.5,175.5 C 215.199,175.34 216.866,175.506 218.5,176C 224.212,179.534 228.212,184.368 230.5,190.5C 229.647,197.103 225.98,199.27 219.5,197C 216.333,193.833 213.167,190.667 210,187.5C 207.458,182.361 208.624,178.361 213.5,175.5 Z"/></g>
<g><path style="opacity:1" fill="#989d4a" d="M 399.5,188.5 C 399.5,188.167 399.5,187.833 399.5,187.5C 404.833,187.5 410.167,187.5 415.5,187.5C 415.5,188.5 415.5,189.5 415.5,190.5C 410.468,188.63 405.135,187.963 399.5,188.5 Z"/></g>
<g><path style="opacity:1" fill="#fb7c3f" d="M 113.5,208.5 C 105.063,217.438 96.3963,226.272 87.5,235C 83.4136,237.053 79.0803,237.887 74.5,237.5C 76.2813,233.24 75.448,229.573 72,226.5C 71.3333,224.167 71.3333,221.833 72,219.5C 79.469,211.03 87.3023,202.863 95.5,195C 100.308,192.563 104.308,193.563 107.5,198C 109.568,198.687 111.568,198.52 113.5,197.5C 114.586,201.155 114.586,204.822 113.5,208.5 Z"/></g>
<g><path style="opacity:1" fill="#fa7988" d="M 198.5,196.5 C 203.833,198.5 207.5,202.167 209.5,207.5C 207.629,207.859 206.129,208.859 205,210.5C 205.077,219.912 200.577,225.579 191.5,227.5C 182.63,225.8 178.463,220.467 179,211.5C 182.127,204.349 187.627,200.849 195.5,201C 196.883,199.729 197.883,198.229 198.5,196.5 Z"/></g>
<g><path style="opacity:1" fill="#0b0303" d="M 147.5,202.5 C 151.603,201.769 155.103,202.769 158,205.5C 158.667,211.5 158.667,217.5 158,223.5C 151.306,229.492 146.639,228.159 144,219.5C 142.487,213.13 143.653,207.464 147.5,202.5 Z"/></g>
<g><path style="opacity:1" fill="#090203" d="M 227.5,202.5 C 231.909,201.618 235.409,202.952 238,206.5C 238.667,211.5 238.667,216.5 238,221.5C 235.91,227.292 232.076,228.792 226.5,226C 225.299,225.097 224.465,223.931 224,222.5C 223.333,217.167 223.333,211.833 224,206.5C 225.032,204.973 226.199,203.64 227.5,202.5 Z"/></g>
<g><path style="opacity:1" fill="#fc5266" d="M 380.5,214.5 C 383.031,223.555 382.698,232.555 379.5,241.5C 357.993,241.831 336.66,241.497 315.5,240.5C 316.092,237.309 317.259,234.309 319,231.5C 334.876,209.041 355.376,203.374 380.5,214.5 Z"/></g>
<g><path style="opacity:1" fill="#c3334e" d="M 380.5,214.5 C 386.546,218.038 391.88,222.538 396.5,228C 399.396,229.698 402.396,229.864 405.5,228.5C 407.754,232.593 409.421,236.927 410.5,241.5C 400.167,241.5 389.833,241.5 379.5,241.5C 382.698,232.555 383.031,223.555 380.5,214.5 Z"/></g>
<g><path style="opacity:1" fill="#5f1d27" d="M 315.5,240.5 C 336.66,241.497 357.993,241.831 379.5,241.5C 389.833,241.5 400.167,241.5 410.5,241.5C 378.664,242.83 346.664,242.83 314.5,241.5C 314.624,240.893 314.957,240.56 315.5,240.5 Z"/></g>
<g><path style="opacity:1" fill="#fdf7ea" d="M 483.5,266.5 C 476.623,266.02 471.123,268.687 467,274.5C 456.123,310.042 435.29,338.208 404.5,359C 382.974,372.597 360.307,383.764 336.5,392.5C 272.832,392.333 209.166,392.5 145.5,393C 142.921,394.076 141.254,395.909 140.5,398.5C 135.167,401.167 129.833,401.167 124.5,398.5C 124.141,396.629 123.141,395.129 121.5,394C 89.145,377.98 62.645,355.146 42,325.5C 32.4843,311.138 26.3176,295.471 23.5,278.5C 23.9812,268.845 28.6478,262.012 37.5,258C 181.111,256.338 324.778,256.005 468.5,257C 475.223,257.682 480.223,260.849 483.5,266.5 Z"/></g>
<g><path style="opacity:1" fill="#d2ccbe" d="M 483.5,266.5 C 485.41,267.975 486.576,269.975 487,272.5C 487.667,276.833 487.667,281.167 487,285.5C 474.818,323.351 452.318,353.517 419.5,376C 410.833,381.333 402.167,386.667 393.5,392C 374.503,392.5 355.503,392.667 336.5,392.5C 360.307,383.764 382.974,372.597 404.5,359C 435.29,338.208 456.123,310.042 467,274.5C 471.123,268.687 476.623,266.02 483.5,266.5 Z"/></g>
<g><path style="opacity:1" fill="#d2ccbe" d="M 124.5,398.5 C 129.833,401.167 135.167,401.167 140.5,398.5C 139.792,403.441 141.792,406.441 146.5,407.5C 225.833,408.167 305.167,408.833 384.5,409.5C 380.315,426.518 369.648,437.018 352.5,441C 287.5,441.667 222.5,441.667 157.5,441C 136.972,434.298 125.972,420.131 124.5,398.5 Z"/></g>
<g><path style="opacity:1" fill="#a8a398" d="M 146.5,407.5 C 226.169,407.167 305.836,407.5 385.5,408.5C 385.376,409.107 385.043,409.44 384.5,409.5C 305.167,408.833 225.833,408.167 146.5,407.5 Z"/></g>
</svg>
