<?xml version="1.0" encoding="UTF-8"?>
<!DOCTYPE svg PUBLIC "-//W3C//DTD SVG 1.1//EN" "http://www.w3.org/Graphics/SVG/1.1/DTD/svg11.dtd">
<svg xmlns="http://www.w3.org/2000/svg" version="1.1" width="512px" height="512px" style="shape-rendering:geometricPrecision; text-rendering:geometricPrecision; image-rendering:optimizeQuality; fill-rule:evenodd; clip-rule:evenodd" xmlns:xlink="http://www.w3.org/1999/xlink">
<g><path style="opacity:0.981" fill="#030202" d="M 511.5,113.5 C 511.5,121.167 511.5,128.833 511.5,136.5C 509.085,145.675 505.252,154.341 500,162.5C 475.028,188.472 449.695,214.139 424,239.5C 424.777,244.747 423.777,249.747 421,254.5C 391.699,283.801 363.199,312.301 335.5,340C 311.5,364 287.5,388 263.5,412C 258.666,414.997 253.333,416.33 247.5,416C 223.833,439.667 200.167,463.333 176.5,487C 156.183,503.862 133.517,507.862 108.5,499C 103.175,496.673 98.1753,493.84 93.5,490.5C 81.2348,497.463 69.2348,496.963 57.5,489C 53.9084,486.079 51.0751,482.579 49,478.5C 46.5196,469.332 44.8529,459.998 44,450.5C 42.5353,445.106 40.8686,439.772 39,434.5C 30.262,431.773 21.4286,429.273 12.5,427C 10,425.833 8.16667,424 7,421.5C 6.33333,418.167 6.33333,414.833 7,411.5C 8.82256,405.21 10.4892,398.877 12,392.5C 13.5981,387.901 16.7647,385.068 21.5,384C 10.1263,373.413 2.79297,360.58 -0.5,345.5C -0.5,337.5 -0.5,329.5 -0.5,321.5C 0.931571,315.041 3.09824,308.708 6,302.5C 8.79656,298.778 12.2966,297.778 16.5,299.5C 18.6927,301.355 20.026,303.689 20.5,306.5C 11.2183,327.568 13.0516,347.568 26,366.5C 29.39,370.393 33.2233,373.727 37.5,376.5C 39.525,373.621 41.1916,370.454 42.5,367C 26.2393,351.266 22.7393,333.1 32,312.5C 38.5356,301.971 47.869,295.304 60,292.5C 61.4698,288.622 62.3031,284.622 62.5,280.5C 53.6633,281.557 45.33,284.223 37.5,288.5C 34.6873,287.929 32.354,286.596 30.5,284.5C 28.8483,280.579 29.515,277.079 32.5,274C 44.3455,267.63 57.0121,264.296 70.5,264C 74.9094,258.92 79.9094,254.586 85.5,251C 80.5407,242.916 75.7074,234.749 71,226.5C 68.8102,221.972 69.1435,217.639 72,213.5C 79.7543,208.037 87.921,203.203 96.5,199C 100.781,197.989 104.614,198.823 108,201.5C 112.32,191.707 118.486,183.207 126.5,176C 135.993,169.087 145.659,162.42 155.5,156C 155.182,153.958 155.015,151.791 155,149.5C 151.232,147.401 149.732,144.234 150.5,140C 151.984,130.229 154.484,120.729 158,111.5C 160.265,108.534 163.265,107.201 167,107.5C 174.227,108.852 181.394,110.519 188.5,112.5C 194.042,108.473 199.875,104.806 206,101.5C 197.834,68.9975 206.668,42.1642 232.5,21C 258.526,4.26614 285.193,3.26614 312.5,18C 319.095,22.5907 325.095,27.924 330.5,34C 338.574,33.8898 346.407,35.0565 354,37.5C 356.361,28.7178 359.028,20.0511 362,11.5C 364.265,8.53448 367.265,7.20114 371,7.5C 380.685,9.29622 390.185,11.7962 399.5,15C 402.62,17.4077 403.953,20.5743 403.5,24.5C 411.228,24.1885 418.895,24.6885 426.5,26C 436.288,28.596 445.955,31.596 455.5,35C 464.146,36.4791 472.813,37.8125 481.5,39C 498.51,45.1668 505.677,57.3334 503,75.5C 502.171,79.1612 500.671,82.4946 498.5,85.5C 505.034,93.897 509.368,103.23 511.5,113.5 Z M 273.5,51.5 C 278.805,51.9412 283.805,53.4412 288.5,56C 278.965,61.8623 270.298,68.8623 262.5,77C 258.521,80.6556 254.188,83.8222 249.5,86.5C 245.789,66.9468 253.789,55.2801 273.5,51.5 Z M 55.5,310.5 C 56.1633,312.641 56.4966,314.975 56.5,317.5C 56.8496,329.358 54.6829,340.691 50,351.5C 41.1009,341.696 39.7675,331.029 46,319.5C 48.4057,315.592 51.5724,312.592 55.5,310.5 Z"/></g>
<g><path style="opacity:1" fill="#f3f0f0" d="M 263.5,23.5 C 283.311,20.7156 300.311,26.2156 314.5,40C 310.833,42.5 307.167,45 303.5,47.5C 281.217,31.355 260.384,33.0217 241,52.5C 232.273,64.7191 230.107,78.0525 234.5,92.5C 230.618,94.1384 226.618,95.4718 222.5,96.5C 214.332,70.8304 220.999,49.6638 242.5,33C 249.095,28.698 256.095,25.5314 263.5,23.5 Z"/></g>
<g><path style="opacity:1" fill="#e4b767" d="M 373.5,24.5 C 377.93,24.4688 382.097,25.4688 386,27.5C 383.471,41.2851 380.138,54.9518 376,68.5C 371.283,69.9435 366.45,70.9435 361.5,71.5C 365.342,55.7978 369.342,40.1311 373.5,24.5 Z"/></g>
<g><path style="opacity:1" fill="#92d1a0" d="M 420.5,71.5 C 413.804,71.391 407.137,71.7243 400.5,72.5C 399.256,68.5881 396.589,66.5881 392.5,66.5C 394.135,57.7927 396.468,49.2927 399.5,41C 407.107,39.2296 414.773,39.2296 422.5,41C 441.279,47.9558 460.612,52.6225 480.5,55C 487.912,59.9583 489.912,66.4583 486.5,74.5C 479.6,69.3843 471.933,65.8843 463.5,64C 450.876,62.4597 438.209,62.1264 425.5,63C 421.911,64.6742 420.245,67.5075 420.5,71.5 Z"/></g>
<g><path style="opacity:1" fill="#dd7d83" d="M 331.5,49.5 C 335.182,49.3347 338.848,49.5014 342.5,50C 345.539,50.3534 348.205,51.5201 350.5,53.5C 348.496,61.1919 346.496,68.8586 344.5,76.5C 330.5,79.8336 316.833,84.1669 303.5,89.5C 302.385,68.6466 311.718,55.3132 331.5,49.5 Z"/></g>
<g><path style="opacity:1" fill="#e5a88f" d="M 420.5,71.5 C 420.738,74.1483 422.072,75.9817 424.5,77C 435.161,77.4998 445.828,77.6665 456.5,77.5C 461.631,85.352 463.964,94.0186 463.5,103.5C 463.973,116.912 460.14,128.912 452,139.5C 430.965,160.368 410.132,181.368 389.5,202.5C 384.187,197.522 378.854,192.522 373.5,187.5C 372.37,159.623 366.204,132.957 355,107.5C 350.291,103.231 345.958,103.564 342,108.5C 336.743,119.771 332.576,131.438 329.5,143.5C 325.527,137 319.86,134.5 312.5,136C 300.319,148.348 287.986,160.514 275.5,172.5C 272.963,164.723 270.13,157.057 267,149.5C 262.255,144.257 257.588,144.257 253,149.5C 244.199,170.037 238.199,191.37 235,213.5C 234.586,213.957 234.086,214.291 233.5,214.5C 220.833,202.5 208.5,190.167 196.5,177.5C 244.012,131.399 300.345,100.899 365.5,86C 375.766,83.6777 386.1,81.6777 396.5,80C 399.232,78.346 400.565,75.846 400.5,72.5C 407.137,71.7243 413.804,71.391 420.5,71.5 Z"/></g>
<g><path style="opacity:1" fill="#90cf9f" d="M 286.5,75.5 C 287.8,77.223 288.467,79.3897 288.5,82C 289.302,86.8744 289.302,91.7077 288.5,96.5C 270.563,104.465 253.563,113.965 237.5,125C 227.49,124.081 217.823,121.747 208.5,118C 221.779,112.262 235.446,107.595 249.5,104C 263.445,96.5503 275.778,87.0503 286.5,75.5 Z"/></g>
<g><path style="opacity:1" fill="#e19274" d="M 456.5,77.5 C 483.45,84.4127 496.617,101.746 496,129.5C 495.266,137.034 492.933,144.034 489,150.5C 464.556,175.945 439.722,201.112 414.5,226C 413.833,226.667 413.167,226.667 412.5,226C 404.631,218.298 396.964,210.465 389.5,202.5C 410.132,181.368 430.965,160.368 452,139.5C 460.14,128.912 463.973,116.912 463.5,103.5C 463.964,94.0186 461.631,85.352 456.5,77.5 Z"/></g>
<g><path style="opacity:1" fill="#e9c481" d="M 169.5,124.5 C 171.527,124.338 173.527,124.505 175.5,125C 189.945,128.984 204.278,133.151 218.5,137.5C 214.687,141.821 210.187,145.154 205,147.5C 192.275,143.719 179.442,140.386 166.5,137.5C 167.343,133.127 168.343,128.793 169.5,124.5 Z"/></g>
<g><path style="opacity:1" fill="#e2bead" d="M 348.5,132.5 C 353.355,144.275 355.855,156.609 356,169.5C 351.094,164.931 346.594,160.098 342.5,155C 344.118,147.359 346.118,139.859 348.5,132.5 Z"/></g>
<g><path style="opacity:1" fill="#f3eeee" d="M 328.5,272.5 C 329.552,272.649 330.552,272.483 331.5,272C 340.402,263.768 348.569,254.934 356,245.5C 364.365,227.815 362.698,211.148 351,195.5C 338.298,182.631 325.465,169.965 312.5,157.5C 313.793,155.704 315.293,154.037 317,152.5C 347.68,183.014 378.18,213.68 408.5,244.5C 385.014,268.486 361.347,292.32 337.5,316C 336.5,316.667 335.5,316.667 334.5,316C 322.652,304.319 310.986,292.486 299.5,280.5C 312.727,280.606 324.06,285.439 333.5,295C 341.159,295.671 344.326,292.171 343,284.5C 338.851,279.503 334.017,275.503 328.5,272.5 Z"/></g>
<g><path style="opacity:1" fill="#85bf93" d="M 177.5,155.5 C 182.569,156.683 187.569,158.183 192.5,160C 190.317,162.35 187.984,164.517 185.5,166.5C 182.516,164.016 179.682,161.35 177,158.5C 176.53,157.423 176.697,156.423 177.5,155.5 Z"/></g>
<g><path style="opacity:1" fill="#f7f4f4" d="M 312.5,157.5 C 325.465,169.965 338.298,182.631 351,195.5C 362.698,211.148 364.365,227.815 356,245.5C 348.569,254.934 340.402,263.768 331.5,272C 330.552,272.483 329.552,272.649 328.5,272.5C 321.537,268.957 314.203,266.623 306.5,265.5C 309.157,258.692 311.324,251.692 313,244.5C 314.557,235.339 313.223,226.672 309,218.5C 301.326,208.348 292.159,206.848 281.5,214C 272.042,222.413 266.375,232.913 264.5,245.5C 257.5,239.167 250.833,232.5 244.5,225.5C 266.854,202.479 289.521,179.812 312.5,157.5 Z"/></g>
<g><path style="opacity:1" fill="#92d2a1" d="M 164.5,168.5 C 168.235,170.725 171.568,173.558 174.5,177C 157.091,195.401 141.591,215.234 128,236.5C 124.953,230.902 121.786,225.402 118.5,220C 121.144,207.371 127.144,196.705 136.5,188C 145.737,181.247 155.07,174.747 164.5,168.5 Z"/></g>
<g><path style="opacity:1" fill="#d4b2a3" d="M 259.5,174.5 C 261.123,177.6 262.457,180.933 263.5,184.5C 260.85,187.651 258.016,190.651 255,193.5C 255.704,187.017 257.204,180.683 259.5,174.5 Z"/></g>
<g><path style="opacity:1" fill="#e5a88e" d="M 159.5,432.5 C 148.005,443.827 136.339,454.994 124.5,466C 117.245,470.919 109.245,473.752 100.5,474.5C 94.0051,468.858 89.5051,461.858 87,453.5C 82.7263,364.998 107.393,285.664 161,215.5C 168.462,206.369 176.295,197.536 184.5,189C 185.167,188.333 185.833,188.333 186.5,189C 198.681,201.014 210.681,213.181 222.5,225.5C 210.833,237.833 198.833,249.833 186.5,261.5C 184.027,252.582 180.86,243.915 177,235.5C 172.409,232.633 168.076,232.966 164,236.5C 156.158,257.2 150.825,278.533 148,300.5C 145.047,302.573 143.547,305.406 143.5,309C 144.388,312.587 145.388,316.087 146.5,319.5C 143.924,357.954 148.257,395.621 159.5,432.5 Z"/></g>
<g><path style="opacity:1" fill="#e5b968" d="M 95.5,216.5 C 97.1439,216.286 98.6439,216.62 100,217.5C 106.247,228.996 112.747,240.33 119.5,251.5C 117.07,256.037 114.403,260.37 111.5,264.5C 103.415,251.331 95.5812,237.998 88,224.5C 87.2506,223.365 87.4173,222.365 88.5,221.5C 91.0765,220.057 93.4099,218.39 95.5,216.5 Z"/></g>
<g><path style="opacity:1" fill="#f2efef" d="M 291.5,224.5 C 294.238,223.965 296.072,224.965 297,227.5C 299.511,237.185 298.511,246.518 294,255.5C 291.642,259.358 288.475,262.358 284.5,264.5C 282.005,262.851 280.505,260.517 280,257.5C 278.37,244.554 282.204,233.554 291.5,224.5 Z"/></g>
<g><path style="opacity:1" fill="#f7f4f4" d="M 281.5,321.5 C 262.116,341.885 242.116,361.551 221.5,380.5C 220.167,378.5 218.5,376.833 216.5,375.5C 215.306,374.728 214.306,373.728 213.5,372.5C 215.832,369.315 215.999,365.981 214,362.5C 196.167,344.667 178.333,326.833 160.5,309C 184.5,285 208.5,261 232.5,237C 233.167,236.333 233.833,236.333 234.5,237C 240.833,243.333 247.167,249.667 253.5,256C 240.993,258.334 230.493,264.168 222,273.5C 214.505,286.682 217.671,296.515 231.5,303C 246.001,307.445 259.668,305.612 272.5,297.5C 274.319,305.96 277.319,313.96 281.5,321.5 Z"/></g>
<g><path style="opacity:1" fill="#d9616c" d="M 92.5,264.5 C 96.9985,269.631 100.665,275.464 103.5,282C 98.3564,294.452 93.3564,306.952 88.5,319.5C 78.2118,310.47 74.3785,299.137 77,285.5C 79.7188,276.625 84.8855,269.625 92.5,264.5 Z"/></g>
<g><path style="opacity:1" fill="#d4b3a3" d="M 170.5,264.5 C 172.488,267.841 173.322,271.508 173,275.5C 171,277.5 169,279.5 167,281.5C 167.676,275.788 168.842,270.122 170.5,264.5 Z"/></g>
<g><path style="opacity:1" fill="#f1eeee" d="M 251.5,271.5 C 258.468,270.804 265.134,271.804 271.5,274.5C 272.568,276.187 272.401,277.854 271,279.5C 262.188,287.986 251.688,291.486 239.5,290C 236.966,289.484 234.8,288.317 233,286.5C 233.472,282.982 235.306,280.149 238.5,278C 242.647,275.26 246.98,273.093 251.5,271.5 Z"/></g>
<g><path style="opacity:0.994" fill="#f1ecec" d="M 16.5,299.5 C 20.4608,293.871 25.1275,288.871 30.5,284.5C 32.354,286.596 34.6873,287.929 37.5,288.5C 45.33,284.223 53.6633,281.557 62.5,280.5C 62.3031,284.622 61.4698,288.622 60,292.5C 47.869,295.304 38.5356,301.971 32,312.5C 22.7393,333.1 26.2393,351.266 42.5,367C 41.1916,370.454 39.525,373.621 37.5,376.5C 33.2233,373.727 29.39,370.393 26,366.5C 13.0516,347.568 11.2183,327.568 20.5,306.5C 20.026,303.689 18.6927,301.355 16.5,299.5 Z"/></g>
<g><path style="opacity:1" fill="#f2eded" d="M 227.5,386.5 C 225.167,384.833 223.167,382.833 221.5,380.5C 242.116,361.551 262.116,341.885 281.5,321.5C 283.416,324.598 285.583,327.598 288,330.5C 293.182,337.09 298.182,337.09 303,330.5C 303.667,328.5 303.667,326.5 303,324.5C 293.153,315.288 288.153,303.954 288,290.5C 300.5,303 313,315.5 325.5,328C 301.5,352 277.5,376 253.5,400C 252.833,400.667 252.167,400.667 251.5,400C 246.833,395.333 242.167,390.667 237.5,386C 234.05,383.991 230.717,384.158 227.5,386.5 Z"/></g>
<g><path style="opacity:1" fill="#90cf9f" d="M 71.5,324.5 C 75.6855,328.52 80.0189,332.353 84.5,336C 78.2092,356.036 74.5425,376.536 73.5,397.5C 66.1857,395.671 58.8523,393.838 51.5,392C 50.4844,391.481 49.8178,390.647 49.5,389.5C 54.4511,377.597 59.9511,365.93 66,354.5C 69.7317,344.855 71.5651,334.855 71.5,324.5 Z"/></g>
<g><path style="opacity:1" fill="#ebc6b4" d="M 160.5,330.5 C 168.416,337.246 175.416,344.746 181.5,353C 179.919,374.477 176.419,395.643 171,416.5C 162.721,388.466 159.221,359.799 160.5,330.5 Z"/></g>
<g><path style="opacity:1" fill="#e1a68c" d="M 213.5,372.5 C 214.306,373.728 215.306,374.728 216.5,375.5C 208.114,383.89 199.447,391.89 190.5,399.5C 192.224,388.159 194.057,376.825 196,365.5C 198.869,368.704 202.035,371.537 205.5,374C 208.438,374.712 211.104,374.212 213.5,372.5 Z"/></g>
<g><path style="opacity:1" fill="#df9174" d="M 216.5,375.5 C 218.5,376.833 220.167,378.5 221.5,380.5C 223.167,382.833 225.167,384.833 227.5,386.5C 225.044,389.682 224.877,393.015 227,396.5C 229.833,399.333 232.667,402.167 235.5,405C 211.086,430.081 186.419,454.748 161.5,479C 142.484,491.613 123.484,491.613 104.5,479C 102.959,477.629 101.625,476.129 100.5,474.5C 109.245,473.752 117.245,470.919 124.5,466C 136.339,454.994 148.005,443.827 159.5,432.5C 161.197,437.075 163.197,441.575 165.5,446C 169.451,448.101 173.284,447.934 177,445.5C 182.75,430.492 187.25,415.158 190.5,399.5C 199.447,391.89 208.114,383.89 216.5,375.5 Z"/></g>
<g><path style="opacity:1" fill="#e7c380" d="M 25.5,400.5 C 40.8319,404.5 56.1652,408.5 71.5,412.5C 71.5,417.167 71.5,421.833 71.5,426.5C 55.2479,422.249 38.9145,418.249 22.5,414.5C 23.5,409.833 24.5,405.167 25.5,400.5 Z"/></g>
<g><path style="opacity:1" fill="#90cf9e" d="M 56.5,439.5 C 56.7352,438.903 57.2352,438.57 58,438.5C 62.07,439.947 66.2367,440.947 70.5,441.5C 70.8153,454.774 74.8153,466.774 82.5,477.5C 74.3531,481.477 67.8531,479.477 63,471.5C 61.4066,461.498 59.74,451.498 58,441.5C 57.7216,440.584 57.2216,439.918 56.5,439.5 Z"/></g>
</svg>
