<?xml version="1.0" encoding="UTF-8"?>
<!DOCTYPE svg PUBLIC "-//W3C//DTD SVG 1.1//EN" "http://www.w3.org/Graphics/SVG/1.1/DTD/svg11.dtd">
<svg xmlns="http://www.w3.org/2000/svg" version="1.1" width="512px" height="512px" style="shape-rendering:geometricPrecision; text-rendering:geometricPrecision; image-rendering:optimizeQuality; fill-rule:evenodd; clip-rule:evenodd" xmlns:xlink="http://www.w3.org/1999/xlink">
<g><path style="opacity:0.962" fill="#ea3527" d="M 434.5,117.5 C 429.833,113.833 425.167,110.167 420.5,106.5C 422.859,101.631 426.193,97.4647 430.5,94C 426.71,86.9166 422.543,80.0833 418,73.5C 400.03,78.5909 384.364,74.5909 371,61.5C 365.874,64.3126 360.707,66.9793 355.5,69.5C 350.833,65.8333 346.167,62.1667 341.5,58.5C 351.005,51.9968 361.171,46.6635 372,42.5C 374.253,42.6313 376.419,43.1313 378.5,44C 381.483,46.9145 384.483,49.9145 387.5,53C 394.716,58.1417 402.716,59.8084 411.5,58C 417.226,54.8412 422.893,54.8412 428.5,58C 437.275,69.219 443.942,81.5523 448.5,95C 448.671,98.1293 447.838,100.963 446,103.5C 440.479,106.848 436.645,111.514 434.5,117.5 Z"/></g>
<g><path style="opacity:0.965" fill="#ec4524" d="M 341.5,58.5 C 346.167,62.1667 350.833,65.8333 355.5,69.5C 341.834,78.0024 327.834,86.0024 313.5,93.5C 313.611,92.8826 313.944,92.3826 314.5,92C 311.167,88.6667 307.833,85.3333 304.5,82C 303.552,81.5172 302.552,81.3505 301.5,81.5C 314.499,73.3312 327.832,65.6646 341.5,58.5 Z"/></g>
<g><path style="opacity:0.97" fill="#ed4e23" d="M 301.5,81.5 C 302.552,81.3505 303.552,81.5172 304.5,82C 307.833,85.3333 311.167,88.6667 314.5,92C 313.944,92.3826 313.611,92.8826 313.5,93.5C 307.201,97.9885 300.534,101.988 293.5,105.5C 292.448,105.649 291.448,105.483 290.5,105C 286.561,101.571 283.228,97.7372 280.5,93.5C 287.337,89.2471 294.337,85.2471 301.5,81.5 Z"/></g>
<g><path style="opacity:0.965" fill="#ee5821" d="M 280.5,93.5 C 283.228,97.7372 286.561,101.571 290.5,105C 291.448,105.483 292.448,105.649 293.5,105.5C 279.834,114.002 265.834,122.002 251.5,129.5C 248.5,124.5 244.5,120.5 239.5,117.5C 252.967,109.263 266.634,101.263 280.5,93.5 Z"/></g>
<g><path style="opacity:0.965" fill="#ea3b26" d="M 420.5,106.5 C 425.167,110.167 429.833,113.833 434.5,117.5C 429.622,138.639 437.955,150.972 459.5,154.5C 463.354,154.453 467.021,153.62 470.5,152C 476.316,150.591 481.483,151.758 486,155.5C 491.667,165.5 497.333,175.5 503,185.5C 503.667,188.833 503.667,192.167 503,195.5C 499.301,200.027 495.468,204.361 491.5,208.5C 488.5,203.5 484.5,199.5 479.5,196.5C 480.906,193.586 482.906,191.086 485.5,189C 481.946,182.046 477.779,175.546 473,169.5C 450.951,174.8 433.618,168.133 421,149.5C 413.921,135.193 413.755,120.859 420.5,106.5 Z"/></g>
<g><path style="opacity:0.973" fill="#ef601f" d="M 239.5,117.5 C 244.5,120.5 248.5,124.5 251.5,129.5C 246.033,133.071 240.367,136.404 234.5,139.5C 233.448,139.649 232.448,139.483 231.5,139C 227.964,135.296 224.298,131.796 220.5,128.5C 226.57,124.442 232.903,120.775 239.5,117.5 Z"/></g>
<g><path style="opacity:0.967" fill="#f0661e" d="M 220.5,128.5 C 224.298,131.796 227.964,135.296 231.5,139C 232.448,139.483 233.448,139.649 234.5,139.5C 226.659,144.923 218.326,149.59 209.5,153.5C 205.806,149.14 201.806,145.14 197.5,141.5C 204.997,136.917 212.663,132.584 220.5,128.5 Z"/></g>
<g><path style="opacity:0.958" fill="#f16d1d" d="M 197.5,141.5 C 201.806,145.14 205.806,149.14 209.5,153.5C 203.201,157.988 196.534,161.988 189.5,165.5C 186.232,160.893 182.565,156.559 178.5,152.5C 184.634,148.596 190.968,144.929 197.5,141.5 Z"/></g>
<g><path style="opacity:0.967" fill="#ed5322" d="M 339.5,184.5 C 333.741,179.746 328.741,174.412 324.5,168.5C 325.011,160.046 326.178,151.713 328,143.5C 332.667,139.5 337.333,139.5 342,143.5C 343.006,145.534 343.506,147.7 343.5,150C 342.451,161.682 341.118,173.182 339.5,184.5 Z"/></g>
<g><path style="opacity:0.954" fill="#f1731c" d="M 178.5,152.5 C 182.565,156.559 186.232,160.893 189.5,165.5C 186.393,167.228 183.393,169.228 180.5,171.5C 179.026,175.731 178.026,180.064 177.5,184.5C 173.593,178.922 168.926,173.922 163.5,169.5C 164.583,160.415 169.583,154.749 178.5,152.5 Z"/></g>
<g><path style="opacity:0.969" fill="#ef611f" d="M 285.5,165.5 C 306.821,163.655 316.654,173.321 315,194.5C 310.186,207.83 300.686,213.33 286.5,211C 272.851,205.88 267.351,196.047 270,181.5C 272.685,173.65 277.852,168.316 285.5,165.5 Z M 289.5,182.5 C 298.818,182.655 300.818,186.488 295.5,194C 286.096,194.141 284.096,190.308 289.5,182.5 Z"/></g>
<g><path style="opacity:0.968" fill="#f2791b" d="M 163.5,169.5 C 168.926,173.922 173.593,178.922 177.5,184.5C 181.393,189.783 184.393,195.617 186.5,202C 184.887,210.14 180.221,212.473 172.5,209C 168.957,204.084 165.79,198.917 163,193.5C 160.021,191.793 156.854,190.459 153.5,189.5C 148.527,185.194 143.86,180.527 139.5,175.5C 141.958,172.693 145.125,171.359 149,171.5C 153.219,171.721 157.219,172.721 161,174.5C 161.985,172.825 162.819,171.158 163.5,169.5 Z"/></g>
<g><path style="opacity:0.968" fill="#f37f1a" d="M 139.5,175.5 C 143.86,180.527 148.527,185.194 153.5,189.5C 152.178,189.67 151.011,189.337 150,188.5C 144.686,191.906 139.186,194.906 133.5,197.5C 128.5,194.5 124.5,190.5 121.5,185.5C 127.17,181.663 133.17,178.33 139.5,175.5 Z"/></g>
<g><path style="opacity:0.974" fill="#f48619" d="M 121.5,185.5 C 124.5,190.5 128.5,194.5 133.5,197.5C 125.836,202.668 117.836,207.335 109.5,211.5C 108.448,211.649 107.448,211.483 106.5,211C 102.964,207.296 99.2976,203.796 95.5,200.5C 103.832,194.998 112.499,189.998 121.5,185.5 Z"/></g>
<g><path style="opacity:0.98" fill="#ef5e20" d="M 324.5,168.5 C 328.741,174.412 333.741,179.746 339.5,184.5C 338.467,199.861 337.134,215.195 335.5,230.5C 339.555,230.824 343.555,230.491 347.5,229.5C 345.924,227.021 344.924,224.354 344.5,221.5C 352.965,229.464 361.298,237.631 369.5,246C 367.942,246.21 366.609,246.71 365.5,247.5C 356.833,247.5 348.167,247.5 339.5,247.5C 332.833,240.167 325.833,233.167 318.5,226.5C 320.631,207.187 322.631,187.854 324.5,168.5 Z"/></g>
<g><path style="opacity:0.984" fill="#ee5a21" d="M 351.5,197.5 C 355.806,201.14 359.806,205.14 363.5,209.5C 360.76,211.9 359.927,214.9 361,218.5C 364.831,222.445 368.664,222.445 372.5,218.5C 397.113,242.779 421.78,267.112 446.5,291.5C 446.666,299.507 446.5,307.507 446,315.5C 445.148,316.571 444.315,317.571 443.5,318.5C 438.928,315.437 434.761,311.77 431,307.5C 430.829,298.99 430.329,290.657 429.5,282.5C 410.715,278.048 399.381,266.382 395.5,247.5C 385.5,247.5 375.5,247.5 365.5,247.5C 366.609,246.71 367.942,246.21 369.5,246C 361.298,237.631 352.965,229.464 344.5,221.5C 341.951,212.14 344.285,204.14 351.5,197.5 Z"/></g>
<g><path style="opacity:0.97" fill="#f58d18" d="M 95.5,200.5 C 99.2976,203.796 102.964,207.296 106.5,211C 107.448,211.483 108.448,211.649 109.5,211.5C 102.996,216.255 95.9965,220.255 88.5,223.5C 84.1396,219.806 80.1396,215.806 76.5,211.5C 82.6618,207.584 88.9951,203.917 95.5,200.5 Z"/></g>
<g><path style="opacity:0.98" fill="#f59217" d="M 76.5,211.5 C 80.1396,215.806 84.1396,219.806 88.5,223.5C 86.572,225.474 84.2387,226.974 81.5,228C 80.7476,228.671 80.4142,229.504 80.5,230.5C 85.6509,231.327 90.9842,231.827 96.5,232C 101.703,237.035 106.703,242.202 111.5,247.5C 101.167,247.5 90.8333,247.5 80.5,247.5C 74.8333,241.167 68.8333,235.167 62.5,229.5C 62.1842,226.022 62.6842,222.688 64,219.5C 67.6299,215.939 71.7965,213.272 76.5,211.5 Z"/></g>
<g><path style="opacity:0.94" fill="#f2791b" d="M 235.5,230.5 C 232.695,231.319 229.695,231.819 226.5,232C 231.703,237.035 236.703,242.202 241.5,247.5C 231.167,247.5 220.833,247.5 210.5,247.5C 201.447,237.445 191.78,228.112 181.5,219.5C 183.483,214.508 187.15,212.675 192.5,214C 194.286,214.785 195.786,215.951 197,217.5C 198.966,221.626 201.132,225.626 203.5,229.5C 214.146,230.499 224.813,230.832 235.5,230.5 Z"/></g>
<g><path style="opacity:0.966" fill="#ec4524" d="M 479.5,196.5 C 484.5,199.5 488.5,203.5 491.5,208.5C 486.989,216.599 486.489,224.932 490,233.5C 490.667,237.167 490.667,240.833 490,244.5C 486.497,249.169 481.997,252.502 476.5,254.5C 472.86,250.194 468.86,246.194 464.5,242.5C 467.377,240.566 470.043,238.399 472.5,236C 468.484,221.592 470.817,208.425 479.5,196.5 Z"/></g>
<g><path style="opacity:0.969" fill="#f37f1a" d="M 181.5,219.5 C 191.78,228.112 201.447,237.445 210.5,247.5C 198.5,247.5 186.5,247.5 174.5,247.5C 170.5,243.833 166.5,240.167 162.5,236.5C 163.673,234.496 165.34,232.996 167.5,232C 173.103,230.876 178.769,230.21 184.5,230C 181.527,226.932 180.527,223.432 181.5,219.5 Z"/></g>
<g><path style="opacity:0.94" fill="#f0671e" d="M 318.5,226.5 C 325.833,233.167 332.833,240.167 339.5,247.5C 327.5,247.5 315.5,247.5 303.5,247.5C 298.703,242.202 293.703,237.035 288.5,232C 284.514,231.501 280.514,231.334 276.5,231.5C 276.5,231.167 276.5,230.833 276.5,230.5C 290.5,230.5 304.5,230.5 318.5,230.5C 318.5,229.167 318.5,227.833 318.5,226.5 Z"/></g>
<g><path style="opacity:0.962" fill="#f69916" d="M 62.5,229.5 C 68.8333,235.167 74.8333,241.167 80.5,247.5C 73.1667,247.5 65.8333,247.5 58.5,247.5C 58.1394,251.915 56.8061,255.915 54.5,259.5C 54.6495,258.448 54.4828,257.448 54,256.5C 49.9353,252.605 46.102,248.605 42.5,244.5C 42.384,239.898 44.0507,236.065 47.5,233C 52.4993,231.292 57.4993,230.126 62.5,229.5 Z"/></g>
<g><path style="opacity:0.926" fill="#f1731c" d="M 235.5,230.5 C 249.167,230.5 262.833,230.5 276.5,230.5C 276.5,230.833 276.5,231.167 276.5,231.5C 270.158,231.334 263.825,231.5 257.5,232C 262.703,237.035 267.703,242.202 272.5,247.5C 262.167,247.5 251.833,247.5 241.5,247.5C 236.703,242.202 231.703,237.035 226.5,232C 229.695,231.819 232.695,231.319 235.5,230.5 Z"/></g>
<g><path style="opacity:0.981" fill="#ee5521" d="M 439.5,256.5 C 444.23,260.227 448.23,264.56 451.5,269.5C 449.364,270.403 447.364,271.569 445.5,273C 446.476,279.076 446.81,285.242 446.5,291.5C 421.78,267.112 397.113,242.779 372.5,218.5C 373.167,211.833 370.167,208.833 363.5,209.5C 359.806,205.14 355.806,201.14 351.5,197.5C 361.893,190.724 372.226,190.891 382.5,198C 389.092,204.886 391.259,213.052 389,222.5C 388.361,225.112 387.194,227.446 385.5,229.5C 392.66,229.94 399.66,231.107 406.5,233C 408.049,234.214 409.215,235.714 410,237.5C 411.254,249.038 416.754,257.705 426.5,263.5C 431.02,261.409 435.353,259.075 439.5,256.5 Z"/></g>
<g><path style="opacity:0.977" fill="#f48719" d="M 121.5,230.5 C 129.903,230.13 138.236,230.63 146.5,232C 150.299,234.797 153.799,237.964 157,241.5C 158.704,239.627 160.537,237.96 162.5,236.5C 166.5,240.167 170.5,243.833 174.5,247.5C 171.871,250.631 169.038,253.631 166,256.5C 165.503,259.146 165.336,261.813 165.5,264.5C 164.71,265.609 164.21,266.942 164,268.5C 151.833,256.333 139.667,244.167 127.5,232C 125.292,231.809 123.292,231.309 121.5,230.5 Z"/></g>
<g><path style="opacity:0.992" fill="#f16d1d" d="M 276.5,231.5 C 280.514,231.334 284.514,231.501 288.5,232C 293.703,237.035 298.703,242.202 303.5,247.5C 293.167,247.5 282.833,247.5 272.5,247.5C 267.703,242.202 262.703,237.035 257.5,232C 263.825,231.5 270.158,231.334 276.5,231.5 Z"/></g>
<g><path style="opacity:0.966" fill="#ed4e23" d="M 464.5,242.5 C 468.86,246.194 472.86,250.194 476.5,254.5C 468.368,259.737 460.035,264.737 451.5,269.5C 448.23,264.56 444.23,260.227 439.5,256.5C 447.664,251.583 455.997,246.917 464.5,242.5 Z"/></g>
<g><path style="opacity:0.937" fill="#f48c18" d="M 80.5,230.5 C 94.1667,230.5 107.833,230.5 121.5,230.5C 123.292,231.309 125.292,231.809 127.5,232C 139.667,244.167 151.833,256.333 164,268.5C 164.21,266.942 164.71,265.609 165.5,264.5C 165.666,268.514 165.499,272.514 165,276.5C 160.775,283.358 155.775,284.025 150,278.5C 148.737,271.272 148.07,263.939 148,256.5C 145.167,253.667 142.333,250.833 139.5,248C 130.173,247.5 120.839,247.334 111.5,247.5C 106.703,242.202 101.703,237.035 96.5,232C 90.9842,231.827 85.6509,231.327 80.5,230.5 Z"/></g>
<g><path style="opacity:0.969" fill="#f7a314" d="M 42.5,244.5 C 46.102,248.605 49.9353,252.605 54,256.5C 54.4828,257.448 54.6495,258.448 54.5,259.5C 48.0111,272.254 37.6777,279.921 23.5,282.5C 23.5,284.167 23.5,285.833 23.5,287.5C 18.5,282.833 13.5,278.167 8.5,273.5C 9.11746,271.771 10.1175,270.271 11.5,269C 15.622,267.04 19.9553,265.707 24.5,265C 33.6158,260.956 39.6158,254.122 42.5,244.5 Z"/></g>
<g><path style="opacity:0.987" fill="#f8ab12" d="M 8.5,273.5 C 13.5,278.167 18.5,282.833 23.5,287.5C 23.5,293.833 23.5,300.167 23.5,306.5C 43.1381,310.805 55.1381,322.805 59.5,342.5C 58.7784,342.918 58.2784,343.584 58,344.5C 41.3333,327.833 24.6667,311.167 8,294.5C 7.50074,289.511 7.33407,284.511 7.5,279.5C 7.20528,277.265 7.53862,275.265 8.5,273.5 Z"/></g>
<g><path style="opacity:0.952" fill="#f59217" d="M 153.5,288.5 C 158.742,287.271 162.575,288.937 165,293.5C 165.667,302.167 165.667,310.833 165,319.5C 159.667,327.5 154.333,327.5 149,319.5C 148.333,310.833 148.333,302.167 149,293.5C 150.025,291.313 151.525,289.646 153.5,288.5 Z"/></g>
<g><path style="opacity:0.973" fill="#f79e14" d="M 83.5,290.5 C 85.2922,291.309 87.2922,291.809 89.5,292C 94.7031,297.035 99.7031,302.202 104.5,307.5C 95.4938,307.666 86.4938,307.5 77.5,307C 72.1667,302 72.1667,297 77.5,292C 79.4357,291.187 81.4357,290.687 83.5,290.5 Z"/></g>
<g><path style="opacity:0.987" fill="#f69815" d="M 83.5,290.5 C 97.504,290.333 111.504,290.5 125.5,291C 131.964,292.756 134.13,296.923 132,303.5C 130.833,304.667 129.667,305.833 128.5,307C 120.507,307.5 112.507,307.666 104.5,307.5C 99.7031,302.202 94.7031,297.035 89.5,292C 87.2922,291.809 85.2922,291.309 83.5,290.5 Z"/></g>
<g><path style="opacity:0.988" fill="#f9b111" d="M 7.5,279.5 C 7.33407,284.511 7.50074,289.511 8,294.5C 24.6667,311.167 41.3333,327.833 58,344.5C 58.2784,343.584 58.7784,342.918 59.5,342.5C 61.4666,356.931 57.4666,369.264 47.5,379.5C 43.5,375.833 39.5,372.167 35.5,368.5C 45.3714,354.792 44.7047,341.625 33.5,329C 26.6691,324.791 19.3358,321.791 11.5,320C 10.2125,318.59 9.04584,317.09 8,315.5C 6.29268,303.37 6.12602,291.37 7.5,279.5 Z"/></g>
<g><path style="opacity:0.973" fill="#f37e1a" d="M 273.5,339.5 C 269.37,334.869 265.037,330.369 260.5,326C 260.728,325.601 261.062,325.435 261.5,325.5C 267.133,325.039 269.633,322.039 269,316.5C 262.681,310.735 258.514,312.068 256.5,320.5C 256.565,320.938 256.399,321.272 256,321.5C 251.631,316.963 247.131,312.63 242.5,308.5C 249.033,297.367 258.7,293.534 271.5,297C 286.926,305.622 290.426,317.789 282,333.5C 279.823,336.523 276.989,338.523 273.5,339.5 Z"/></g>
<g><path style="opacity:0.948" fill="#f2731c" d="M 317.5,323.5 C 313.435,319.441 309.768,315.107 306.5,310.5C 308.531,306.289 311.198,302.456 314.5,299C 323.872,295.428 328.372,298.594 328,308.5C 324.97,313.916 321.47,318.916 317.5,323.5 Z"/></g>
<g><path style="opacity:0.967" fill="#f0621f" d="M 429.5,282.5 C 430.329,290.657 430.829,298.99 431,307.5C 434.761,311.77 438.928,315.437 443.5,318.5C 442.251,320.136 440.584,321.303 438.5,322C 431.943,322.785 425.943,324.952 420.5,328.5C 416.833,324.5 413.167,320.5 409.5,316.5C 415.022,311.072 421.688,307.739 429.5,306.5C 429.5,298.5 429.5,290.5 429.5,282.5 Z"/></g>
<g><path style="opacity:0.965" fill="#f2791b" d="M 306.5,310.5 C 309.768,315.107 313.435,319.441 317.5,323.5C 313.733,329.38 309.733,335.046 305.5,340.5C 300.5,337.5 296.5,333.5 293.5,328.5C 297.356,322.109 301.689,316.109 306.5,310.5 Z"/></g>
<g><path style="opacity:0.971" fill="#f48419" d="M 242.5,308.5 C 247.131,312.63 251.631,316.963 256,321.5C 256.399,321.272 256.565,320.938 256.5,320.5C 257.833,322.5 259.5,324.167 261.5,325.5C 261.062,325.435 260.728,325.601 260.5,326C 265.037,330.369 269.37,334.869 273.5,339.5C 261.318,344.912 251.151,342.245 243,331.5C 238.666,323.775 238.5,316.109 242.5,308.5 Z"/></g>
<g><path style="opacity:0.962" fill="#f0671e" d="M 409.5,316.5 C 413.167,320.5 416.833,324.5 420.5,328.5C 413.541,335.707 410.541,344.374 411.5,354.5C 406.443,349.438 401.11,344.772 395.5,340.5C 397.09,330.647 401.757,322.647 409.5,316.5 Z"/></g>
<g><path style="opacity:0.946" fill="#f8a513" d="M 91.5,324.5 C 96.2969,329.798 101.297,334.965 106.5,340C 104.618,340.198 102.952,340.698 101.5,341.5C 94.1591,341.666 86.8258,341.5 79.5,341C 75.3339,340.015 73.3339,337.348 73.5,333C 73.4076,330.186 74.4076,327.853 76.5,326C 81.3722,324.612 86.3722,324.112 91.5,324.5 Z"/></g>
<g><path style="opacity:0.94" fill="#f79f14" d="M 91.5,324.5 C 103.838,324.333 116.171,324.5 128.5,325C 133.453,329.643 133.787,334.643 129.5,340C 120.248,341.417 110.915,341.917 101.5,341.5C 102.952,340.698 104.618,340.198 106.5,340C 101.297,334.965 96.2969,329.798 91.5,324.5 Z"/></g>
<g><path style="opacity:0.969" fill="#f37f1a" d="M 293.5,328.5 C 296.5,333.5 300.5,337.5 305.5,340.5C 301.066,347.049 296.399,353.383 291.5,359.5C 291.649,358.448 291.483,357.448 291,356.5C 287.227,353.236 284.06,349.57 281.5,345.5C 284.765,339.299 288.765,333.632 293.5,328.5 Z"/></g>
<g><path style="opacity:0.934" fill="#f69a15" d="M 153.5,331.5 C 158.635,330.426 162.468,332.093 165,336.5C 165.667,345.167 165.667,353.833 165,362.5C 159.667,370.5 154.333,370.5 149,362.5C 148.333,353.833 148.333,345.167 149,336.5C 150.025,334.313 151.525,332.646 153.5,331.5 Z"/></g>
<g><path style="opacity:0.974" fill="#f16d1d" d="M 395.5,340.5 C 401.11,344.772 406.443,349.438 411.5,354.5C 415.665,368.938 425.331,376.772 440.5,378C 442,379.5 443.5,381 445,382.5C 446.461,395.067 446.961,407.734 446.5,420.5C 441.202,415.703 436.035,410.703 431,405.5C 430.824,401.312 430.324,397.312 429.5,393.5C 403.323,385.5 391.989,367.834 395.5,340.5 Z"/></g>
<g><path style="opacity:0.981" fill="#f48619" d="M 281.5,345.5 C 284.06,349.57 287.227,353.236 291,356.5C 291.483,357.448 291.649,358.448 291.5,359.5C 286.223,368.401 280.223,376.734 273.5,384.5C 269.5,380.833 265.5,377.167 261.5,373.5C 267.679,363.806 274.345,354.473 281.5,345.5 Z"/></g>
<g><path style="opacity:0.969" fill="#f37f1a" d="M 330.5,395.5 C 326.5,391.833 322.5,388.167 318.5,384.5C 320.946,380.607 320.279,377.107 316.5,374C 311.562,372.798 308.562,374.631 307.5,379.5C 302.167,376.167 297.833,371.833 294.5,366.5C 300.679,357.937 309.012,354.77 319.5,357C 335.004,362.844 340.171,373.677 335,389.5C 334.208,392.106 332.708,394.106 330.5,395.5 Z"/></g>
<g><path style="opacity:0.944" fill="#f8aa12" d="M 103.5,357.5 C 100.695,358.319 97.6946,358.819 94.5,359C 99.7031,364.035 104.703,369.202 109.5,374.5C 99.1613,374.666 88.828,374.5 78.5,374C 73.9315,371.459 72.4315,367.625 74,362.5C 75.1094,360.185 76.9427,358.685 79.5,358C 87.4931,357.5 95.4931,357.334 103.5,357.5 Z"/></g>
<g><path style="opacity:0.958" fill="#f8a513" d="M 103.5,357.5 C 112.25,357.09 120.916,357.59 129.5,359C 133.787,364.357 133.453,369.357 128.5,374C 122.175,374.5 115.842,374.666 109.5,374.5C 104.703,369.202 99.7031,364.035 94.5,359C 97.6946,358.819 100.695,358.319 103.5,357.5 Z"/></g>
<g><path style="opacity:0.978" fill="#f48519" d="M 294.5,366.5 C 297.833,371.833 302.167,376.167 307.5,379.5C 308.996,385.397 312.662,387.063 318.5,384.5C 322.5,388.167 326.5,391.833 330.5,395.5C 326.14,400.738 320.473,403.071 313.5,402.5C 302.086,402.04 294.586,396.374 291,385.5C 289.594,378.553 290.761,372.22 294.5,366.5 Z"/></g>
<g><path style="opacity:0.969" fill="#f58e17" d="M 261.5,373.5 C 265.5,377.167 269.5,380.833 273.5,384.5C 270.053,389.787 266.386,394.954 262.5,400C 252.359,402.863 248.192,399.03 250,388.5C 253.369,383.071 257.202,378.071 261.5,373.5 Z"/></g>
<g><path style="opacity:0.931" fill="#f7a314" d="M 153.5,374.5 C 158.635,373.426 162.468,375.093 165,379.5C 165.667,388.167 165.667,396.833 165,405.5C 159.667,413.5 154.333,413.5 149,405.5C 148.333,396.833 148.333,388.167 149,379.5C 150.025,377.313 151.525,375.646 153.5,374.5 Z"/></g>
<g><path style="opacity:0.968" fill="#f8ab12" d="M 95.5,391.5 C 106.505,391.333 117.505,391.5 128.5,392C 132.277,394.955 133.443,398.788 132,403.5C 131.5,405.333 130.333,406.5 128.5,407C 119.582,408.414 110.582,408.914 101.5,408.5C 104.305,407.681 107.305,407.181 110.5,407C 105.297,401.965 100.297,396.798 95.5,391.5 Z"/></g>
<g><path style="opacity:0.972" fill="#f9b211" d="M 95.5,391.5 C 100.297,396.798 105.297,401.965 110.5,407C 107.305,407.181 104.305,407.681 101.5,408.5C 94.4921,408.666 87.4921,408.5 80.5,408C 74.0455,406.183 71.8788,402.016 74,395.5C 75.1667,394.333 76.3333,393.167 77.5,392C 83.4908,391.501 89.4908,391.334 95.5,391.5 Z"/></g>
<g><path style="opacity:0.969" fill="#fcc50e" d="M 7.5,389.5 C 7.33432,393.846 7.50098,398.179 8,402.5C 30.035,424.368 51.8683,446.368 73.5,468.5C 66.1591,468.666 58.8258,468.5 51.5,468C 47.3333,466.5 44.5,463.667 43,459.5C 40.387,443.221 30.887,434.054 14.5,432C 9.61655,429.736 7.11655,425.902 7,420.5C 6.1748,409.992 6.34147,399.658 7.5,389.5 Z"/></g>
<g><path style="opacity:0.941" fill="#fabe0f" d="M 35.5,368.5 C 39.5,372.167 43.5,375.833 47.5,379.5C 41.3599,386.766 33.5266,391.433 24,393.5C 23.5003,401.159 23.3336,408.826 23.5,416.5C 42.8744,420.541 54.541,432.208 58.5,451.5C 70.1667,451.5 81.8333,451.5 93.5,451.5C 92.3915,452.29 91.0581,452.79 89.5,453C 94.7031,458.035 99.7031,463.202 104.5,468.5C 94.1667,468.5 83.8333,468.5 73.5,468.5C 51.8683,446.368 30.035,424.368 8,402.5C 7.50098,398.179 7.33432,393.846 7.5,389.5C 7.23837,384.524 9.23837,380.691 13.5,378C 21.9494,377.245 29.2827,374.078 35.5,368.5 Z"/></g>
<g><path style="opacity:0.963" fill="#f8ab12" d="M 192.5,451.5 C 191.391,452.29 190.058,452.79 188.5,453C 193.703,458.035 198.703,463.202 203.5,468.5C 191.753,468.811 180.086,468.478 168.5,467.5C 168.611,466.883 168.944,466.383 169.5,466C 161.964,458.632 154.631,451.132 147.5,443.5C 148.035,435.808 148.868,428.141 150,420.5C 152.995,417.735 156.495,416.902 160.5,418C 162.667,418.833 164.167,420.333 165,422.5C 165.333,429.167 165.667,435.833 166,442.5C 168.833,445.333 171.667,448.167 174.5,451C 180.491,451.499 186.491,451.666 192.5,451.5 Z"/></g>
<g><path style="opacity:0.969" fill="#f2771b" d="M 429.5,393.5 C 430.324,397.312 430.824,401.312 431,405.5C 436.035,410.703 441.202,415.703 446.5,420.5C 446.858,424.95 445.192,428.45 441.5,431C 429.141,432.227 419.808,438.06 413.5,448.5C 408.893,445.232 404.559,441.565 400.5,437.5C 406.907,426.779 416.24,419.779 428.5,416.5C 429.497,408.862 429.831,401.196 429.5,393.5 Z"/></g>
<g><path style="opacity:0.977" fill="#f37f1a" d="M 400.5,437.5 C 404.559,441.565 408.893,445.232 413.5,448.5C 412.423,453.631 410.923,458.631 409,463.5C 405.124,467.844 400.291,469.511 394.5,468.5C 389.703,463.202 384.703,458.035 379.5,453C 377.292,452.809 375.292,452.309 373.5,451.5C 380.833,451.5 388.167,451.5 395.5,451.5C 395.999,446.331 397.666,441.664 400.5,437.5 Z"/></g>
<g><path style="opacity:0.964" fill="#fab810" d="M 93.5,451.5 C 103.833,451.5 114.167,451.5 124.5,451.5C 123.391,452.29 122.058,452.79 120.5,453C 125.703,458.035 130.703,463.202 135.5,468.5C 125.167,468.5 114.833,468.5 104.5,468.5C 99.7031,463.202 94.7031,458.035 89.5,453C 91.0581,452.79 92.3915,452.29 93.5,451.5 Z"/></g>
<g><path style="opacity:0.941" fill="#f8a513" d="M 192.5,451.5 C 201.167,451.5 209.833,451.5 218.5,451.5C 223.297,456.798 228.297,461.965 233.5,467C 235.708,467.191 237.708,467.691 239.5,468.5C 227.5,468.5 215.5,468.5 203.5,468.5C 198.703,463.202 193.703,458.035 188.5,453C 190.058,452.79 191.391,452.29 192.5,451.5 Z"/></g>
<g><path style="opacity:0.95" fill="#f79f14" d="M 218.5,451.5 C 228.833,451.5 239.167,451.5 249.5,451.5C 254.297,456.798 259.297,461.965 264.5,467C 262.942,467.21 261.609,467.71 260.5,468.5C 253.5,468.5 246.5,468.5 239.5,468.5C 237.708,467.691 235.708,467.191 233.5,467C 228.297,461.965 223.297,456.798 218.5,451.5 Z"/></g>
<g><path style="opacity:0.934" fill="#f69816" d="M 249.5,451.5 C 261.5,451.5 273.5,451.5 285.5,451.5C 290.297,456.798 295.297,461.965 300.5,467C 302.708,467.191 304.708,467.691 306.5,468.5C 291.167,468.5 275.833,468.5 260.5,468.5C 261.609,467.71 262.942,467.21 264.5,467C 259.297,461.965 254.297,456.798 249.5,451.5 Z"/></g>
<g><path style="opacity:0.941" fill="#f59217" d="M 285.5,451.5 C 295.833,451.5 306.167,451.5 316.5,451.5C 321.297,456.798 326.297,461.965 331.5,467C 333.708,467.191 335.708,467.691 337.5,468.5C 327.167,468.5 316.833,468.5 306.5,468.5C 304.708,467.691 302.708,467.191 300.5,467C 295.297,461.965 290.297,456.798 285.5,451.5 Z"/></g>
<g><path style="opacity:0.94" fill="#f48c18" d="M 316.5,451.5 C 326.833,451.5 337.167,451.5 347.5,451.5C 352.297,456.798 357.297,461.965 362.5,467C 360.942,467.21 359.609,467.71 358.5,468.5C 351.5,468.5 344.5,468.5 337.5,468.5C 335.708,467.691 333.708,467.191 331.5,467C 326.297,461.965 321.297,456.798 316.5,451.5 Z"/></g>
<g><path style="opacity:0.958" fill="#f48619" d="M 347.5,451.5 C 356.167,451.5 364.833,451.5 373.5,451.5C 375.292,452.309 377.292,452.809 379.5,453C 384.703,458.035 389.703,463.202 394.5,468.5C 382.5,468.5 370.5,468.5 358.5,468.5C 359.609,467.71 360.942,467.21 362.5,467C 357.297,461.965 352.297,456.798 347.5,451.5 Z"/></g>
<g><path style="opacity:0.972" fill="#f9b311" d="M 147.5,443.5 C 154.631,451.132 161.964,458.632 169.5,466C 168.944,466.383 168.611,466.883 168.5,467.5C 164.581,464.925 160.915,461.925 157.5,458.5C 154.314,461.521 150.98,464.354 147.5,467C 143.605,468.266 139.605,468.766 135.5,468.5C 130.703,463.202 125.703,458.035 120.5,453C 122.058,452.79 123.391,452.29 124.5,451.5C 129.511,451.666 134.511,451.499 139.5,451C 142.036,448.295 144.703,445.795 147.5,443.5 Z"/></g>
</svg>
