<!DOCTYPE svg PUBLIC "-//W3C//DTD SVG 1.1//EN" "http://www.w3.org/Graphics/SVG/1.1/DTD/svg11.dtd">

<!-- Uploaded to: SVG Repo, www.svgrepo.com, Transformed by: SVG Repo Mixer Tools -->
<svg fill="#000000" width="800px" height="800px" viewBox="0 0 32 32" style="fill-rule:evenodd;clip-rule:evenodd;stroke-linejoin:round;stroke-miterlimit:2;" version="1.1" xml:space="preserve" xmlns="http://www.w3.org/2000/svg" xmlns:serif="http://www.serif.com/" xmlns:xlink="http://www.w3.org/1999/xlink">

<g id="SVGRepo_bgCarrier" stroke-width="0"/>

<g id="SVGRepo_tracerCarrier" stroke-linecap="round" stroke-linejoin="round"/>

<g id="SVGRepo_iconCarrier"> <g transform="matrix(1,0,0,1,-336,-336)"> <g transform="matrix(1,0,0,1,288,96)"> <path d="M77,253C75.344,253 74,254.344 74,256C74,257.656 75.344,259 77,259L77,263C77,264.105 76.105,265 75,265C70.157,265 57.843,265 53,265C51.895,265 51,264.105 51,263C51,261.255 51,259 51,259C52.656,259 54,257.656 54,256C54,254.344 52.656,253 51,253L51,249C51,247.895 51.895,247 53,247C57.843,247 70.157,247 75,247C76.105,247 77,247.895 77,249C77,250.745 77,253 77,253Z" style="fill:#FFC19F;"/> </g> <path d="M341,362C339.343,362 338,360.657 338,359L338,355C338,354.448 338.448,354 339,354C340.104,354 341,353.104 341,352C341,350.896 340.104,350 339,350C338.448,350 338,349.552 338,349L338,345C338,343.343 339.343,342 341,342L363,342C364.657,342 366,343.343 366,345L366,349C366,349.552 365.552,350 365,350C363.896,350 363,350.896 363,352C363,353.104 363.896,354 365,354C365.552,354 366,354.448 366,355L366,359C366,360.657 364.657,362 363,362L341,362ZM341,360L363,360C363.552,360 364,359.552 364,359C364,359 364,355.874 364,355.874C362.276,355.429 361,353.863 361,352C361,350.137 362.276,348.571 364,348.126C364,348.126 364,345 364,345C364,344.448 363.552,344 363,344L341,344C340.448,344 340,344.448 340,345C340,345 340,348.126 340,348.126C341.724,348.571 343,350.137 343,352C343,353.863 341.724,355.429 340,355.874C340,355.874 340,359 340,359C340,359.552 340.448,360 341,360ZM356,357L356,358C356,358.552 356.448,359 357,359C357.552,359 358,358.552 358,358L358,357C358,356.448 357.552,356 357,356C356.448,356 356,356.448 356,357ZM352,354C352.552,354 353,354.448 353,355C353,355.552 352.552,356 352,356C351.448,356 351,355.552 351,355C351,354.448 351.448,354 352,354ZM346.707,355.707L352.707,349.707C353.097,349.317 353.097,348.683 352.707,348.293C352.317,347.903 351.683,347.903 351.293,348.293L345.293,354.293C344.903,354.683 344.903,355.317 345.293,355.707C345.683,356.097 346.317,356.097 346.707,355.707ZM356,351L356,353C356,353.552 356.448,354 357,354C357.552,354 358,353.552 358,353L358,351C358,350.448 357.552,350 357,350C356.448,350 356,350.448 356,351ZM346,348C346.552,348 347,348.448 347,349C347,349.552 346.552,350 346,350C345.448,350 345,349.552 345,349C345,348.448 345.448,348 346,348ZM356,346L356,347C356,347.552 356.448,348 357,348C357.552,348 358,347.552 358,347L358,346C358,345.448 357.552,345 357,345C356.448,345 356,345.448 356,346Z" style="fill:#FA6400;"/> </g> </g>

</svg>